<?xml version="1.0" encoding="UTF-8"?>
<!DOCTYPE svg PUBLIC "-//W3C//DTD SVG 1.1//EN" "http://www.w3.org/Graphics/SVG/1.1/DTD/svg11.dtd">
<svg xmlns="http://www.w3.org/2000/svg" version="1.1" width="512px" height="512px" style="shape-rendering:geometricPrecision; text-rendering:geometricPrecision; image-rendering:optimizeQuality; fill-rule:evenodd; clip-rule:evenodd" xmlns:xlink="http://www.w3.org/1999/xlink">
<g><path fill="#FFFF55" d="M 260.5,15.5 C 264.514,15.3345 268.514,15.5012 272.5,16C 274.741,17.7391 276.408,19.9058 277.5,22.5C 312.344,21.3363 344.844,29.3363 375,46.5C 376.026,64.4225 371.192,80.5891 360.5,95C 359.216,95.6838 358.049,95.5171 357,94.5C 353.167,100.333 349.333,106.167 345.5,112C 349.339,115.009 353.006,118.176 356.5,121.5C 353.397,126.052 350.064,130.386 346.5,134.5C 343.193,132.36 340.026,130.026 337,127.5C 327.455,142.753 318.289,158.253 309.5,174C 296.313,176.891 283.146,179.724 270,182.5C 261.629,201.408 253.129,220.241 244.5,239C 263.649,247.83 282.816,256.663 302,265.5C 308.132,287.026 313.798,308.693 319,330.5C 339.932,356.38 367.098,368.88 400.5,368C 426,373.5 441.5,389 447,414.5C 447.919,430.213 447.586,445.879 446,461.5C 437.065,488.431 418.398,502.431 390,503.5C 362.887,502.785 344.554,489.785 335,464.5C 319.578,402.646 304.078,340.812 288.5,279C 286.874,277.181 284.874,275.848 282.5,275C 262.483,266.551 242.649,257.718 223,248.5C 206.506,322.146 189.84,395.813 173,469.5C 157.462,498.344 133.629,508.844 101.5,501C 72.7629,488.714 60.0963,466.881 63.5,435.5C 60.3781,400.203 75.7114,377.703 109.5,368C 142.294,368.853 168.127,356.019 187,329.5C 193.251,300.24 199.751,271.074 206.5,242C 187.833,233.333 169.167,224.667 150.5,216C 143.963,210.245 141.797,203.078 144,194.5C 146.238,187.93 150.738,183.763 157.5,182C 161.5,181.333 165.5,180.667 169.5,180C 178.244,175.546 186.744,170.713 195,165.5C 193.16,154.276 192.16,142.943 192,131.5C 200.374,117.25 208.874,103.084 217.5,89C 215.842,88.2747 215.342,87.108 216,85.5C 227,65.5 238,45.5 249,25.5C 251.794,20.8659 255.627,17.5326 260.5,15.5 Z M 262.5,55.5 C 290.824,59.2742 317.157,68.6075 341.5,83.5C 342.583,84.365 342.749,85.365 342,86.5C 338.4,92.0476 334.566,97.3809 330.5,102.5C 306.781,87.4785 281.114,77.1452 253.5,71.5C 256.512,66.1394 259.512,60.8061 262.5,55.5 Z M 244.5,87.5 C 257.503,89.751 270.17,93.251 282.5,98C 274.167,108.333 265.833,118.667 257.5,129C 242.415,137.96 227.249,146.793 212,155.5C 210.032,149.357 209.032,143.024 209,136.5C 217.167,122.833 225.333,109.167 233.5,95.5C 235.731,95.1133 238.064,94.9466 240.5,95C 241.973,92.5524 243.307,90.0524 244.5,87.5 Z M 298.5,104.5 C 300.807,105.653 303.14,106.82 305.5,108C 290.5,127 275.5,146 260.5,165C 246.554,167.991 232.554,170.324 218.5,172C 235.335,161.748 252.335,151.748 269.5,142C 279.406,129.605 289.073,117.105 298.5,104.5 Z M 319.5,116.5 C 321.225,116.843 321.725,117.843 321,119.5C 313.447,133.451 305.28,146.951 296.5,160C 292.848,160.889 289.182,161.222 285.5,161C 297.215,146.377 308.548,131.543 319.5,116.5 Z M 247.5,184.5 C 248.376,184.369 249.043,184.702 249.5,185.5C 242.864,201.436 235.698,217.103 228,232.5C 226.333,231.5 224.667,230.5 223,229.5C 220.508,216.213 218.341,202.88 216.5,189.5C 227.047,188.353 237.38,186.686 247.5,184.5 Z M 203.5,220.5 C 189.3,215.069 175.3,209.069 161.5,202.5C 160.417,201.635 160.251,200.635 161,199.5C 173.226,196.799 185.559,194.466 198,192.5C 198.945,192.905 199.612,193.572 200,194.5C 201.494,203.131 202.661,211.798 203.5,220.5 Z M 111.5,384.5 C 135.48,382.339 150.98,392.673 158,415.5C 160.466,431.327 159.799,446.993 156,462.5C 142.632,486.289 123.465,492.455 98.5,481C 89.5086,474.674 83.6753,466.174 81,455.5C 78.5344,439.673 79.2011,424.007 83,408.5C 88.763,395.894 98.263,387.894 111.5,384.5 Z M 383.5,384.5 C 407.48,382.339 422.98,392.673 430,415.5C 432.466,431.327 431.799,446.993 428,462.5C 414.632,486.289 395.465,492.455 370.5,481C 361.509,474.674 355.675,466.174 353,455.5C 350.534,439.673 351.201,424.007 355,408.5C 360.763,395.894 370.263,387.894 383.5,384.5 Z"/></g>
</svg>
