<svg version="1.1" id="Layer_1" xmlns="http://www.w3.org/2000/svg" xmlns:xlink="http://www.w3.org/1999/xlink" x="0px" y="0px"
	 width="100%" viewBox="0 0 496 496" enable-background="new 0 0 496 496" xml:space="preserve">
<path fill="#ddd" opacity="1.000000" stroke="none" 
	d="
M279.361816,426.985535 
	C278.574097,427.188965 278.083435,427.340118 277.598297,427.324249 
	C277.331024,427.315521 277.072968,427.026123 276.324890,426.561554 
	C304.068817,409.365082 312.083344,381.946198 315.631470,352.191254 
	C303.597046,380.624359 284.643127,403.151123 258.761383,419.873077 
	C268.955139,410.084412 277.734863,399.193451 284.878723,386.965637 
	C291.937866,374.882751 297.529144,362.189575 301.406799,348.716248 
	C287.516663,371.508209 268.732056,389.371613 246.699966,404.095276 
	C258.974274,391.194366 269.092987,376.787659 278.006622,361.411926 
	C262.994324,376.218201 246.755936,389.303284 228.079666,399.155151 
	C227.536560,399.441681 226.831085,399.738770 225.817856,398.531982 
	C248.907745,383.965393 266.137177,364.127441 278.237854,339.720276 
	C258.528381,362.139404 234.274017,378.410706 208.115555,392.148773 
	C217.007278,384.858826 226.749466,378.688995 234.943466,370.511414 
	C243.221359,362.250153 250.982147,353.623718 257.032898,343.405945 
	C239.694138,360.922668 219.324585,373.228821 195.606644,379.884827 
	C208.709778,373.176544 221.466888,366.050537 231.837357,355.302979 
	C242.096802,344.670502 250.196838,332.798065 254.303940,318.313690 
	C237.035492,340.569611 215.020050,355.025208 187.421753,360.697296 
	C205.423325,354.073425 221.159561,344.366089 232.063171,328.079651 
	C236.242798,321.836700 239.646500,315.191711 241.182068,307.464417 
	C231.584045,321.667786 218.941986,332.244080 203.470276,339.213654 
	C188.298172,346.048279 172.436859,349.876678 155.615921,348.960022 
	C191.919098,344.872284 216.145691,325.875854 228.425385,291.562683 
	C201.637741,327.640808 164.041412,334.967621 122.552055,331.712311 
	C128.838577,330.447174 135.392273,330.668274 141.867081,329.916809 
	C177.621658,325.767365 202.520447,307.068909 217.063843,274.309204 
	C217.176285,274.055939 217.077805,273.709045 217.077805,272.836121 
	C184.083878,305.849884 143.853836,314.204376 99.502426,308.600708 
	C118.870407,308.599915 138.026825,307.104248 156.144379,299.243317 
	C174.327896,291.353760 189.759872,279.901001 202.098206,264.223969 
	C160.901413,297.764984 114.753441,299.132812 66.207474,285.639954 
	C118.750771,294.903503 164.330612,284.641296 197.686325,239.383575 
	C156.590668,267.022186 112.679337,278.037354 64.156662,262.670990 
	C112.804398,273.731232 152.839386,259.039337 185.548584,222.184845 
	C165.685120,232.680771 145.023483,240.906860 122.605034,243.925308 
	C99.946465,246.976089 77.961121,244.850174 56.921215,234.811111 
	C102.117714,249.013489 139.783661,233.120163 174.715714,206.155838 
	C171.034805,206.036148 168.014023,208.032196 164.826874,209.394501 
	C140.980042,219.587448 116.378075,226.123169 90.188858,225.365784 
	C80.820351,225.094849 71.570389,224.092529 62.568123,221.388046 
	C60.771664,220.848343 58.594902,220.731293 57.586716,217.964554 
	C62.073421,218.903061 66.193878,219.948761 70.375175,220.609406 
	C95.318367,224.550400 118.185669,217.421448 140.386093,207.143219 
	C151.726089,201.893097 162.378601,195.411819 172.557129,188.015472 
	C133.891190,203.883789 95.734909,203.252533 58.043800,185.056229 
	C94.488945,198.837082 129.472031,191.509857 164.024353,177.625992 
	C145.888519,180.684525 127.692039,182.201248 109.342079,180.091812 
	C91.111343,177.996109 73.513588,173.705383 57.160042,164.957062 
	C74.519524,170.456375 92.068222,175.224335 110.329765,175.487610 
	C128.690353,175.752304 146.395340,172.689575 162.806610,160.376617 
	C130.022720,164.448456 99.503677,160.407822 69.725723,149.882416 
	C102.419884,157.129807 134.425415,158.783508 164.458694,140.368881 
	C138.663467,140.806320 113.285568,138.257858 88.306870,131.774109 
	C118.203705,133.226807 148.263824,136.816422 175.861328,119.892654 
	C156.418762,115.681358 138.082367,109.086731 120.399704,99.878433 
	C122.109207,98.022209 123.307747,99.054993 124.492943,99.387993 
	C136.526443,102.769012 148.691528,105.469482 161.191803,106.387985 
	C167.242493,106.832573 173.162781,106.124352 178.836624,103.913620 
	C182.298401,102.564789 184.725891,100.279625 185.088791,95.926239 
	C176.212875,95.013885 167.506805,93.865616 159.077911,91.332397 
	C150.842514,88.857323 142.786469,85.971199 136.184631,79.964951 
	C146.140656,83.409775 156.585358,84.045761 166.722672,86.202072 
	C171.448181,87.207237 176.236572,87.614090 181.067657,87.931366 
	C188.411072,88.413651 193.931290,85.531006 198.519119,80.080345 
	C201.693176,76.309364 204.774628,72.409683 208.625229,69.428978 
	C209.725174,70.116234 209.571442,70.838470 209.210876,71.345825 
	C200.264099,83.934906 197.405151,98.543655 196.647827,113.382729 
	C195.749481,130.984787 195.255005,148.708908 197.804520,166.253906 
	C201.646454,192.692825 213.157074,215.916962 230.032410,236.187210 
	C265.288696,278.536224 309.344177,308.464996 361.603394,325.994598 
	C383.905853,333.475647 406.689911,333.850739 429.575623,328.329041 
	C433.654327,327.345001 437.829163,327.204102 441.916077,328.487030 
	C445.996460,329.767853 447.867645,332.425018 446.988129,337.297363 
	C437.077332,336.575226 430.985016,342.529724 425.473846,349.532684 
	C423.388794,352.182129 422.657196,354.546265 423.965179,358.133575 
	C426.654083,365.508362 425.538025,372.880402 422.037506,379.906952 
	C422.020264,373.730774 421.279724,367.872894 417.444611,361.332153 
	C419.826477,375.321686 416.725067,387.140564 411.792847,398.740814 
	C412.514801,387.717621 411.964478,376.950775 407.888672,366.586182 
	C407.940094,381.924194 404.921509,396.449768 397.059204,409.905762 
	C401.423248,396.154022 401.092529,382.520508 396.747894,368.861450 
	C394.730652,389.566406 387.889069,408.381287 375.719269,425.266296 
	C382.876099,406.822662 389.395111,388.361938 384.839050,368.166260 
	C382.528961,403.902222 364.902008,429.453461 352.913940,436.361420 
	C368.093781,414.383118 375.941742,391.964478 367.881348,366.365112 
	C365.177032,384.906769 360.699860,402.920349 352.596985,419.997040 
	C353.177429,410.881195 354.476501,401.862152 354.625305,392.778046 
	C354.775269,383.623047 354.928314,374.453430 353.462769,364.762970 
	C348.671234,386.593506 339.102142,405.681213 325.928955,423.171875 
	C334.374695,404.429535 339.765381,385.050964 339.743469,363.319733 
	C335.505615,385.275665 326.230896,403.150696 308.957153,416.465240 
	C324.433380,399.382385 331.495422,379.358704 330.661987,356.727875 
	C326.973083,389.616882 309.878876,412.991791 279.361816,426.985535 
z"/>
<path fill="#ddd" opacity="1.000000" stroke="none" 
	d="
M400.502991,321.467255 
	C371.688782,320.877930 345.057739,313.320160 319.998016,300.514923 
	C284.537933,282.395172 254.460999,257.798859 232.477921,224.176437 
	C218.292282,202.479980 210.192993,178.592010 207.554947,152.751236 
	C204.816284,125.924957 208.335251,100.003242 217.646011,74.788567 
	C218.245758,73.164375 218.347931,71.163048 220.864746,70.137024 
	C219.405182,78.434181 217.251114,86.233452 216.156876,94.244461 
	C208.928070,147.167511 220.244064,195.107697 255.856491,235.700516 
	C289.891876,274.495758 331.724487,301.367737 382.416382,313.307129 
	C396.550293,316.636078 410.944794,318.150818 425.507294,317.720917 
	C427.459045,317.663269 429.486176,317.243958 432.600647,318.713013 
	C421.516693,321.926636 411.217865,321.524689 400.502991,321.467255 
z"/>
</svg>