<svg version="1.1" id="Layer_1" xmlns="http://www.w3.org/2000/svg" xmlns:xlink="http://www.w3.org/1999/xlink" x="0px" y="0px"
	 width="100%" viewBox="0 0 512 512" enable-background="new 0 0 512 512" xml:space="preserve">
<path fill="#ffebcd81255" opacity="1.000000" stroke="none" 
	d="
M293.000000,513.000000 
	C195.357040,513.000000 98.214073,513.000000 1.035558,513.000000 
	C1.035558,342.398682 1.035558,171.797348 1.035558,1.098012 
	C171.559647,1.098012 342.119354,1.098012 512.839539,1.098012 
	C512.839539,171.666550 512.839539,342.333252 512.839539,513.000000 
	C439.797333,513.000000 366.648651,513.000000 293.000000,513.000000 
M98.846451,103.056351 
	C106.610764,103.868813 113.587578,102.426720 117.827446,95.159485 
	C121.470268,88.915581 121.366013,82.358482 117.119392,76.422707 
	C112.356018,69.764626 105.506493,68.157684 96.876022,69.328712 
	C76.252434,69.274719 55.627125,69.043503 35.006016,69.244263 
	C25.236425,69.339355 17.911758,77.254929 18.055044,86.610062 
	C18.200270,96.091820 25.489679,103.046074 35.581894,103.236725 
	C40.238049,103.324692 44.897327,103.285912 49.554863,103.254997 
	C65.681152,103.147972 81.807304,103.019165 98.846451,103.056351 
M455.316315,56.688320 
	C448.687958,55.120483 442.137207,52.871361 435.417450,52.105927 
	C409.977905,49.208138 384.508423,46.498737 358.998169,44.330475 
	C347.907288,43.387798 336.690277,43.822720 325.530792,43.834553 
	C319.332977,43.841125 316.864624,46.138824 316.854187,51.566505 
	C316.809570,74.721588 316.898254,97.877144 316.776581,121.031670 
	C316.754150,125.296883 318.686127,127.916367 322.525574,128.517685 
	C326.160797,129.087006 329.955200,128.640045 333.900543,128.640045 
	C333.900543,114.278824 333.825653,100.460503 333.938293,86.643715 
	C333.981873,81.300583 337.321106,77.998146 342.197876,77.928116 
	C346.965790,77.859657 350.651245,81.212402 350.843811,86.375168 
	C351.085815,92.863136 350.922363,99.366371 350.926392,105.863022 
	C350.931000,113.314255 350.927460,120.765488 350.927460,128.191177 
	C351.929047,128.392059 352.402374,128.596283 352.858124,128.562698 
	C373.602356,127.033997 394.430634,126.191727 415.058716,123.695930 
	C429.504669,121.948097 443.677032,117.938942 458.750488,114.986702 
	C469.046692,112.091827 478.931061,108.254250 487.423065,101.570450 
	C498.488800,92.860924 498.945435,81.104324 488.318054,71.940422 
	C479.878174,64.662735 469.819183,60.402557 458.684570,57.813072 
	C458.684570,57.813072 458.345306,57.787331 457.889282,57.323299 
	C457.260712,57.219368 456.632111,57.115437 455.316315,56.688320 
M423.606201,378.118439 
	C421.957916,354.127594 425.779419,331.009094 434.957123,308.814911 
	C436.215851,305.771027 435.849609,304.165833 433.130829,302.333069 
	C426.372009,297.776794 420.015778,292.605072 413.140839,288.243195 
	C401.467438,280.836884 389.519409,273.863373 377.120453,266.365509 
	C395.517792,329.628418 383.138824,383.662628 331.126801,423.878082 
	C286.148407,458.655243 235.187210,463.040405 185.220718,436.066406 
	C124.762085,403.428284 104.190437,349.928406 114.839104,283.153778 
	C114.427811,283.345215 113.823013,283.566681 113.277901,283.889099 
	C79.868828,303.648163 49.371529,327.211823 21.554190,354.253326 
	C16.470762,359.195007 16.729214,364.650970 22.415646,369.182770 
	C33.482574,378.002655 44.573505,386.807007 55.934101,395.241180 
	C95.739243,424.792755 138.252594,449.160034 186.659164,461.770416 
	C228.898865,472.774261 271.083160,474.613403 313.694092,459.762756 
	C338.136292,451.430267 358.835999,437.089783 378.219543,420.363617 
	C392.404541,408.123291 407.305267,396.714813 421.698059,384.709076 
	C422.991180,383.630402 422.895660,380.887085 423.606201,378.118439 
M333.458557,249.494232 
	C292.347076,236.887024 250.875732,235.747910 208.826645,245.072845 
	C218.826874,267.284943 213.290390,286.527832 194.752289,295.268524 
	C186.363937,299.223602 177.673019,299.700500 169.027206,296.591553 
	C155.227280,291.629211 148.159653,281.019348 145.963745,267.004761 
	C139.323257,268.581268 135.697998,272.265686 134.596252,278.521118 
	C132.870224,288.321259 129.749298,298.041870 129.354996,307.881744 
	C127.617928,351.231812 143.952042,386.753204 179.155579,412.206787 
	C210.477020,434.853424 245.390030,441.138763 283.627655,429.824615 
	C307.134064,422.661591 326.718597,409.441223 341.367126,389.870758 
	C371.671234,349.384430 376.469238,305.883881 354.727325,259.880463 
	C353.928741,258.190674 352.593506,256.156036 351.016998,255.540436 
	C345.474091,253.376038 339.716370,251.761642 333.458557,249.494232 
M448.139923,321.782928 
	C442.532654,338.308136 439.330444,355.168121 440.180878,372.314056 
	C458.693176,365.002594 476.587708,357.935120 494.423492,350.890839 
	C479.955505,339.425232 465.301910,327.812531 450.470947,316.059296 
	C449.679443,318.014587 449.058350,319.548950 448.139923,321.782928 
M169.990875,256.516785 
	C166.434921,257.633179 163.261871,258.820007 163.111664,263.582581 
	C162.877655,271.001282 167.976120,278.688568 175.065292,280.816895 
	C182.619522,283.084839 191.023407,279.803772 194.915726,273.066833 
	C198.729034,266.466644 197.600571,257.532074 191.906082,252.520782 
	C190.608307,251.378693 188.008163,250.757034 186.332794,251.181137 
	C181.038605,252.521286 175.898697,254.470993 169.990875,256.516785 
z"/>
<path fill="#00BBD3" opacity="1.000000" stroke="none" 
	d="
M282.875641,429.695740 
	C245.390030,441.138763 210.477020,434.853424 179.155579,412.206787 
	C143.952042,386.753204 127.617928,351.231812 129.354996,307.881744 
	C129.749298,298.041870 132.870224,288.321259 134.596252,278.521118 
	C135.697998,272.265686 139.323257,268.581268 145.963745,267.004761 
	C148.159653,281.019348 155.227280,291.629211 169.027206,296.591553 
	C177.673019,299.700500 186.363937,299.223602 194.752289,295.268524 
	C213.290390,286.527832 218.826874,267.284943 208.826645,245.072845 
	C250.875732,235.747910 292.347076,236.887024 333.773041,250.077789 
	C335.167297,252.710846 336.331573,254.720734 337.314117,256.815826 
	C351.193695,286.411621 355.009125,316.962799 346.074127,348.747894 
	C337.006165,381.005829 318.223053,405.996216 290.072693,424.067963 
	C287.521027,425.706024 285.267578,427.808746 282.875641,429.695740 
M216.036652,303.722046 
	C215.935349,304.211273 215.853180,304.705414 215.730011,305.189056 
	C211.072067,323.479279 218.814728,342.359772 234.987625,352.139954 
	C251.291107,361.999115 271.711273,359.947296 285.904236,347.023773 
	C299.651489,334.506134 303.748047,313.886658 295.306488,297.173187 
	C286.998566,280.724274 273.238556,272.676025 254.861237,273.130951 
	C237.412598,273.562927 223.018570,284.910919 216.036652,303.722046 
z"/>
<path fill="#F3F3F3" opacity="1.000000" stroke="none" 
	d="
M312.952515,459.744690 
	C271.083160,474.613403 228.898865,472.774261 186.659164,461.770416 
	C138.252594,449.160034 95.739243,424.792755 55.934101,395.241180 
	C44.573505,386.807007 33.482574,378.002655 22.415646,369.182770 
	C16.729214,364.650970 16.470762,359.195007 21.554190,354.253326 
	C49.371529,327.211823 79.868828,303.648163 113.277901,283.889099 
	C113.823013,283.566681 114.427811,283.345215 114.839104,283.153778 
	C104.190437,349.928406 124.762085,403.428284 185.220718,436.066406 
	C235.187210,463.040405 286.148407,458.655243 331.126801,423.878082 
	C383.138824,383.662628 395.517792,329.628418 377.120453,266.365509 
	C389.519409,273.863373 401.467438,280.836884 413.140839,288.243195 
	C420.015778,292.605072 426.372009,297.776794 433.130829,302.333069 
	C435.849609,304.165833 436.215851,305.771027 434.957123,308.814911 
	C425.779419,331.009094 421.957916,354.127594 423.207642,378.589691 
	C399.938782,390.674957 380.689056,407.142303 361.399780,423.763763 
	C348.635498,434.762634 334.416992,444.075043 320.835541,454.123566 
	C318.241547,456.042786 315.581879,457.873260 312.952515,459.744690 
z"/>
<path fill="#9C27AF" opacity="1.000000" stroke="none" 
	d="
M457.971588,114.939705 
	C443.677032,117.938942 429.504669,121.948097 415.058716,123.695930 
	C394.430634,126.191727 373.602356,127.033997 352.858124,128.562698 
	C352.402374,128.596283 351.929047,128.392059 350.927460,128.191177 
	C350.927460,120.765488 350.931000,113.314255 350.926392,105.863022 
	C350.922363,99.366371 351.085815,92.863136 350.843811,86.375168 
	C350.651245,81.212402 346.965790,77.859657 342.197876,77.928116 
	C337.321106,77.998146 333.981873,81.300583 333.938293,86.643715 
	C333.825653,100.460503 333.900543,114.278824 333.900543,128.640045 
	C329.955200,128.640045 326.160797,129.087006 322.525574,128.517685 
	C318.686127,127.916367 316.754150,125.296883 316.776581,121.031670 
	C316.898254,97.877144 316.809570,74.721588 316.854187,51.566505 
	C316.864624,46.138824 319.332977,43.841125 325.530792,43.834553 
	C336.690277,43.822720 347.907288,43.387798 358.998169,44.330475 
	C384.508423,46.498737 409.977905,49.208138 435.417450,52.105927 
	C442.137207,52.871361 448.687958,55.120483 455.877441,57.098808 
	C457.074158,57.601974 457.709717,57.694653 458.345306,57.787331 
	C458.345306,57.787331 458.684570,57.813072 458.979767,58.210186 
	C463.202972,61.903641 467.372559,64.954773 471.013428,68.542480 
	C481.744385,79.116844 481.796173,93.773766 471.020264,104.372757 
	C467.048553,108.279236 462.342651,111.439232 457.971588,114.939705 
z"/>
<path fill="#00828E" opacity="1.000000" stroke="none" 
	d="
M283.251648,429.760193 
	C285.267578,427.808746 287.521027,425.706024 290.072693,424.067963 
	C318.223053,405.996216 337.006165,381.005829 346.074127,348.747894 
	C355.009125,316.962799 351.193695,286.411621 337.314117,256.815826 
	C336.331573,254.720734 335.167297,252.710846 334.063843,250.299927 
	C339.716370,251.761642 345.474091,253.376038 351.016998,255.540436 
	C352.593506,256.156036 353.928741,258.190674 354.727325,259.880463 
	C376.469238,305.883881 371.671234,349.384430 341.367126,389.870758 
	C326.718597,409.441223 307.134064,422.661591 283.251648,429.760193 
z"/>
<path fill="#607D8B" opacity="1.000000" stroke="none" 
	d="
M97.933510,102.898651 
	C81.807304,103.019165 65.681152,103.147972 49.554863,103.254997 
	C44.897327,103.285912 40.238049,103.324692 35.581894,103.236725 
	C25.489679,103.046074 18.200270,96.091820 18.055044,86.610062 
	C17.911758,77.254929 25.236425,69.339355 35.006016,69.244263 
	C55.627125,69.043503 76.252434,69.274719 97.426804,69.771988 
	C101.640343,75.972984 104.297035,82.193459 102.895844,89.049919 
	C101.923981,93.805588 99.634361,98.291954 97.933510,102.898651 
z"/>
<path fill="#EB304B" opacity="1.000000" stroke="none" 
	d="
M448.288574,321.433105 
	C449.058350,319.548950 449.679443,318.014587 450.470947,316.059296 
	C465.301910,327.812531 479.955505,339.425232 494.423492,350.890839 
	C476.587708,357.935120 458.693176,365.002594 440.180878,372.314056 
	C439.330444,355.168121 442.532654,338.308136 448.288574,321.433105 
z"/>
<path fill="#CBD4D8" opacity="1.000000" stroke="none" 
	d="
M313.323303,459.753723 
	C315.581879,457.873260 318.241547,456.042786 320.835541,454.123566 
	C334.416992,444.075043 348.635498,434.762634 361.399780,423.763763 
	C380.689056,407.142303 399.938782,390.674957 423.127075,378.988892 
	C422.895660,380.887085 422.991180,383.630402 421.698059,384.709076 
	C407.305267,396.714813 392.404541,408.123291 378.219543,420.363617 
	C358.835999,437.089783 338.136292,451.430267 313.323303,459.753723 
z"/>
<path fill="#F1F1F1" opacity="1.000000" stroke="none" 
	d="
M170.345001,256.350830 
	C175.898697,254.470993 181.038605,252.521286 186.332794,251.181137 
	C188.008163,250.757034 190.608307,251.378693 191.906082,252.520782 
	C197.600571,257.532074 198.729034,266.466644 194.915726,273.066833 
	C191.023407,279.803772 182.619522,283.084839 175.065292,280.816895 
	C167.976120,278.688568 162.877655,271.001282 163.111664,263.582581 
	C163.261871,258.820007 166.434921,257.633179 170.345001,256.350830 
z"/>
<path fill="#691B97" opacity="1.000000" stroke="none" 
	d="
M458.361023,114.963203 
	C462.342651,111.439232 467.048553,108.279236 471.020264,104.372757 
	C481.796173,93.773766 481.744385,79.116844 471.013428,68.542480 
	C467.372559,64.954773 463.202972,61.903641 459.121979,58.303516 
	C469.819183,60.402557 479.878174,64.662735 488.318054,71.940422 
	C498.945435,81.104324 498.488800,92.860924 487.423065,101.570450 
	C478.931061,108.254250 469.046692,112.091827 458.361023,114.963203 
z"/>
<path fill="#384951" opacity="1.000000" stroke="none" 
	d="
M98.389984,102.977493 
	C99.634361,98.291954 101.923981,93.805588 102.895844,89.049919 
	C104.297035,82.193459 101.640343,75.972984 97.855286,69.916985 
	C105.506493,68.157684 112.356018,69.764626 117.119392,76.422707 
	C121.366013,82.358482 121.470268,88.915581 117.827446,95.159485 
	C113.587578,102.426720 106.610764,103.868813 98.389984,102.977493 
z"/>
<path fill="#691B97" opacity="1.000000" stroke="none" 
	d="
M458.117310,57.555313 
	C457.709717,57.694653 457.074158,57.601974 456.221069,57.260403 
	C456.632111,57.115437 457.260712,57.219368 458.117310,57.555313 
z"/>
<path fill="#010203" opacity="1.000000" stroke="none" 
	d="
M216.133011,303.329895 
	C223.018570,284.910919 237.412598,273.562927 254.861237,273.130951 
	C273.238556,272.676025 286.998566,280.724274 295.306488,297.173187 
	C303.748047,313.886658 299.651489,334.506134 285.904236,347.023773 
	C271.711273,359.947296 251.291107,361.999115 234.987625,352.139954 
	C218.814728,342.359772 211.072067,323.479279 215.730011,305.189056 
	C215.853180,304.705414 215.935349,304.211273 216.133011,303.329895 
M269.134613,293.149536 
	C255.354630,286.990051 241.377350,291.107178 234.687759,303.296173 
	C228.271408,314.987305 231.685226,329.411102 242.623810,336.827118 
	C254.386566,344.801788 270.296356,341.689545 278.224335,329.862915 
	C286.482910,317.543121 282.944366,302.321838 269.134613,293.149536 
z"/>
<path fill="#5F7C8A" opacity="1.000000" stroke="none" 
	d="
M269.456909,293.342590 
	C282.944366,302.321838 286.482910,317.543121 278.224335,329.862915 
	C270.296356,341.689545 254.386566,344.801788 242.623810,336.827118 
	C231.685226,329.411102 228.271408,314.987305 234.687759,303.296173 
	C241.377350,291.107178 255.354630,286.990051 269.456909,293.342590 
z"/>
</svg>