<svg version="1.1" id="Layer_1" xmlns="http://www.w3.org/2000/svg" xmlns:xlink="http://www.w3.org/1999/xlink" x="0px" y="0px"
	 width="100%" viewBox="0 0 500 500" enable-background="new 0 0 500 500" xml:space="preserve">
<path fill="#00000000" opacity="1.000000" stroke="none" 
	d="
M284.000000,501.000000 
	C189.333359,501.000000 95.166710,501.000000 1.000051,501.000000 
	C1.000034,334.333405 1.000034,167.666794 1.000017,1.000140 
	C167.666565,1.000093 334.333130,1.000093 500.999756,1.000047 
	C500.999847,167.666519 500.999847,334.333038 500.999939,500.999786 
	C428.833344,501.000000 356.666656,501.000000 284.000000,501.000000 
M124.956619,407.854370 
	C126.494911,416.261230 128.033203,424.668060 129.712982,433.891815 
	C131.050476,438.343445 132.070618,442.930573 133.884018,447.179077 
	C134.594650,448.843903 137.071136,450.819214 138.764481,450.838898 
	C160.087906,451.086639 181.415970,451.075836 202.740051,450.857941 
	C204.382156,450.841156 206.956985,449.093567 207.468689,447.594299 
	C209.659439,441.175598 211.239136,434.548340 213.412521,427.341583 
	C216.384583,415.067902 218.129807,402.676910 217.105347,389.077301 
	C217.062775,376.052216 217.020187,363.027100 217.102386,349.071136 
	C217.060318,339.713776 217.018234,330.356415 217.091644,320.071106 
	C217.054016,315.043152 217.016373,310.015228 217.393936,304.322815 
	C217.200104,300.883057 218.303650,295.746338 216.521622,294.383942 
	C213.521759,292.090454 208.689713,292.193481 204.010834,291.150848 
	C204.010834,289.453735 203.836731,287.314087 204.046555,285.212830 
	C204.502960,280.642365 202.549774,278.822449 198.012527,279.043579 
	C193.528061,279.262115 189.003998,279.330719 184.541321,278.949646 
	C183.110336,278.827454 181.819489,277.063934 180.743576,275.136292 
	C180.673355,265.753906 180.603134,256.371521 180.759140,246.081345 
	C180.675903,233.702011 180.592682,221.322678 180.718399,208.038940 
	C180.718399,202.164474 180.718399,196.290024 180.718399,189.866577 
	C184.473282,189.866577 187.467712,190.215897 190.312210,189.714554 
	C191.670288,189.475174 192.743652,187.620468 193.945984,186.497406 
	C192.736221,185.382187 191.652664,183.538864 190.290543,183.302780 
	C187.423248,182.805862 184.409897,183.151764 181.452927,183.151764 
	C180.951508,181.504227 180.571106,180.254303 180.275208,178.189880 
	C180.578979,175.602646 180.882767,173.015396 181.246582,169.916840 
	C185.027069,169.916840 188.666946,170.222626 192.214890,169.784210 
	C193.917114,169.573868 196.537674,168.210251 196.836395,166.925690 
	C197.570129,163.770569 194.747467,163.319839 192.347397,163.253510 
	C188.622070,163.150574 184.891815,163.226334 181.295471,163.226334 
	C180.901703,160.916901 180.653091,159.458801 180.686768,157.126205 
	C180.821350,154.882843 180.955917,152.639465 181.114227,150.000290 
	C186.667068,150.000290 191.783630,150.208282 196.861862,149.858978 
	C198.187073,149.767822 199.392929,147.941330 200.653610,146.911865 
	C199.414215,145.906677 198.270691,144.225235 196.916016,144.033188 
	C193.833694,143.596222 190.627579,143.664154 187.508621,143.941360 
	C182.970490,144.344727 180.139267,143.097214 180.653015,137.116669 
	C180.780121,134.996628 180.907211,132.876572 181.072723,130.115601 
	C188.213135,130.115601 195.133026,130.325409 202.024384,129.974655 
	C203.849060,129.881790 205.585907,128.063141 207.363083,127.036903 
	C205.604202,125.986572 203.887375,124.123688 202.078979,124.030113 
	C195.177734,123.672989 188.246979,123.885918 181.303070,123.885918 
	C180.925858,121.879959 180.654419,120.436485 180.681244,118.118690 
	C180.969208,110.582451 180.969208,110.584740 188.687851,110.580063 
	C191.175705,110.578560 193.773804,110.997818 196.114716,110.406342 
	C197.825256,109.974129 199.197372,108.202530 200.720337,107.027977 
	C199.109940,106.014557 197.560822,104.267906 195.877487,104.127228 
	C191.109970,103.728813 186.287537,103.987709 181.406342,103.987709 
	C180.954102,102.506996 180.572052,101.256027 180.285690,99.193687 
	C180.568970,96.579826 180.852234,93.965965 181.184097,90.903717 
	C185.135101,90.686562 188.954102,90.723755 192.680405,90.154312 
	C194.244080,89.915359 195.611496,88.392021 197.068146,87.452606 
	C195.564117,86.332260 194.153046,84.439293 192.537643,84.244972 
	C188.616409,83.773270 184.600159,84.091568 180.603424,84.091568 
	C180.076538,82.156631 179.647949,80.582718 179.243896,78.096436 
	C179.243896,75.850700 179.243896,73.604958 179.243896,70.908966 
	C182.657104,70.908966 185.856918,71.321373 188.873138,70.755371 
	C190.703094,70.411987 192.249100,68.555458 193.922668,67.378700 
	C192.333359,66.284332 190.786896,65.117180 189.128433,64.140205 
	C188.635071,63.849583 187.827209,64.095322 187.163467,64.091118 
	C177.545441,64.030235 177.641266,63.993790 174.321777,55.225483 
	C173.723145,53.644199 171.973679,52.498585 170.755539,51.151833 
	C169.498352,52.501652 167.690292,53.639442 167.075607,55.236546 
	C163.707520,63.987370 163.808060,64.026199 154.227097,64.091782 
	C153.563354,64.096321 152.758682,63.853996 152.261536,64.142899 
	C150.583252,65.118225 149.014130,66.281410 147.403275,67.372765 
	C149.091095,68.550911 150.659546,70.445168 152.492828,70.750801 
	C155.806992,71.303329 159.279312,70.907204 162.868378,70.907204 
	C162.580658,73.763847 162.367401,75.881180 161.897614,78.758278 
	C161.534332,80.369591 161.171036,81.980904 160.695312,84.090904 
	C156.904022,84.090904 153.062210,83.749664 149.328369,84.236526 
	C147.493103,84.475830 145.857880,86.249283 144.132111,87.328461 
	C145.870544,88.473602 147.505646,90.344757 149.369308,90.609962 
	C153.040710,91.132423 156.838898,90.763893 160.692001,90.763893 
	C160.838760,94.065964 160.948792,96.542023 160.686417,99.697273 
	C160.403519,101.071182 160.120636,102.445091 159.802078,103.992203 
	C154.648819,103.992203 149.848831,103.747772 145.101318,104.139381 
	C143.654694,104.258713 142.352570,106.129593 140.984283,107.198288 
	C142.362442,108.319931 143.587051,109.979691 145.157394,110.427742 
	C147.144180,110.994598 149.412308,110.579964 151.559097,110.580559 
	C159.540237,110.582764 159.540237,110.581512 160.946686,118.850616 
	C160.825043,120.426689 160.703384,122.002754 160.557861,123.887909 
	C153.142715,123.887909 146.201279,123.675110 139.289673,124.035072 
	C137.525436,124.126961 135.855682,126.033318 134.142517,127.106018 
	C135.915833,128.108643 137.628189,129.816727 139.474380,129.976273 
	C144.238739,130.387970 149.062241,130.114960 153.862122,130.116135 
	C160.710541,130.117813 160.710541,130.118073 160.945892,137.854874 
	C161.621918,142.476013 159.939224,144.561142 155.003738,143.958267 
	C151.912567,143.580673 148.682068,143.542114 145.622375,144.030197 
	C143.972351,144.293411 142.550201,145.985291 141.025253,147.032593 
	C142.621414,148.024292 144.160461,149.739853 145.824509,149.871140 
	C150.692230,150.255157 155.609741,150.007706 160.630142,150.007706 
	C160.804504,152.449570 160.932251,154.238800 160.666885,156.705643 
	C160.470947,158.662308 160.275009,160.618973 160.013275,163.232727 
	C156.059692,163.232727 152.217834,162.860611 148.511276,163.406723 
	C146.916840,163.641632 145.602951,165.780701 144.161606,167.054688 
	C145.662766,168.007767 147.096252,169.621201 148.678452,169.783325 
	C152.571899,170.182281 156.533737,169.913925 160.670761,169.913925 
	C160.818192,173.083694 160.932861,175.549103 160.656876,178.682892 
	C160.359711,180.071365 160.062546,181.459839 159.714676,183.085236 
	C157.087524,183.085236 154.648041,182.629242 152.498215,183.222656 
	C150.617508,183.741776 149.062469,185.440811 147.363556,186.618576 
	C149.140213,187.719437 150.795059,189.323715 152.725082,189.790771 
	C155.016342,190.345215 157.544373,189.921173 159.966599,189.921173 
	C160.364914,195.816650 160.708542,200.902817 160.945435,206.922897 
	C160.987701,218.949844 161.029984,230.976791 160.956909,243.934616 
	C160.992188,254.955261 161.027481,265.975891 160.838379,277.805450 
	C159.537613,278.233948 158.250473,278.974487 156.933502,279.032013 
	C153.113556,279.198761 149.281631,279.090302 145.454407,279.091675 
	C137.409775,279.094543 137.175934,279.169434 137.322311,287.090607 
	C137.390305,290.769409 136.653259,292.443207 132.433868,292.328522 
	C123.879524,292.096008 123.707642,292.522186 124.075897,301.937408 
	C124.119621,308.290802 124.163338,314.644165 124.072189,321.926056 
	C124.117455,330.621887 124.162727,339.317719 124.079597,348.941162 
	C124.122314,359.293427 124.165024,369.645660 124.069641,380.926941 
	C124.399078,389.611908 124.728508,398.296906 124.956619,407.854370 
M252.091476,200.933731 
	C252.351761,208.630981 252.612045,216.328247 252.795807,224.957855 
	C252.945602,234.635361 253.095398,244.312866 253.144547,254.924988 
	C253.447220,266.289459 253.749893,277.653961 253.686523,289.659088 
	C253.828827,296.396118 253.891983,303.136017 254.133896,309.869476 
	C254.423111,317.918945 254.865189,325.962921 255.165100,334.836670 
	C255.452179,337.476746 255.595078,340.142059 256.051361,342.752563 
	C257.989685,353.841980 260.020996,364.915222 262.002136,376.813293 
	C264.736786,387.209076 267.471405,397.604858 270.217987,408.762634 
	C273.192810,417.165833 276.167664,425.569031 279.182404,434.707092 
	C283.020020,446.134216 287.811615,450.730804 296.766449,450.864349 
	C308.730927,451.042816 320.700653,450.975037 332.667084,450.882416 
	C338.982391,450.833557 343.868195,447.943298 346.704132,442.307983 
	C348.514740,438.710052 349.670166,434.782410 351.537018,430.442657 
	C355.037476,419.293976 358.537933,408.145294 362.413727,396.368011 
	C364.891388,385.247620 367.369049,374.127197 370.070190,362.237305 
	C371.617065,350.828094 373.163940,339.418884 374.874847,327.085114 
	C374.915863,315.389587 374.956879,303.694092 375.421448,291.302521 
	C375.616943,276.536163 375.812408,261.769836 376.421997,246.306015 
	C376.567474,232.537567 376.712952,218.769135 376.970856,204.099487 
	C377.198578,192.393188 377.426300,180.686874 377.832642,168.063019 
	C377.890259,162.737839 377.806763,157.406143 378.052063,152.089630 
	C378.234406,148.137451 376.535950,146.737854 372.730377,146.847198 
	C366.951355,147.013245 361.164062,146.890625 355.252777,146.890625 
	C354.908020,144.213379 354.636871,142.107529 354.664032,139.116882 
	C354.600159,135.309311 354.913849,131.437698 354.284302,127.726089 
	C354.036713,126.266403 351.691345,124.075104 350.283569,124.061623 
	C326.553864,123.834465 302.821320,123.918449 279.089539,123.873238 
	C276.172302,123.867683 274.755035,125.075058 274.795013,127.996208 
	C274.840424,131.313614 274.862854,134.631348 274.483704,138.637161 
	C274.304901,141.226059 274.126129,143.814941 273.913147,146.898697 
	C267.612061,146.898697 261.659576,146.666840 255.747314,147.052200 
	C254.152756,147.156128 251.427338,149.070389 251.367935,150.260757 
	C251.106461,155.502563 251.630234,160.783524 251.788345,166.976776 
	C251.914978,177.984329 252.041611,188.991867 252.091476,200.933731 
z"/>
<path fill="#DC8A9E" opacity="1.000000" stroke="none" 
	d="
M124.204407,301.009369 
	C123.707642,292.522186 123.879524,292.096008 132.433868,292.328522 
	C136.653259,292.443207 137.390305,290.769409 137.322311,287.090607 
	C137.175934,279.169434 137.409775,279.094543 145.454407,279.091675 
	C149.281631,279.090302 153.113556,279.198761 156.933502,279.032013 
	C158.250473,278.974487 159.537613,278.233948 161.322189,277.357117 
	C163.525146,276.605347 165.244293,276.301880 167.027054,276.401489 
	C168.569885,277.568329 170.031708,278.851318 171.534836,278.901764 
	C172.440872,278.932129 173.411194,277.045532 174.743744,276.013977 
	C176.911423,276.022186 178.687958,276.036774 180.464508,276.051361 
	C181.819489,277.063934 183.110336,278.827454 184.541321,278.949646 
	C189.003998,279.330719 193.528061,279.262115 198.012527,279.043579 
	C202.549774,278.822449 204.502960,280.642365 204.046555,285.212830 
	C203.836731,287.314087 204.010834,289.453735 204.010834,291.150848 
	C208.689713,292.193481 213.521759,292.090454 216.521622,294.383942 
	C218.303650,295.746338 217.200104,300.883057 216.914429,304.412323 
	C216.263107,300.956238 213.913223,300.689453 211.058899,300.593323 
	C209.480637,299.756805 208.019424,298.971375 206.555695,298.966675 
	C182.798431,298.890198 159.040848,298.906372 135.283356,298.928864 
	C133.863190,298.930206 132.443253,299.161255 131.157242,299.273682 
	C130.701340,301.484528 130.339325,303.240082 129.710220,304.771362 
	C128.820831,301.703552 127.034279,300.583984 124.204407,301.009369 
M175.499939,285.176514 
	C165.091766,285.176514 154.683578,285.176514 144.224854,285.176514 
	C144.224854,288.083221 144.224854,290.164551 144.224854,292.416870 
	C162.234222,292.416870 179.914154,292.416870 197.640839,292.416870 
	C197.640839,289.922394 197.640839,287.836029 197.640839,285.176849 
	C190.389343,285.176849 183.444595,285.176849 175.499939,285.176514 
z"/>
<path fill="#E7B077" opacity="1.000000" stroke="none" 
	d="
M251.869492,166.050308 
	C251.630234,160.783524 251.106461,155.502563 251.367935,150.260757 
	C251.427338,149.070389 254.152756,147.156128 255.747314,147.052200 
	C261.659576,146.666840 267.612061,146.898697 273.913147,146.898697 
	C274.126129,143.814941 274.304901,141.226059 275.041016,138.446014 
	C277.341095,138.502945 279.083893,138.751038 280.892334,139.444092 
	C280.957947,142.123077 280.957947,144.357117 280.957947,146.601593 
	C303.768890,146.601593 325.660309,146.601593 347.792603,146.601593 
	C348.010681,143.885040 348.207031,141.439270 348.756714,138.995438 
	C350.861938,139.332153 352.613831,139.666916 354.365723,140.001694 
	C354.636871,142.107529 354.908020,144.213379 355.252777,146.890625 
	C361.164062,146.890625 366.951355,147.013245 372.730377,146.847198 
	C376.535950,146.737854 378.234406,148.137451 378.052063,152.089630 
	C377.806763,157.406143 377.890259,162.737839 377.391113,168.526855 
	C375.093384,168.657578 373.237152,168.324478 371.289337,167.553055 
	C371.197754,162.559723 371.197754,158.004700 371.197754,153.408875 
	C333.438660,153.408875 295.940948,153.408875 257.720978,153.408875 
	C257.720978,158.123123 257.720978,162.557190 257.349609,166.984482 
	C255.275330,166.668579 253.572403,166.359451 251.869492,166.050308 
z"/>
<path fill="#D87EA9" opacity="1.000000" stroke="none" 
	d="
M124.207993,348.013550 
	C124.162727,339.317719 124.117455,330.621887 124.546577,321.462463 
	C126.663055,320.998718 128.305145,320.998535 130.004440,321.417969 
	C129.505859,325.450897 131.555496,325.842651 134.511230,325.832886 
	C158.670944,325.752991 182.831055,325.791748 206.991043,325.777161 
	C208.129669,325.776489 209.268219,325.612244 210.629684,325.506927 
	C210.831985,323.889343 211.012878,322.443024 211.606628,320.997803 
	C213.671692,320.998962 215.323929,320.998993 216.976151,320.999054 
	C217.018234,330.356415 217.060318,339.713776 216.626068,349.535950 
	C214.492874,350.004272 212.835983,350.007782 211.112717,349.545959 
	C211.046326,343.481873 211.046326,337.883118 211.046326,332.270203 
	C183.722488,332.270203 157.173187,332.270203 129.971771,332.270203 
	C129.971771,337.416901 129.971771,342.210693 129.598740,347.008942 
	C127.553131,347.346741 125.880562,347.680145 124.207993,348.013550 
z"/>
<path fill="#D880A1" opacity="1.000000" stroke="none" 
	d="
M129.947235,320.998383 
	C128.305145,320.998535 126.663055,320.998718 124.614014,320.998230 
	C124.163338,314.644165 124.119621,308.290802 124.140152,301.473389 
	C127.034279,300.583984 128.820831,301.703552 129.766296,305.190552 
	C129.737427,309.700653 132.525558,308.990875 134.755722,308.992035 
	C158.746567,309.004761 182.737411,309.004883 206.728241,308.986298 
	C208.013977,308.985291 209.299545,308.786621 210.794281,308.662659 
	C210.929840,305.935608 211.052307,303.471619 211.174774,301.007660 
	C213.913223,300.689453 216.263107,300.956238 216.706848,304.744568 
	C217.016373,310.015228 217.054016,315.043152 217.033905,320.535095 
	C215.323929,320.998993 213.671692,320.998962 211.548126,320.561981 
	C210.952286,318.544373 210.827789,316.963684 210.702530,315.373352 
	C183.688431,315.373352 157.175812,315.373352 130.407822,315.373352 
	C130.239365,317.430725 130.093292,319.214539 129.947235,320.998383 
z"/>
<path fill="#CD5CC6" opacity="1.000000" stroke="none" 
	d="
M213.041641,427.997131 
	C211.239136,434.548340 209.659439,441.175598 207.468689,447.594299 
	C206.956985,449.093567 204.382156,450.841156 202.740051,450.857941 
	C181.415970,451.075836 160.087906,451.086639 138.764481,450.838898 
	C137.071136,450.819214 134.594650,448.843903 133.884018,447.179077 
	C132.070618,442.930573 131.050476,438.343445 130.063110,433.460754 
	C131.993332,432.680573 133.573425,432.331421 135.313156,432.300598 
	C136.285614,434.964447 137.314804,437.261017 137.859314,439.667267 
	C138.630112,443.073608 140.192261,444.436127 143.980713,444.387177 
	C161.909653,444.155396 179.843750,444.216583 197.774734,444.347900 
	C200.923386,444.370941 202.668625,443.524261 203.447479,440.319427 
	C204.379501,436.484436 205.755447,432.757294 207.332565,428.987305 
	C209.497879,428.659790 211.269760,428.328461 213.041641,427.997131 
z"/>
<path fill="#E5A886" opacity="1.000000" stroke="none" 
	d="
M180.190689,179.004379 
	C180.571106,180.254303 180.951508,181.504227 181.452927,183.151764 
	C184.409897,183.151764 187.423248,182.805862 190.290543,183.302780 
	C191.652664,183.538864 192.736221,185.382187 193.945984,186.497406 
	C192.743652,187.620468 191.670288,189.475174 190.312210,189.714554 
	C187.467712,190.215897 184.473282,189.866577 180.718399,189.866577 
	C180.718399,196.290024 180.718399,202.164474 180.275024,208.509857 
	C177.993668,208.645401 176.155685,208.310013 174.243317,207.512970 
	C174.168900,201.454483 174.168900,195.857651 174.168900,190.274475 
	C171.409744,190.274475 169.505539,190.274475 166.980103,190.274475 
	C166.980103,195.750473 166.980103,200.879669 166.556274,206.007050 
	C164.439026,205.999832 162.745590,205.994415 161.052170,205.989014 
	C160.708542,200.902817 160.364914,195.816650 159.966599,189.921173 
	C157.544373,189.921173 155.016342,190.345215 152.725082,189.790771 
	C150.795059,189.323715 149.140213,187.719437 147.363556,186.618591 
	C149.062469,185.440811 150.617508,183.741776 152.498215,183.222656 
	C154.648041,182.629242 157.087524,183.085236 159.714676,183.085236 
	C160.062546,181.459839 160.359711,180.071365 161.232376,178.350616 
	C163.535904,178.346161 165.263916,178.673981 167.042725,179.416092 
	C167.501038,185.534775 171.185623,182.470932 173.824585,182.685608 
	C174.034439,180.891220 174.203735,179.443451 174.739731,178.007355 
	C176.801178,178.347488 178.495926,178.675934 180.190689,179.004379 
z"/>
<path fill="#E9B770" opacity="1.000000" stroke="none" 
	d="
M161.065170,136.998688 
	C160.710541,130.118073 160.710541,130.117813 153.862122,130.116135 
	C149.062241,130.114960 144.238739,130.387970 139.474380,129.976273 
	C137.628189,129.816727 135.915833,128.108643 134.142517,127.106018 
	C135.855682,126.033318 137.525436,124.126961 139.289673,124.035072 
	C146.201279,123.675110 153.142715,123.887909 160.557861,123.887909 
	C160.703384,122.002754 160.825043,120.426689 161.425049,118.423027 
	C163.587677,117.997673 165.271942,117.999901 167.009369,118.430115 
	C167.175888,120.436699 167.289261,122.015312 167.403244,123.602417 
	C169.819626,123.602417 171.722397,123.602417 173.822571,123.602417 
	C174.037247,121.207069 174.225754,119.103737 174.747070,117.007957 
	C176.847595,117.674675 178.615280,118.333839 180.382980,118.993004 
	C180.654419,120.436485 180.925858,121.879959 181.303070,123.885918 
	C188.246979,123.885918 195.177734,123.672989 202.078979,124.030113 
	C203.887375,124.123688 205.604202,125.986572 207.363083,127.036903 
	C205.585907,128.063141 203.849060,129.881790 202.024384,129.974655 
	C195.133026,130.325409 188.213135,130.115601 181.072723,130.115601 
	C180.907211,132.876572 180.780121,134.996628 180.194687,137.553864 
	C177.962311,137.659622 176.188248,137.328171 174.320526,136.559616 
	C174.107437,134.220856 173.988037,132.319229 173.867737,130.403152 
	C171.419128,130.403152 169.524490,130.403152 167.321869,130.403152 
	C167.188065,133.134888 167.068893,135.567642 166.576691,137.956100 
	C164.490845,137.607437 162.778000,137.303055 161.065170,136.998688 
z"/>
<path fill="#E5A883" opacity="1.000000" stroke="none" 
	d="
M371.380920,167.991379 
	C373.237152,168.324478 375.093384,168.657578 377.301819,168.985626 
	C377.426300,180.686874 377.198578,192.393188 376.493225,204.550354 
	C374.317322,204.995422 372.619019,204.989624 370.905151,204.516602 
	C370.889587,196.804428 370.889587,189.559509 370.889587,181.673157 
	C369.005127,182.285065 367.596313,182.598801 366.309906,183.182449 
	C353.231812,189.116241 340.173676,195.094025 326.783264,200.915024 
	C324.616486,199.809570 322.776459,198.848587 321.154297,197.630768 
	C335.780640,190.518066 350.071503,183.395172 364.668488,176.967453 
	C369.103546,175.014481 372.141785,173.255203 371.380920,167.991379 
z"/>
<path fill="#E8B56E" opacity="1.000000" stroke="none" 
	d="
M280.826691,138.999130 
	C279.083893,138.751038 277.341095,138.502945 275.246765,138.101898 
	C274.862854,134.631348 274.840424,131.313614 274.795013,127.996208 
	C274.755035,125.075058 276.172302,123.867683 279.089539,123.873238 
	C302.821320,123.918449 326.553864,123.834465 350.283569,124.061623 
	C351.691345,124.075104 354.036713,126.266403 354.284302,127.726089 
	C354.913849,131.437698 354.600159,135.309311 354.514862,139.559296 
	C352.613831,139.666916 350.861938,139.332153 348.660339,138.545990 
	C348.210602,135.514999 348.210602,132.935364 348.210602,130.322617 
	C325.383820,130.322617 303.405731,130.322617 280.826691,130.322617 
	C280.826691,133.429001 280.826691,136.214066 280.826691,138.999130 
z"/>
<path fill="#D064C9" opacity="1.000000" stroke="none" 
	d="
M351.119354,431.002594 
	C349.670166,434.782410 348.514740,438.710052 346.704132,442.307983 
	C343.868195,447.943298 338.982391,450.833557 332.667084,450.882416 
	C320.700653,450.975037 308.730927,451.042816 296.766449,450.864349 
	C287.811615,450.730804 283.020020,446.134216 279.498474,434.308655 
	C281.495789,433.273743 283.177032,432.637299 284.967285,432.345795 
	C287.531555,442.316437 293.987885,445.241852 303.389130,444.358063 
	C309.638062,443.770660 315.988037,444.321472 322.290894,444.232208 
	C339.100647,443.994171 337.833405,446.220062 345.355377,430.983887 
	C347.571014,430.994507 349.345184,430.998535 351.119354,431.002594 
z"/>
<path fill="#EBBD6D" opacity="1.000000" stroke="none" 
	d="
M166.956223,118.002136 
	C165.271942,117.999901 163.587677,117.997673 161.483383,117.991753 
	C159.540237,110.581512 159.540237,110.582764 151.559097,110.580559 
	C149.412308,110.579964 147.144180,110.994598 145.157394,110.427742 
	C143.587051,109.979691 142.362442,108.319931 140.984283,107.198288 
	C142.352570,106.129593 143.654694,104.258713 145.101318,104.139381 
	C149.848831,103.747772 154.648819,103.992203 159.802078,103.992203 
	C160.120636,102.445091 160.403519,101.071182 161.293518,99.351883 
	C163.587967,99.005013 165.275314,99.003532 167.015991,99.425781 
	C166.717545,106.072762 170.717041,103.784073 173.885437,103.567841 
	C174.074631,101.532913 174.238968,99.765488 174.747650,98.006714 
	C176.791321,98.678604 178.490662,99.341835 180.189987,100.005058 
	C180.572052,101.256027 180.954102,102.506996 181.406342,103.987709 
	C186.287537,103.987709 191.109970,103.728813 195.877487,104.127228 
	C197.560822,104.267906 199.109940,106.014557 200.720337,107.027977 
	C199.197372,108.202530 197.825256,109.974129 196.114716,110.406342 
	C193.773804,110.997818 191.175705,110.578560 188.687851,110.580063 
	C180.969208,110.584740 180.969208,110.582451 180.532104,118.555847 
	C178.615280,118.333839 176.847595,117.674675 174.650726,116.571106 
	C174.101288,114.226334 173.981033,112.325981 173.859863,110.411102 
	C171.418198,110.411102 169.525436,110.411102 167.326447,110.411102 
	C167.193314,113.140945 167.074768,115.571541 166.956223,118.002136 
z"/>
<path fill="#E6AE7F" opacity="1.000000" stroke="none" 
	d="
M180.232941,178.597137 
	C178.495926,178.675934 176.801178,178.347488 174.649429,177.562439 
	C174.192444,174.875488 174.192444,172.645142 174.192444,170.327347 
	C171.474960,170.327347 169.485352,170.327347 166.991943,170.327347 
	C166.991943,173.495789 166.991943,176.248779 166.991943,179.001785 
	C165.263916,178.673981 163.535904,178.346161 161.427704,178.016434 
	C160.932861,175.549103 160.818192,173.083694 160.670761,169.913925 
	C156.533737,169.913925 152.571899,170.182281 148.678452,169.783325 
	C147.096252,169.621201 145.662766,168.007767 144.161606,167.054688 
	C145.602951,165.780701 146.916840,163.641632 148.511276,163.406723 
	C152.217834,162.860611 156.059692,163.232727 160.013275,163.232727 
	C160.275009,160.618973 160.470947,158.662308 161.179504,156.507355 
	C163.448013,156.872375 165.203918,157.435699 167.012756,158.413696 
	C167.431870,164.214233 168.233215,164.694016 173.922623,162.827103 
	C174.078445,160.913422 174.238113,158.952545 174.748840,157.003418 
	C176.868088,157.343658 178.636276,157.672195 180.404480,158.000732 
	C180.653091,159.458801 180.901703,160.916901 181.295471,163.226334 
	C184.891815,163.226334 188.622070,163.150574 192.347397,163.253510 
	C194.747467,163.319839 197.570129,163.770569 196.836395,166.925690 
	C196.537674,168.210251 193.917114,169.573868 192.214890,169.784210 
	C188.666946,170.222626 185.027069,169.916840 181.246582,169.916840 
	C180.882767,173.015396 180.578979,175.602646 180.232941,178.597137 
z"/>
<path fill="#E7B176" opacity="1.000000" stroke="none" 
	d="
M166.959824,157.999039 
	C165.203918,157.435699 163.448013,156.872375 161.376068,156.168549 
	C160.932251,154.238800 160.804504,152.449570 160.630142,150.007706 
	C155.609741,150.007706 150.692230,150.255157 145.824509,149.871140 
	C144.160461,149.739853 142.621414,148.024292 141.025253,147.032593 
	C142.550201,145.985291 143.972351,144.293411 145.622375,144.030197 
	C148.682068,143.542114 151.912567,143.580673 155.003738,143.958267 
	C159.939224,144.561142 161.621918,142.476013 161.005524,137.426788 
	C162.778000,137.303055 164.490845,137.607437 166.631134,138.384277 
	C167.172318,140.436035 167.286072,142.015335 167.400436,143.603333 
	C169.816727,143.603333 171.719742,143.603333 173.812515,143.603333 
	C174.030914,141.205276 174.222549,139.101013 174.414185,136.996735 
	C176.188248,137.328171 177.962311,137.659622 180.060577,137.982422 
	C180.139267,143.097214 182.970490,144.344727 187.508621,143.941360 
	C190.627579,143.664154 193.833694,143.596222 196.916016,144.033188 
	C198.270691,144.225235 199.414215,145.906677 200.653610,146.911865 
	C199.392929,147.941330 198.187073,149.767822 196.861862,149.858978 
	C191.783630,150.208282 186.667068,150.000290 181.114227,150.000290 
	C180.955917,152.639465 180.821350,154.882843 180.545624,157.563477 
	C178.636276,157.672195 176.868088,157.343658 174.657715,156.562775 
	C174.103348,154.214661 173.991135,152.318893 173.875854,150.371231 
	C171.473480,150.371231 169.474991,150.371231 166.959824,150.371231 
	C166.959824,153.168350 166.959824,155.583694 166.959824,157.999039 
z"/>
<path fill="#DA84A4" opacity="1.000000" stroke="none" 
	d="
M374.997925,291.998535 
	C374.956879,303.694092 374.915863,315.389587 374.435883,327.546326 
	C372.128174,328.341522 370.259399,328.675507 368.290955,328.592102 
	C368.191284,321.609497 368.191284,315.044250 368.191284,307.889496 
	C361.993896,310.470032 355.856476,312.904510 349.821259,315.570343 
	C342.853119,318.648193 335.975098,321.930054 328.895874,324.799133 
	C327.127380,323.598846 325.521027,322.722748 324.109619,321.570831 
	C335.917572,315.718567 347.386353,309.810974 359.189545,304.671326 
	C368.499695,300.617279 368.682526,301.037109 369.538147,291.003418 
	C371.612000,291.333557 373.304962,291.666046 374.997925,291.998535 
z"/>
<path fill="#EFC964" opacity="1.000000" stroke="none" 
	d="
M162.154144,77.998520 
	C162.367401,75.881180 162.580658,73.763847 162.868378,70.907204 
	C159.279312,70.907204 155.806992,71.303329 152.492828,70.750801 
	C150.659546,70.445168 149.091095,68.550911 147.403275,67.372772 
	C149.014130,66.281410 150.583252,65.118225 152.261536,64.142899 
	C152.758682,63.853996 153.563354,64.096321 154.227097,64.091782 
	C163.808060,64.026199 163.707520,63.987370 167.075607,55.236546 
	C167.690292,53.639442 169.498352,52.501652 170.755539,51.151833 
	C171.973679,52.498585 173.723145,53.644199 174.321777,55.225483 
	C177.641266,63.993790 177.545441,64.030235 187.163467,64.091118 
	C187.827209,64.095322 188.635071,63.849583 189.128433,64.140205 
	C190.786896,65.117180 192.333359,66.284332 193.922668,67.378700 
	C192.249100,68.555458 190.703094,70.411987 188.873138,70.755371 
	C185.856918,71.321373 182.657104,70.908966 179.243896,70.908966 
	C179.243896,73.604958 179.243896,75.850700 178.839661,78.519028 
	C176.681885,78.626854 174.928329,78.312103 173.099976,77.611069 
	C172.527771,75.144707 172.030380,73.064621 171.532990,70.984543 
	C171.039413,70.989868 170.545822,70.995193 170.052246,71.000511 
	C169.365646,73.667679 168.679047,76.334846 167.620758,78.960800 
	C165.550751,78.612572 163.852448,78.305542 162.154144,77.998520 
z"/>
<path fill="#EDC369" opacity="1.000000" stroke="none" 
	d="
M162.025879,78.378403 
	C163.852448,78.305542 165.550751,78.612572 167.648376,79.300568 
	C167.982635,80.130615 167.917542,80.579704 167.711182,81.113998 
	C167.365234,81.523209 167.449432,81.777527 167.908051,82.355255 
	C169.731659,83.278465 171.469742,83.808601 173.512344,84.431610 
	C173.361801,81.562050 173.268295,79.779701 173.174774,77.997353 
	C174.928329,78.312103 176.681885,78.626854 178.827393,78.975204 
	C179.647949,80.582718 180.076538,82.156631 180.603424,84.091568 
	C184.600159,84.091568 188.616409,83.773270 192.537643,84.244972 
	C194.153046,84.439293 195.564117,86.332260 197.068146,87.452606 
	C195.611496,88.392021 194.244080,89.915359 192.680405,90.154312 
	C188.954102,90.723755 185.135101,90.686562 181.184097,90.903717 
	C180.852234,93.965965 180.568970,96.579826 180.237839,99.599373 
	C178.490662,99.341835 176.791321,98.678604 174.654510,97.570648 
	C174.062744,94.912285 173.908463,92.698639 173.768723,90.693634 
	C168.836945,89.435646 166.451721,90.620811 167.075653,95.564690 
	C167.217377,96.687843 167.009583,97.855095 166.962677,99.002052 
	C165.275314,99.003532 163.587967,99.005013 161.479721,99.012283 
	C160.948792,96.542023 160.838760,94.065964 160.692001,90.763893 
	C156.838898,90.763893 153.040710,91.132423 149.369308,90.609962 
	C147.505646,90.344757 145.870544,88.473602 144.132111,87.328461 
	C145.857880,86.249283 147.493103,84.475830 149.328369,84.236526 
	C153.062210,83.749664 156.904022,84.090904 160.695312,84.090904 
	C161.171036,81.980904 161.534332,80.369591 162.025879,78.378403 
z"/>
<path fill="#D677B0" opacity="1.000000" stroke="none" 
	d="
M262.018311,375.994324 
	C260.020996,364.915222 257.989685,353.841980 256.051361,342.752563 
	C255.595078,340.142059 255.452179,337.476746 255.591003,334.420105 
	C257.839966,334.004791 259.663025,334.006012 261.598633,334.432556 
	C263.053040,344.442139 264.394897,354.026459 265.783234,363.942993 
	C274.635132,356.792480 282.736115,350.248535 291.077393,344.030579 
	C293.260040,344.985840 295.202393,345.615173 296.954956,346.520325 
	C287.857574,354.498474 278.885986,362.129364 270.114319,369.983459 
	C268.863983,371.102936 268.582581,373.304535 267.484741,375.053345 
	C265.417236,375.399078 263.717773,375.696716 262.018311,375.994324 
z"/>
<path fill="#E0988F" opacity="1.000000" stroke="none" 
	d="
M253.245178,253.990372 
	C253.095398,244.312866 252.945602,234.635361 253.263702,224.483704 
	C255.436554,224.008789 257.141510,224.008011 258.905701,224.472076 
	C258.964935,231.465164 258.964935,237.993393 258.964935,245.297668 
	C268.163971,237.319977 276.470520,230.116287 285.182922,222.939941 
	C287.438934,223.726608 289.289062,224.485916 290.958649,225.521118 
	C280.549500,235.207352 270.320953,244.617722 259.659912,254.019638 
	C257.233337,254.004242 255.239258,253.997314 253.245178,253.990372 
z"/>
<path fill="#DA84A4" opacity="1.000000" stroke="none" 
	d="
M261.486084,334.007263 
	C259.663025,334.006012 257.839966,334.004791 255.628998,334.006409 
	C254.865189,325.962921 254.423111,317.918945 254.133896,309.869476 
	C253.891983,303.136017 253.828827,296.396118 254.287506,289.332275 
	C256.563904,289.005615 258.239288,289.005737 260.068909,289.389008 
	C260.359528,291.585114 260.576141,293.396149 260.619476,295.211334 
	C260.928192,308.142822 261.201508,321.075195 261.486084,334.007263 
z"/>
<path fill="#DE929A" opacity="1.000000" stroke="none" 
	d="
M375.209686,291.650513 
	C373.304962,291.666046 371.612000,291.333557 369.476471,290.537628 
	C369.371826,275.383148 369.709747,260.692108 370.436340,246.000763 
	C372.552673,246.334793 374.280304,246.669128 376.007904,247.003479 
	C375.812408,261.769836 375.616943,276.536163 375.209686,291.650513 
z"/>
<path fill="#E29E8F" opacity="1.000000" stroke="none" 
	d="
M376.214966,246.654739 
	C374.280304,246.669128 372.552673,246.334793 370.401611,245.533051 
	C369.984283,241.421921 369.912689,237.776093 370.011597,234.134888 
	C370.275513,224.416809 370.612671,214.700714 370.920715,204.983841 
	C372.619019,204.989624 374.317322,204.995422 376.437012,205.000946 
	C376.712952,218.769135 376.567474,232.537567 376.214966,246.654739 
z"/>
<path fill="#E4A79B" opacity="1.000000" stroke="none" 
	d="
M174.317719,207.974625 
	C176.155685,208.310013 177.993668,208.645401 180.170547,208.962067 
	C180.592682,221.322678 180.675903,233.702011 180.317215,246.471512 
	C178.017731,246.579056 176.160172,246.296448 174.219116,245.549911 
	C174.196304,232.715530 174.257004,220.345078 174.317719,207.974625 
z"/>
<path fill="#D46FB3" opacity="1.000000" stroke="none" 
	d="
M211.179108,350.011261 
	C212.835983,350.007782 214.492874,350.004272 216.563690,350.001404 
	C217.020187,363.027100 217.062775,376.052216 216.772675,389.771942 
	C214.686356,391.311920 212.932739,392.157288 211.115158,392.537415 
	C211.093842,378.051849 211.136475,364.031555 211.179108,350.011261 
z"/>
<path fill="#D168C0" opacity="1.000000" stroke="none" 
	d="
M211.179108,393.002655 
	C212.932739,392.157288 214.686356,391.311920 216.711212,390.237946 
	C218.129807,402.676910 216.384583,415.067902 213.227081,427.669373 
	C211.269760,428.328461 209.497879,428.659790 207.329529,428.565247 
	C208.348419,416.427124 209.763763,404.714874 211.179108,393.002655 
z"/>
<path fill="#DE929A" opacity="1.000000" stroke="none" 
	d="
M259.914703,289.005859 
	C258.239288,289.005737 256.563904,289.005615 254.470520,289.011963 
	C253.749893,277.653961 253.447220,266.289459 253.194855,254.457672 
	C255.239258,253.997314 257.233337,254.004242 259.586945,254.481857 
	C259.935883,266.303650 259.925293,277.654755 259.914703,289.005859 
z"/>
<path fill="#D46FB3" opacity="1.000000" stroke="none" 
	d="
M369.846741,363.006805 
	C367.369049,374.127197 364.891388,385.247620 361.836365,396.725891 
	C359.465790,397.378876 357.672607,397.673950 355.889526,397.561157 
	C358.573425,385.767090 361.247223,374.380920 364.346008,362.996216 
	C366.462921,363.000732 368.154816,363.003784 369.846741,363.006805 
z"/>
<path fill="#D677B0" opacity="1.000000" stroke="none" 
	d="
M369.958466,362.622070 
	C368.154816,363.003784 366.462921,363.000732 364.336639,362.561707 
	C365.398407,351.086945 366.894531,340.048248 368.390686,329.009521 
	C370.259399,328.675507 372.128174,328.341522 374.353882,328.008606 
	C373.163940,339.418884 371.617065,350.828094 369.958466,362.622070 
z"/>
<path fill="#D168C0" opacity="1.000000" stroke="none" 
	d="
M355.879425,397.969025 
	C357.672607,397.673950 359.465790,397.378876 361.648682,397.040192 
	C358.537933,408.145294 355.037476,419.293976 351.328186,430.722626 
	C349.345184,430.998535 347.571014,430.994507 345.380768,430.603882 
	C348.602936,419.467896 352.241180,408.718445 355.879425,397.969025 
z"/>
<path fill="#E0988F" opacity="1.000000" stroke="none" 
	d="
M160.998810,206.455963 
	C162.745590,205.994415 164.439026,205.999832 166.604401,206.472778 
	C167.037613,218.961243 166.998840,230.982178 166.538696,243.002594 
	C164.435638,243.002609 162.753937,243.003174 161.072250,243.003738 
	C161.029984,230.976791 160.987701,218.949844 160.998810,206.455963 
z"/>
<path fill="#D36DBA" opacity="1.000000" stroke="none" 
	d="
M262.010223,376.403809 
	C263.717773,375.696716 265.417236,375.399078 267.636475,375.426270 
	C268.718292,378.596893 269.133942,381.481293 269.870667,384.281158 
	C271.866547,391.866760 273.998749,399.416473 275.696655,406.990173 
	C273.612976,407.333466 271.909515,407.667053 270.206055,408.000641 
	C267.471405,397.604858 264.736786,387.209076 262.010223,376.403809 
z"/>
<path fill="#E0999F" opacity="1.000000" stroke="none" 
	d="
M174.302612,246.013840 
	C176.160172,246.296448 178.017731,246.579056 180.204102,246.925415 
	C180.603134,256.371521 180.673355,265.753906 180.604034,275.593811 
	C178.687958,276.036774 176.911423,276.022186 174.648544,275.551575 
	C174.209015,265.401642 174.255814,255.707733 174.302612,246.013840 
z"/>
<path fill="#E5A883" opacity="1.000000" stroke="none" 
	d="
M251.828918,166.513550 
	C253.572403,166.359451 255.275330,166.668579 257.436310,167.447571 
	C258.099304,178.944366 258.304260,189.971313 258.151550,200.986481 
	C255.918686,200.649612 254.043457,200.324524 252.168228,199.999420 
	C252.041611,188.991867 251.914978,177.984329 251.828918,166.513550 
z"/>
<path fill="#DE8F93" opacity="1.000000" stroke="none" 
	d="
M161.014587,243.469177 
	C162.753937,243.003174 164.435638,243.002609 166.592850,243.468445 
	C167.033401,254.622696 166.998413,265.310547 166.963440,275.998413 
	C165.244293,276.301880 163.525146,276.605347 161.434387,276.952698 
	C161.027481,265.975891 160.992188,254.955261 161.014587,243.469177 
z"/>
<path fill="#D46FB3" opacity="1.000000" stroke="none" 
	d="
M124.143799,348.477356 
	C125.880562,347.680145 127.553131,347.346741 129.655319,347.474396 
	C130.049957,358.290405 130.014969,368.645355 129.611603,379.041504 
	C127.564728,379.387726 125.886230,379.692810 124.207741,379.997925 
	C124.165024,369.645660 124.122314,359.293427 124.143799,348.477356 
z"/>
<path fill="#D168C0" opacity="1.000000" stroke="none" 
	d="
M270.212036,408.381653 
	C271.909515,407.667053 273.612976,407.333466 275.936920,407.252167 
	C279.324371,415.669922 282.091339,423.835388 284.858307,432.000885 
	C283.177032,432.637299 281.495789,433.273743 279.478516,433.941223 
	C276.167664,425.569031 273.192810,417.165833 270.212036,408.381653 
z"/>
<path fill="#D36DBA" opacity="1.000000" stroke="none" 
	d="
M124.138687,380.462433 
	C125.886230,379.692810 127.564728,379.387726 129.673248,379.505493 
	C130.363602,388.952148 130.623932,397.975922 130.467926,406.999268 
	C128.387054,406.993164 126.722496,406.987518 125.057945,406.981873 
	C124.728508,398.296906 124.399078,389.611908 124.138687,380.462433 
z"/>
<path fill="#D168C0" opacity="1.000000" stroke="none" 
	d="
M125.007278,407.418121 
	C126.722496,406.987518 128.387054,406.993164 130.557037,407.403503 
	C132.426147,415.866241 133.789825,423.924286 135.153519,431.982300 
	C133.573425,432.331421 131.993332,432.680573 129.992371,433.052307 
	C128.033203,424.668060 126.494911,416.261230 125.007278,407.418121 
z"/>
<path fill="#E29E8F" opacity="1.000000" stroke="none" 
	d="
M252.129852,200.466583 
	C254.043457,200.324524 255.918686,200.649612 258.260620,201.444397 
	C258.767059,209.278458 258.806763,216.642838 258.846436,224.007233 
	C257.141510,224.008011 255.436554,224.008789 253.301971,224.017532 
	C252.612045,216.328247 252.351761,208.630981 252.129852,200.466583 
z"/>
<path fill="#00000000" opacity="1.000000" stroke="none" 
	d="
M211.058899,300.593323 
	C211.052307,303.471619 210.929840,305.935608 210.794281,308.662659 
	C209.299545,308.786621 208.013977,308.985291 206.728241,308.986298 
	C182.737411,309.004883 158.746567,309.004761 134.755722,308.992035 
	C132.525558,308.990875 129.737427,309.700653 130.033386,305.414795 
	C130.339325,303.240082 130.701340,301.484528 131.157242,299.273682 
	C132.443253,299.161255 133.863190,298.930206 135.283356,298.928864 
	C159.040848,298.906372 182.798431,298.890198 206.555695,298.966675 
	C208.019424,298.971375 209.480637,299.756805 211.058899,300.593323 
z"/>
<path fill="#00000000" opacity="1.000000" stroke="none" 
	d="
M167.027054,276.401489 
	C166.998413,265.310547 167.033401,254.622696 167.014221,243.468979 
	C166.998840,230.982178 167.037613,218.961243 167.028229,206.474579 
	C166.980103,200.879669 166.980103,195.750473 166.980103,190.274475 
	C169.505539,190.274475 171.409744,190.274475 174.168900,190.274475 
	C174.168900,195.857651 174.168900,201.454483 174.243301,207.512970 
	C174.257004,220.345078 174.196304,232.715530 174.219116,245.549911 
	C174.255814,255.707733 174.209015,265.401642 174.257416,275.557922 
	C173.411194,277.045532 172.440872,278.932129 171.534836,278.901764 
	C170.031708,278.851318 168.569885,277.568329 167.027054,276.401489 
z"/>
<path fill="#00000000" opacity="1.000000" stroke="none" 
	d="
M175.999908,285.176697 
	C183.444595,285.176849 190.389343,285.176849 197.640839,285.176849 
	C197.640839,287.836029 197.640839,289.922394 197.640839,292.416870 
	C179.914154,292.416870 162.234222,292.416870 144.224854,292.416870 
	C144.224854,290.164551 144.224854,288.083221 144.224854,285.176514 
	C154.683578,285.176514 165.091766,285.176514 175.999908,285.176697 
z"/>
<path fill="#00000000" opacity="1.000000" stroke="none" 
	d="
M258.905701,224.472076 
	C258.806763,216.642838 258.767059,209.278458 258.618286,201.456161 
	C258.304260,189.971313 258.099304,178.944366 257.807678,167.454346 
	C257.720978,162.557190 257.720978,158.123123 257.720978,153.408875 
	C295.940948,153.408875 333.438660,153.408875 371.197754,153.408875 
	C371.197754,158.004700 371.197754,162.559723 371.289337,167.553055 
	C372.141785,173.255203 369.103546,175.014481 364.668488,176.967453 
	C350.071503,183.395172 335.780640,190.518066 320.807770,197.700043 
	C308.421265,206.321640 296.599182,214.617126 284.777069,222.912598 
	C276.470520,230.116287 268.163971,237.319977 258.964935,245.297668 
	C258.964935,237.993393 258.964935,231.465164 258.905701,224.472076 
z"/>
<path fill="#00000000" opacity="1.000000" stroke="none" 
	d="
M280.892334,139.444092 
	C280.826691,136.214066 280.826691,133.429001 280.826691,130.322617 
	C303.405731,130.322617 325.383820,130.322617 348.210602,130.322617 
	C348.210602,132.935364 348.210602,135.514999 348.307007,138.544067 
	C348.207031,141.439270 348.010681,143.885040 347.792603,146.601593 
	C325.660309,146.601593 303.768890,146.601593 280.957947,146.601593 
	C280.957947,144.357117 280.957947,142.123077 280.892334,139.444092 
z"/>
<path fill="#00000000" opacity="1.000000" stroke="none" 
	d="
M135.313156,432.300598 
	C133.789825,423.924286 132.426147,415.866241 130.973358,407.403961 
	C130.623932,397.975922 130.363602,388.952148 130.041626,379.464355 
	C130.014969,368.645355 130.049957,358.290405 130.028351,347.469971 
	C129.971771,342.210693 129.971771,337.416901 129.971771,332.270203 
	C157.173187,332.270203 183.722488,332.270203 211.046326,332.270203 
	C211.046326,337.883118 211.046326,343.481873 211.112717,349.545959 
	C211.136475,364.031555 211.093842,378.051849 211.115143,392.537415 
	C209.763763,404.714874 208.348419,416.427124 206.936096,428.561401 
	C205.755447,432.757294 204.379501,436.484436 203.447479,440.319427 
	C202.668625,443.524261 200.923386,444.370941 197.774734,444.347900 
	C179.843750,444.216583 161.909653,444.155396 143.980713,444.387177 
	C140.192261,444.436127 138.630112,443.073608 137.859314,439.667267 
	C137.314804,437.261017 136.285614,434.964447 135.313156,432.300598 
z"/>
<path fill="#00000000" opacity="1.000000" stroke="none" 
	d="
M130.004440,321.417969 
	C130.093292,319.214539 130.239365,317.430725 130.407822,315.373352 
	C157.175812,315.373352 183.688431,315.373352 210.702530,315.373352 
	C210.827789,316.963684 210.952286,318.544373 211.135284,320.560852 
	C211.012878,322.443024 210.831985,323.889343 210.629684,325.506927 
	C209.268219,325.612244 208.129669,325.776489 206.991043,325.777161 
	C182.831055,325.791748 158.670944,325.752991 134.511230,325.832886 
	C131.555496,325.842651 129.505859,325.450897 130.004440,321.417969 
z"/>
<path fill="#00000000" opacity="1.000000" stroke="none" 
	d="
M167.042725,179.416092 
	C166.991943,176.248779 166.991943,173.495789 166.991943,170.327347 
	C169.485352,170.327347 171.474960,170.327347 174.192444,170.327347 
	C174.192444,172.645142 174.192444,174.875488 174.282745,177.550751 
	C174.203735,179.443451 174.034439,180.891220 173.824585,182.685608 
	C171.185623,182.470932 167.501038,185.534775 167.042725,179.416092 
z"/>
<path fill="#FD00000000F9F4" opacity="1.000000" stroke="none" 
	d="
M167.009369,118.430115 
	C167.074768,115.571541 167.193314,113.140945 167.326447,110.411102 
	C169.525436,110.411102 171.418198,110.411102 173.859863,110.411102 
	C173.981033,112.325981 174.101288,114.226334 174.317902,116.563545 
	C174.225754,119.103737 174.037247,121.207069 173.822571,123.602417 
	C171.722397,123.602417 169.819626,123.602417 167.403244,123.602417 
	C167.289261,122.015312 167.175888,120.436699 167.009369,118.430115 
z"/>
<path fill="#00000000" opacity="1.000000" stroke="none" 
	d="
M174.320511,136.559616 
	C174.222549,139.101013 174.030914,141.205276 173.812515,143.603333 
	C171.719742,143.603333 169.816727,143.603333 167.400436,143.603333 
	C167.286072,142.015335 167.172318,140.436035 167.004150,138.428558 
	C167.068893,135.567642 167.188065,133.134888 167.321869,130.403152 
	C169.524490,130.403152 171.419128,130.403152 173.867737,130.403152 
	C173.988037,132.319229 174.107437,134.220856 174.320511,136.559616 
z"/>
<path fill="#00000000" opacity="1.000000" stroke="none" 
	d="
M260.068909,289.389008 
	C259.925293,277.654755 259.935883,266.303650 260.019409,254.490311 
	C270.320953,244.617722 280.549500,235.207352 291.282471,225.397049 
	C293.204346,223.924713 294.572998,222.779388 296.047211,221.791672 
	C306.389282,214.862747 316.753082,207.966309 327.109955,201.059494 
	C340.173676,195.094025 353.231812,189.116241 366.309906,183.182449 
	C367.596313,182.598801 369.005127,182.285065 370.889587,181.673157 
	C370.889587,189.559509 370.889587,196.804428 370.905151,204.516602 
	C370.612671,214.700714 370.275513,224.416809 370.011597,234.134888 
	C369.912689,237.776093 369.984283,241.421921 370.012878,245.533356 
	C369.709747,260.692108 369.371826,275.383148 369.095581,290.539978 
	C368.682526,301.037109 368.499695,300.617279 359.189545,304.671326 
	C347.386353,309.810974 335.917572,315.718567 323.762573,321.648712 
	C312.426056,329.236450 301.631561,336.470520 290.837097,343.704590 
	C282.736115,350.248535 274.635132,356.792480 265.783234,363.942993 
	C264.394897,354.026459 263.053040,344.442139 261.598633,334.432556 
	C261.201508,321.075195 260.928192,308.142822 260.619476,295.211334 
	C260.576141,293.396149 260.359528,291.585114 260.068909,289.389008 
z"/>
<path fill="#E2A089" opacity="1.000000" stroke="none" 
	d="
M326.783264,200.915024 
	C316.753082,207.966309 306.389282,214.862747 296.047211,221.791672 
	C294.572998,222.779388 293.204346,223.924713 291.463043,225.121170 
	C289.289062,224.485916 287.438934,223.726608 285.182922,222.939941 
	C296.599182,214.617126 308.421265,206.321640 320.589874,197.956879 
	C322.776459,198.848587 324.616486,199.809570 326.783264,200.915024 
z"/>
<path fill="#00000000" opacity="1.000000" stroke="none" 
	d="
M284.967285,432.345795 
	C282.091339,423.835388 279.324371,415.669922 276.317139,407.242432 
	C273.998749,399.416473 271.866547,391.866760 269.870667,384.281158 
	C269.133942,381.481293 268.718292,378.596893 268.004486,375.378174 
	C268.582581,373.304535 268.863983,371.102936 270.114319,369.983459 
	C278.885986,362.129364 287.857574,354.498474 297.277191,346.398712 
	C303.395020,342.183167 308.976166,338.328094 314.614319,334.558350 
	C319.394653,331.362152 324.240906,328.264587 329.057983,325.123352 
	C335.975098,321.930054 342.853119,318.648193 349.821259,315.570343 
	C355.856476,312.904510 361.993896,310.470032 368.191284,307.889496 
	C368.191284,315.044250 368.191284,321.609497 368.290985,328.592133 
	C366.894531,340.048248 365.398407,351.086945 363.911652,362.560211 
	C361.247223,374.380920 358.573425,385.767090 355.889526,397.561157 
	C352.241180,408.718445 348.602936,419.467896 344.939301,430.597321 
	C337.833405,446.220062 339.100647,443.994171 322.290894,444.232208 
	C315.988037,444.321472 309.638062,443.770660 303.389130,444.358063 
	C293.987885,445.241852 287.531555,442.316437 284.967285,432.345795 
z"/>
<path fill="#00000000" opacity="1.000000" stroke="none" 
	d="
M167.015991,99.425781 
	C167.009583,97.855095 167.217377,96.687843 167.075653,95.564690 
	C166.451721,90.620811 168.836945,89.435646 173.768723,90.693634 
	C173.908463,92.698639 174.062744,94.912285 174.310150,97.561996 
	C174.238968,99.765488 174.074631,101.532913 173.885437,103.567841 
	C170.717041,103.784073 166.717545,106.072762 167.015991,99.425781 
z"/>
<path fill="#00000000" opacity="1.000000" stroke="none" 
	d="
M167.012756,158.413696 
	C166.959824,155.583694 166.959824,153.168350 166.959824,150.371231 
	C169.474991,150.371231 171.473480,150.371231 173.875854,150.371231 
	C173.991135,152.318893 174.103348,154.214661 174.306671,156.551056 
	C174.238113,158.952545 174.078445,160.913422 173.922623,162.827103 
	C168.233215,164.694016 167.431870,164.214233 167.012756,158.413696 
z"/>
<path fill="#D87EA9" opacity="1.000000" stroke="none" 
	d="
M328.895874,324.799133 
	C324.240906,328.264587 319.394653,331.362152 314.614319,334.558350 
	C308.976166,338.328094 303.395020,342.183167 297.466919,346.122864 
	C295.202393,345.615173 293.260040,344.985840 291.077393,344.030579 
	C301.631561,336.470520 312.426056,329.236450 323.567596,321.924530 
	C325.521027,322.722748 327.127380,323.598846 328.895874,324.799133 
z"/>
<path fill="#00000000" opacity="1.000000" stroke="none" 
	d="
M173.099976,77.611069 
	C173.268295,79.779701 173.361801,81.562050 173.512344,84.431610 
	C171.469742,83.808601 169.731659,83.278465 167.954376,82.123199 
	C167.915176,81.498062 167.852448,81.028786 167.852448,81.028786 
	C167.917542,80.579704 167.982635,80.130615 168.020081,79.341774 
	C168.679047,76.334846 169.365646,73.667679 170.052246,71.000511 
	C170.545822,70.995193 171.039413,70.989868 171.532990,70.984543 
	C172.030380,73.064621 172.527771,75.144707 173.099976,77.611069 
z"/>
<path fill="#EFC964" opacity="1.000000" stroke="none" 
	d="
M167.711182,81.113998 
	C167.852448,81.028786 167.915176,81.498062 167.868851,81.730118 
	C167.449432,81.777527 167.365234,81.523209 167.711182,81.113998 
z"/>
</svg>