<svg version="1.1" id="Layer_1" xmlns="http://www.w3.org/2000/svg" xmlns:xlink="http://www.w3.org/1999/xlink" x="0px" y="0px"
	 width="100%" viewBox="0 0 512 512" enable-background="new 0 0 512 512" xml:space="preserve">
<path fill="#FFFFFF00" opacity="1.000000" stroke="none" 
	d="
M21.000004,513.000000 
	C14.337054,513.000000 7.674108,513.000000 1.008371,513.000000 
	C1.005581,342.432312 1.005581,171.864594 1.005581,1.000000 
	C84.687325,1.000000 168.375000,1.000000 252.446136,1.349045 
	C251.552963,3.871371 249.302490,5.983284 249.161041,8.228099 
	C248.367126,20.826225 239.768936,31.214352 226.497101,32.103973 
	C220.064987,32.535122 216.997101,36.029881 216.963699,40.926346 
	C216.929825,45.890537 220.966492,48.888622 225.993622,48.839161 
	C237.793732,48.723057 249.252884,60.619354 249.038696,73.286530 
	C248.978821,76.827614 253.295013,80.831093 256.860016,80.960251 
	C260.307312,81.085159 264.724884,77.072403 265.000397,73.565842 
	C266.173370,58.638493 273.531555,50.910645 288.219635,48.965145 
	C291.958832,48.469872 295.603973,47.074680 296.816010,43.161175 
	C297.899597,39.662361 297.068512,36.067886 293.532501,34.181938 
	C291.351288,33.018585 288.761169,32.452023 286.284393,32.042843 
	C276.824615,30.480022 270.235168,25.827599 266.692108,16.476616 
	C264.744843,11.337391 266.216583,4.898535 261.000000,1.000000 
	C344.953033,1.000000 428.906097,1.000000 512.929565,1.000000 
	C512.929565,171.666656 512.929565,342.333313 512.928467,513.000000 
	C506.597595,513.000000 500.267853,513.000000 493.578461,512.638428 
	C497.298553,510.899323 497.002960,507.474823 497.002960,504.188538 
	C497.002960,444.389618 497.030670,384.590637 496.980042,324.791779 
	C496.969635,312.523590 492.656342,301.620483 486.722321,290.973328 
	C481.774017,282.094757 470.104767,276.664246 472.448761,263.933502 
	C472.581787,263.210968 472.187256,262.379944 471.994476,261.610382 
	C466.526428,239.780258 448.343781,225.725159 426.401184,225.085587 
	C414.772827,224.746658 403.875153,228.060547 394.959045,235.695877 
	C385.319458,243.950760 379.001404,254.248322 377.881683,267.380188 
	C377.512787,271.706177 376.971039,275.915802 373.142822,279.626465 
	C359.584808,292.768311 353.226227,309.502228 353.118805,328.089996 
	C352.785797,385.721588 353.030853,443.356354 352.932861,500.989685 
	C352.925018,505.603455 353.742676,509.637543 357.000000,513.000000 
	C346.645782,513.000000 336.291534,513.000000 325.577637,512.637024 
	C328.623657,510.580963 329.039276,507.601105 329.035889,504.185730 
	C328.984680,452.090668 328.941345,399.995331 329.086121,347.900604 
	C329.101562,342.341644 327.928040,338.291107 322.017120,336.423157 
	C322.012146,331.360260 322.017609,326.755035 322.390930,322.079742 
	C327.384796,320.486542 329.197144,317.571198 329.121033,312.450806 
	C328.828796,292.793365 329.130859,273.127869 328.963043,253.467499 
	C328.822968,237.057526 328.837982,220.619324 327.821167,204.253464 
	C327.175659,193.863541 322.217224,184.692139 316.578766,175.908600 
	C312.162567,169.029083 303.429718,164.605865 304.213287,154.631256 
	C304.361725,152.741608 303.873566,150.744492 303.389008,148.872055 
	C300.683777,138.418259 295.272491,129.760239 286.636932,123.069984 
	C279.025452,117.173080 270.590637,113.613808 260.992554,113.017685 
	C247.622910,112.187302 235.804062,115.700821 225.488266,124.732216 
	C217.106094,132.070724 212.186630,141.009186 209.986252,151.718079 
	C209.126068,155.904510 208.721939,160.321640 207.028564,164.156052 
	C205.700089,167.164185 202.531662,169.306671 200.483704,172.059189 
	C191.004761,184.799118 185.025726,198.885254 185.018539,215.004333 
	C184.975616,311.313843 185.019409,407.623413 184.917206,503.932831 
	C184.913055,507.823730 186.133118,510.654236 189.000000,513.000000 
	C178.645767,513.000000 168.291550,513.000000 157.558517,512.647339 
	C160.450409,509.710876 161.027435,506.156647 161.025513,502.261047 
	C160.994476,438.965210 161.026337,375.669373 160.960403,312.373596 
	C160.955109,307.294464 160.395172,302.211548 159.995880,297.138031 
	C158.656311,280.117279 151.494919,265.892914 139.506454,253.851807 
	C138.017349,252.356171 137.135117,249.592987 137.117950,247.408142 
	C137.036697,237.067032 136.043274,226.821167 130.866577,217.770599 
	C120.984634,200.493698 101.755905,190.392685 80.145515,193.783234 
	C59.152283,197.076935 40.188187,217.665466 41.074905,239.473709 
	C41.362556,246.548355 40.913486,252.901627 34.329182,257.271210 
	C33.060726,258.112976 32.368813,259.813477 31.388058,261.100403 
	C23.086178,271.994019 17.289185,284.242889 17.172060,297.892975 
	C16.733322,349.025604 17.004223,400.164215 16.983706,451.300598 
	C16.981783,456.093292 19.544872,458.408142 24.041046,459.534180 
	C24.055332,464.626221 24.045401,469.257935 23.647806,473.940308 
	C18.808662,474.860748 16.812958,477.428284 16.941742,482.087952 
	C17.152523,489.714447 16.651653,497.375244 17.182280,504.970490 
	C17.374540,507.722473 19.666256,510.327759 21.000004,513.000000 
M71.943428,126.415733 
	C77.811798,131.277542 80.234520,137.921585 80.894402,145.146179 
	C81.333603,149.954712 84.020805,152.611115 88.113197,152.767212 
	C91.757973,152.906235 95.477646,151.295425 96.108948,146.544510 
	C96.446152,144.006775 96.849358,141.453232 97.523712,138.989182 
	C100.225471,129.117065 109.674217,120.953796 119.933685,120.916237 
	C124.984108,120.897743 128.975616,116.761772 128.995087,112.518982 
	C129.014587,108.270973 126.340042,106.415298 120.586174,104.869614 
	C115.427376,103.483795 109.999771,101.825554 105.697037,98.838158 
	C99.909767,94.820038 97.200714,88.474998 96.942001,81.174812 
	C96.754913,75.895920 93.943100,73.204376 89.212936,72.999184 
	C83.529182,72.752617 81.970428,74.164070 80.971756,80.153564 
	C80.576866,82.521889 79.996613,84.871468 79.330147,87.180321 
	C75.987228,98.761284 67.338852,103.468903 56.205029,105.014671 
	C50.062672,105.867447 48.968384,107.202621 48.999104,113.168793 
	C49.022469,117.706558 51.528919,119.892418 56.490356,121.086578 
	C61.550468,122.304489 66.427917,124.281319 71.943428,126.415733 
M415.998413,128.201370 
	C412.201111,138.633087 404.183777,143.545105 393.684601,144.957535 
	C387.915070,145.733719 384.759735,148.352722 385.013611,152.779968 
	C385.281281,157.447464 389.122650,160.785385 394.474365,161.000763 
	C404.124390,161.389130 413.047668,168.150848 415.942719,177.613235 
	C417.015350,181.119064 416.729919,185.206543 418.402740,188.306198 
	C419.586121,190.498962 422.999451,192.663315 425.455353,192.707108 
	C428.781525,192.766418 432.502991,191.290253 433.026215,186.696625 
	C433.355347,183.806808 433.654999,180.865021 434.453522,178.086075 
	C437.242859,168.378860 446.053711,161.561523 456.190735,161.000717 
	C461.688843,160.696533 464.847382,158.173096 465.000763,153.962158 
	C465.215118,148.075500 463.127777,145.939102 456.752167,144.946121 
	C453.921417,144.505219 451.046265,143.821793 448.415924,142.714737 
	C438.249603,138.435913 434.537109,129.860367 432.784912,119.640923 
	C432.364990,117.191910 429.642242,114.111946 427.282898,113.268715 
	C423.985596,112.090263 419.888763,112.764832 418.455688,117.101685 
	C417.355957,120.429771 416.800751,123.937798 415.998413,128.201370 
z"/>
<path fill="#020101" opacity="1.000000" stroke="none" 
	d="
M189.444168,513.000000 
	C186.133118,510.654236 184.913055,507.823730 184.917206,503.932831 
	C185.019409,407.623413 184.975616,311.313843 185.018539,215.004333 
	C185.025726,198.885254 191.004761,184.799118 200.483704,172.059189 
	C202.531662,169.306671 205.700089,167.164185 207.028564,164.156052 
	C208.721939,160.321640 209.126068,155.904510 209.986252,151.718079 
	C212.186630,141.009186 217.106094,132.070724 225.488266,124.732216 
	C235.804062,115.700821 247.622910,112.187302 260.992554,113.017685 
	C270.590637,113.613808 279.025452,117.173080 286.636932,123.069984 
	C295.272491,129.760239 300.683777,138.418259 303.389008,148.872055 
	C303.873566,150.744492 304.361725,152.741608 304.213287,154.631256 
	C303.429718,164.605865 312.162567,169.029083 316.578766,175.908600 
	C322.217224,184.692139 327.175659,193.863541 327.821167,204.253464 
	C328.837982,220.619324 328.822968,237.057526 328.963043,253.467499 
	C329.130859,273.127869 328.828796,292.793365 329.121033,312.450806 
	C329.197144,317.571198 327.384796,320.486542 322.044800,321.953247 
	C314.655151,319.666443 313.730835,318.487427 313.710449,311.538849 
	C313.670380,297.874725 313.771759,284.209869 313.681091,270.546234 
	C313.548462,250.558594 313.527863,230.565521 312.985718,210.587616 
	C312.767944,202.562943 310.049500,195.037140 305.107239,188.494644 
	C304.665314,212.769653 304.734985,236.923752 304.602386,261.076752 
	C304.577911,265.531433 304.136047,270.067993 303.198700,274.418488 
	C299.771057,290.326660 284.913849,303.271912 267.562286,304.334198 
	C248.670807,305.490784 230.378799,305.414154 217.024185,288.387238 
	C211.279510,280.161530 209.366257,271.207397 209.378174,261.673523 
	C209.406494,239.016052 209.387253,216.358536 209.387222,193.701035 
	C209.387222,191.925598 209.387222,190.150177 209.387222,188.374741 
	C202.234650,197.869965 200.311691,208.672043 200.305786,219.890045 
	C200.256287,313.685425 200.273880,407.480835 200.308517,501.276215 
	C200.309097,502.853271 200.775131,504.430176 201.012787,506.368134 
	C199.667725,508.819427 198.333862,510.909698 197.000000,513.000000 
	C194.629440,513.000000 192.258896,513.000000 189.444168,513.000000 
M237.067841,145.067413 
	C237.067841,145.067413 237.094116,145.155441 237.754425,144.977097 
	C242.691376,139.556381 247.628326,134.135651 252.951324,128.291031 
	C250.146881,129.244476 247.578171,130.117767 244.285767,130.983719 
	C232.975754,136.108826 226.508636,144.761398 225.692978,157.668686 
	C229.393921,153.765457 233.094864,149.862228 237.012054,145.528992 
	C237.012054,145.528992 237.159637,145.070831 237.067841,145.067413 
M232.289948,172.113708 
	C225.597015,176.808502 223.080338,183.086472 224.171967,191.264038 
	C224.800934,195.975708 224.286087,200.840057 224.286087,205.635681 
	C224.690918,205.713257 225.095734,205.790833 225.500565,205.868423 
	C228.328003,202.913055 231.155441,199.957703 234.567154,196.682068 
	C251.585098,179.664978 268.603058,162.647903 286.372955,144.878906 
	C281.713531,140.254608 277.451508,136.024734 273.559387,132.161972 
	C259.523529,145.850525 246.210464,158.834167 232.289948,172.113708 
M242.673981,284.750092 
	C256.203888,271.222961 269.533600,257.485931 283.374115,244.284470 
	C288.110809,239.766449 290.436584,235.252274 289.768494,228.695786 
	C289.215759,223.271515 289.655487,217.746124 289.655487,212.479996 
	C270.495392,231.232224 251.736176,249.592087 232.357071,268.233215 
	C231.184326,269.399414 230.036743,270.592255 228.834366,271.727081 
	C224.064819,276.228760 228.924713,278.871124 231.091095,281.513580 
	C235.550949,286.953552 238.861893,287.888611 241.866882,285.497894 
	C241.983170,285.405396 242.014389,285.205963 242.673981,284.750092 
M232.317123,220.156219 
	C225.635605,224.863754 223.063461,231.127945 224.171997,239.330154 
	C224.808258,244.037857 224.287308,248.901962 224.287308,253.695648 
	C224.705215,253.769394 225.123108,253.843140 225.541016,253.916885 
	C228.373077,250.958130 231.205139,247.999374 234.623154,244.724686 
	C252.025345,227.323792 269.438232,209.933578 286.804901,192.497284 
	C287.928558,191.369125 289.461609,189.910370 289.503845,188.564590 
	C289.757080,180.494766 289.629395,172.412964 289.629395,163.944595 
	C288.614868,164.385529 288.105011,164.461761 287.812653,164.754929 
	C269.505188,183.113510 251.215424,201.489807 232.317123,220.156219 
M285.763947,278.110779 
	C288.985596,272.556305 290.174683,266.645477 289.602112,262.020752 
	C280.342224,270.919464 270.574799,280.305878 260.905396,289.598114 
	C270.708405,290.114014 279.291687,287.315155 285.763947,278.110779 
z"/>
<path fill="#010202" opacity="1.000000" stroke="none" 
	d="
M357.444153,513.000000 
	C353.742676,509.637543 352.925018,505.603455 352.932861,500.989685 
	C353.030853,443.356354 352.785797,385.721588 353.118805,328.089996 
	C353.226227,309.502228 359.584808,292.768311 373.142822,279.626465 
	C376.971039,275.915802 377.512787,271.706177 377.881683,267.380188 
	C379.001404,254.248322 385.319458,243.950760 394.959045,235.695877 
	C403.875153,228.060547 414.772827,224.746658 426.401184,225.085587 
	C448.343781,225.725159 466.526428,239.780258 471.994476,261.610382 
	C472.187256,262.379944 472.581787,263.210968 472.448761,263.933502 
	C470.104767,276.664246 481.774017,282.094757 486.722321,290.973328 
	C492.656342,301.620483 496.969635,312.523590 496.980042,324.791779 
	C497.030670,384.590637 497.002960,444.389618 497.002960,504.188538 
	C497.002960,507.474823 497.298553,510.899323 493.109436,512.638428 
	C490.958344,513.000000 488.916656,513.000000 486.338318,512.648193 
	C484.472565,510.204834 483.143494,508.113251 481.881165,505.556427 
	C481.953339,447.131104 481.975861,389.171051 481.924988,331.211029 
	C481.921661,327.396454 481.587799,323.546753 481.004822,319.775665 
	C479.925415,312.793213 477.724365,306.188568 472.970825,299.121155 
	C472.970825,302.108887 472.970856,303.721741 472.970856,305.334595 
	C472.970795,328.318756 472.995148,351.302979 472.963837,374.287109 
	C472.931335,398.128113 459.094574,414.183960 435.440521,416.527374 
	C416.646484,418.389282 398.256653,417.461090 385.071899,400.285095 
	C379.774536,392.251617 377.698181,383.732330 377.788452,374.463745 
	C377.955505,357.310394 377.836090,340.154236 377.835999,322.999268 
	C377.835968,315.421143 377.835999,307.842987 377.835999,299.079315 
	C376.646942,300.841461 376.076691,301.575439 375.623169,302.375519 
	C370.386200,311.614380 368.762634,321.640778 368.775452,332.136719 
	C368.844177,388.431610 368.805359,444.726624 368.820404,501.021576 
	C368.820862,502.674683 369.006622,504.327698 369.058289,506.356445 
	C367.673737,508.821442 366.336884,510.910736 365.000000,513.000000 
	C362.629425,513.000000 360.258881,513.000000 357.444153,513.000000 
M410.076782,400.539368 
	C410.076782,400.539368 410.525421,400.752045 410.525421,400.752045 
	C410.525421,400.752045 411.021515,400.732330 411.808014,401.021729 
	C431.022858,403.219452 446.647003,402.420715 451.718903,391.969452 
	C434.670441,394.129181 418.601959,390.833801 402.487915,384.413574 
	C399.534180,382.934418 396.580444,381.455292 393.486481,379.905884 
	C393.803650,389.524994 400.698303,397.877014 409.947296,400.070526 
	C409.947296,400.070526 409.857513,400.094391 410.076782,400.539368 
M402.985870,262.770569 
	C411.394958,287.406769 433.053192,300.827057 457.623901,296.470490 
	C457.623901,291.290466 457.623901,286.080353 457.623901,280.661163 
	C434.956512,279.209961 419.746918,268.004883 411.918365,246.287582 
	C410.883087,245.900742 409.563416,244.896149 408.856171,245.221786 
	C401.028625,248.825851 399.756622,252.617325 402.985870,262.770569 
M400.662323,341.403564 
	C398.234955,339.911804 395.807556,338.420013 392.846222,336.600098 
	C392.846222,342.712219 393.421051,348.058838 392.707092,353.227417 
	C391.717194,360.393677 394.830750,364.335083 401.611267,367.134949 
	C419.217743,377.109985 437.885284,379.980103 457.668701,375.929352 
	C457.668701,367.421173 457.668701,359.341034 457.668701,351.554199 
	C450.950653,351.901184 444.497223,352.587555 438.055176,352.493439 
	C424.833008,352.300293 412.680084,347.979706 400.662323,341.403564 
M400.900513,290.173309 
	C398.423248,286.752411 395.946014,283.331512 392.871429,279.085785 
	C392.871429,289.259888 393.430542,298.529175 392.695282,307.694611 
	C392.102509,315.083649 395.174835,319.574921 401.325378,323.615601 
	C418.178528,336.604645 436.943939,340.301819 457.710815,335.518188 
	C457.710815,327.610229 457.710815,320.039978 457.710815,312.656769 
	C451.053802,312.275574 444.577881,312.392914 438.261749,311.445251 
	C423.394287,309.214539 411.394470,301.473480 400.900513,290.173309 
M447.776794,263.981232 
	C450.502716,264.455688 453.228607,264.930115 456.109436,265.431488 
	C454.937103,252.054764 438.962677,239.454453 426.071198,241.365036 
	C429.230957,252.473541 436.408722,259.706024 447.776794,263.981232 
z"/>
<path fill="#020202" opacity="1.000000" stroke="none" 
	d="
M24.016829,459.073883 
	C19.544872,458.408142 16.981783,456.093292 16.983706,451.300598 
	C17.004223,400.164215 16.733322,349.025604 17.172060,297.892975 
	C17.289185,284.242889 23.086178,271.994019 31.388058,261.100403 
	C32.368813,259.813477 33.060726,258.112976 34.329182,257.271210 
	C40.913486,252.901627 41.362556,246.548355 41.074905,239.473709 
	C40.188187,217.665466 59.152283,197.076935 80.145515,193.783234 
	C101.755905,190.392685 120.984634,200.493698 130.866577,217.770599 
	C136.043274,226.821167 137.036697,237.067032 137.117950,247.408142 
	C137.135117,249.592987 138.017349,252.356171 139.506454,253.851807 
	C151.494919,265.892914 158.656311,280.117279 159.995880,297.138031 
	C160.395172,302.211548 160.955109,307.294464 160.960403,312.373596 
	C161.026337,375.669373 160.994476,438.965210 161.025513,502.261047 
	C161.027435,506.156647 160.450409,509.710876 157.089859,512.647339 
	C154.629440,513.000000 152.258896,513.000000 149.344208,512.647827 
	C147.487701,510.206299 146.175293,508.116943 144.986145,505.571167 
	C145.131088,438.513580 145.155060,371.912384 145.163483,305.311188 
	C145.163742,303.315063 145.141205,301.301086 144.890076,299.325897 
	C143.831375,290.999573 141.664093,283.069794 136.444183,276.256744 
	C135.994415,300.188995 136.344284,324.003540 135.871918,347.801697 
	C135.554794,363.778870 124.334656,378.372528 108.881088,382.398438 
	C100.673721,384.536591 91.808403,384.527252 83.221397,384.742645 
	C69.887314,385.077118 58.542103,380.288208 49.716446,369.603210 
	C43.219414,361.609161 41.077587,352.533020 41.059006,342.811493 
	C41.019196,321.982635 41.051186,301.153625 41.034397,280.324677 
	C41.033344,279.018646 40.865185,277.712769 40.705585,275.407532 
	C34.179790,286.130981 32.016888,296.733948 32.024048,307.936584 
	C32.053638,354.260193 32.037498,400.583771 32.035454,446.907379 
	C32.035076,455.434692 31.485310,456.259918 24.016829,459.073883 
M73.686119,368.373993 
	C80.443848,368.856049 87.199326,369.706848 93.959732,369.747925 
	C111.183174,369.852661 121.124046,359.754395 121.142021,342.472260 
	C121.175064,310.706360 121.158714,278.940399 121.141670,247.174454 
	C121.139885,243.850250 121.181114,240.509521 120.886505,237.204620 
	C119.033379,216.415665 95.933723,202.682663 76.302605,211.029968 
	C63.618000,216.570740 56.466537,226.545929 56.273369,240.073441 
	C55.770000,275.324402 55.945553,310.588196 56.178833,345.844727 
	C56.250324,356.649780 63.512455,365.487152 73.686119,368.373993 
z"/>
<path fill="#000000" opacity="1.000000" stroke="none" 
	d="
M322.027557,336.880829 
	C327.928040,338.291107 329.101562,342.341644 329.086121,347.900604 
	C328.941345,399.995331 328.984680,452.090668 329.035889,504.185730 
	C329.039276,507.601105 328.623657,510.580963 325.108978,512.637024 
	C322.629425,513.000000 320.258881,513.000000 317.368317,512.661865 
	C315.542023,510.219055 314.235748,508.114319 313.188690,505.682098 
	C313.532928,503.536041 313.691772,501.717468 313.692261,499.898834 
	C313.705750,449.873016 313.799927,399.846802 313.587250,349.821869 
	C313.558960,343.159393 315.072906,338.505524 322.027557,336.880829 
z"/>
<path fill="#010100" opacity="1.000000" stroke="none" 
	d="
M260.555847,1.000000 
	C266.216583,4.898535 264.744843,11.337391 266.692108,16.476616 
	C270.235168,25.827599 276.824615,30.480022 286.284393,32.042843 
	C288.761169,32.452023 291.351288,33.018585 293.532501,34.181938 
	C297.068512,36.067886 297.899597,39.662361 296.816010,43.161175 
	C295.603973,47.074680 291.958832,48.469872 288.219635,48.965145 
	C273.531555,50.910645 266.173370,58.638493 265.000397,73.565842 
	C264.724884,77.072403 260.307312,81.085159 256.860016,80.960251 
	C253.295013,80.831093 248.978821,76.827614 249.038696,73.286530 
	C249.252884,60.619354 237.793732,48.723057 225.993622,48.839161 
	C220.966492,48.888622 216.929825,45.890537 216.963699,40.926346 
	C216.997101,36.029881 220.064987,32.535122 226.497101,32.103973 
	C239.768936,31.214352 248.367126,20.826225 249.161041,8.228099 
	C249.302490,5.983284 251.552963,3.871371 252.914795,1.349045 
	C255.370560,1.000000 257.741119,1.000000 260.555847,1.000000 
M253.280731,45.171806 
	C254.470688,46.480717 255.660645,47.789623 256.217621,48.402279 
	C259.438171,45.625778 262.424103,43.051544 264.969025,40.857521 
	C262.260071,38.142162 259.486298,35.361843 257.263519,33.133797 
	C254.671066,35.497570 251.766144,38.146263 248.701324,40.940750 
	C249.867172,41.992107 251.329361,43.310688 253.280731,45.171806 
z"/>
<path fill="#FFFFFF" opacity="1.000000" stroke="none" 
	d="
M365.468689,513.000000 
	C366.336884,510.910736 367.673737,508.821442 369.517517,506.334473 
	C374.976349,505.905823 379.928253,505.874847 385.353027,505.902344 
	C417.822052,505.981079 449.818207,506.001404 481.814392,506.021698 
	C483.143494,508.113251 484.472565,510.204834 485.900818,512.648193 
	C445.979095,513.000000 405.958221,513.000000 365.468689,513.000000 
z"/>
<path fill="#FFFFFF" opacity="1.000000" stroke="none" 
	d="
M144.862915,506.027588 
	C146.175293,508.116943 147.487701,510.206299 148.900055,512.647827 
	C108.979103,513.000000 68.958206,513.000000 28.568445,512.646362 
	C31.495014,511.410400 32.264164,508.946014 32.630703,505.942810 
	C38.332859,505.885101 43.579575,505.828888 49.304268,505.850769 
	C81.475800,505.961761 113.169357,505.994659 144.862915,506.027588 
z"/>
<path fill="#FFFFFF" opacity="1.000000" stroke="none" 
	d="
M312.929474,506.009552 
	C314.235748,508.114319 315.542023,510.219055 316.924164,512.661865 
	C277.312439,513.000000 237.624878,513.000000 197.468658,513.000000 
	C198.333862,510.909698 199.667725,508.819427 201.476715,506.331543 
	C206.918060,505.889648 211.884308,505.845337 217.324585,505.865204 
	C249.508896,505.956116 281.219177,505.982849 312.929474,506.009552 
z"/>
<path fill="#010100" opacity="1.000000" stroke="none" 
	d="
M32.175266,505.944275 
	C32.264164,508.946014 31.495014,511.410400 28.099789,512.646362 
	C25.958334,513.000000 23.916666,513.000000 21.437504,513.000000 
	C19.666256,510.327759 17.374540,507.722473 17.182280,504.970490 
	C16.651653,497.375244 17.152523,489.714447 16.941742,482.087952 
	C16.812958,477.428284 18.808662,474.860748 23.975597,474.090607 
	C30.269266,475.194305 32.193619,478.743652 32.082031,484.137115 
	C31.931725,491.402405 32.127834,498.674896 32.175266,505.944275 
z"/>
<path fill="#FBD8B0" opacity="1.000000" stroke="none" 
	d="
M313.188690,505.682098 
	C281.219177,505.982849 249.508896,505.956116 217.366013,505.414917 
	C216.950653,457.302826 216.957153,409.705170 216.989594,362.107544 
	C217.006271,337.644073 217.069229,313.180603 217.111282,288.717133 
	C230.378799,305.414154 248.670807,305.490784 267.562286,304.334198 
	C284.913849,303.271912 299.771057,290.326660 303.198700,274.418488 
	C304.136047,270.067993 304.577911,265.531433 304.602386,261.076752 
	C304.734985,236.923752 304.665314,212.769653 305.107239,188.494644 
	C310.049500,195.037140 312.767944,202.562943 312.985718,210.587616 
	C313.527863,230.565521 313.548462,250.558594 313.681091,270.546234 
	C313.771759,284.209869 313.670380,297.874725 313.710449,311.538849 
	C313.730835,318.487427 314.655151,319.666443 321.677002,322.023315 
	C322.017609,326.755035 322.012146,331.360260 322.017120,336.423157 
	C315.072906,338.505524 313.558960,343.159393 313.587250,349.821869 
	C313.799927,399.846802 313.705750,449.873016 313.692261,499.898834 
	C313.691772,501.717468 313.532928,503.536041 313.188690,505.682098 
z"/>
<path fill="#F8B365" opacity="1.000000" stroke="none" 
	d="
M32.630703,505.942810 
	C32.127834,498.674896 31.931725,491.402405 32.082031,484.137115 
	C32.193619,478.743652 30.269266,475.194305 24.363258,474.039917 
	C24.045401,469.257935 24.055332,464.626221 24.041046,459.534180 
	C31.485310,456.259918 32.035076,455.434692 32.035454,446.907379 
	C32.037498,400.583771 32.053638,354.260193 32.024048,307.936584 
	C32.016888,296.733948 34.179790,286.130981 40.705585,275.407532 
	C40.865185,277.712769 41.033344,279.018646 41.034397,280.324677 
	C41.051186,301.153625 41.019196,321.982635 41.059006,342.811493 
	C41.077587,352.533020 43.219414,361.609161 49.442390,369.926666 
	C49.157463,372.544495 48.949249,374.525543 48.946766,376.506866 
	C48.892811,419.595428 48.861752,462.684052 48.826294,505.772644 
	C43.579575,505.828888 38.332859,505.885101 32.630703,505.942810 
z"/>
<path fill="#010100" opacity="1.000000" stroke="none" 
	d="
M71.664383,126.170807 
	C66.427917,124.281319 61.550468,122.304489 56.490356,121.086578 
	C51.528919,119.892418 49.022469,117.706558 48.999104,113.168793 
	C48.968384,107.202621 50.062672,105.867447 56.205029,105.014671 
	C67.338852,103.468903 75.987228,98.761284 79.330147,87.180321 
	C79.996613,84.871468 80.576866,82.521889 80.971756,80.153564 
	C81.970428,74.164070 83.529182,72.752617 89.212936,72.999184 
	C93.943100,73.204376 96.754913,75.895920 96.942001,81.174812 
	C97.200714,88.474998 99.909767,94.820038 105.697037,98.838158 
	C109.999771,101.825554 115.427376,103.483795 120.586174,104.869614 
	C126.340042,106.415298 129.014587,108.270973 128.995087,112.518982 
	C128.975616,116.761772 124.984108,120.897743 119.933685,120.916237 
	C109.674217,120.953796 100.225471,129.117065 97.523712,138.989182 
	C96.849358,141.453232 96.446152,144.006775 96.108948,146.544510 
	C95.477646,151.295425 91.757973,152.906235 88.113197,152.767212 
	C84.020805,152.611115 81.333603,149.954712 80.894402,145.146179 
	C80.234520,137.921585 77.811798,131.277542 71.664383,126.170807 
M95.025253,110.540375 
	C92.903160,108.358162 90.781075,106.175941 89.537598,104.897232 
	C86.314529,107.874313 83.519211,110.456291 81.070686,112.717949 
	C83.394333,115.029808 86.255936,117.876900 89.250191,120.855972 
	C91.251099,118.827858 93.581978,116.705414 95.565598,114.296967 
	C96.106094,113.640717 95.601387,112.123611 95.025253,110.540375 
z"/>
<path fill="#010000" opacity="1.000000" stroke="none" 
	d="
M416.000916,127.783585 
	C416.800751,123.937798 417.355957,120.429771 418.455688,117.101685 
	C419.888763,112.764832 423.985596,112.090263 427.282898,113.268715 
	C429.642242,114.111946 432.364990,117.191910 432.784912,119.640923 
	C434.537109,129.860367 438.249603,138.435913 448.415924,142.714737 
	C451.046265,143.821793 453.921417,144.505219 456.752167,144.946121 
	C463.127777,145.939102 465.215118,148.075500 465.000763,153.962158 
	C464.847382,158.173096 461.688843,160.696533 456.190735,161.000717 
	C446.053711,161.561523 437.242859,168.378860 434.453522,178.086075 
	C433.654999,180.865021 433.355347,183.806808 433.026215,186.696625 
	C432.502991,191.290253 428.781525,192.766418 425.455353,192.707108 
	C422.999451,192.663315 419.586121,190.498962 418.402740,188.306198 
	C416.729919,185.206543 417.015350,181.119064 415.942719,177.613235 
	C413.047668,168.150848 404.124390,161.389130 394.474365,161.000763 
	C389.122650,160.785385 385.281281,157.447464 385.013611,152.779968 
	C384.759735,148.352722 387.915070,145.733719 393.684601,144.957535 
	C404.183777,143.545105 412.201111,138.633087 416.000916,127.783585 
M421.891907,157.665482 
	C422.979156,158.883789 424.066437,160.102097 425.153717,161.320404 
	C424.838959,160.859009 424.524200,160.397598 424.209412,159.936203 
	C427.411438,157.471207 430.613434,155.006226 433.041656,153.136917 
	C430.236328,150.285324 427.569824,147.574875 425.449280,145.419342 
	C423.182159,147.690872 420.323029,150.555603 417.371490,153.512924 
	C418.472412,154.496552 419.944061,155.811417 421.891907,157.665482 
z"/>
<path fill="#F4AF62" opacity="1.000000" stroke="none" 
	d="
M217.024185,288.387238 
	C217.069229,313.180603 217.006271,337.644073 216.989594,362.107544 
	C216.957153,409.705170 216.950653,457.302826 216.891968,505.350739 
	C211.884308,505.845337 206.918060,505.889648 201.487900,505.970551 
	C200.775131,504.430176 200.309097,502.853271 200.308517,501.276215 
	C200.273880,407.480835 200.256287,313.685425 200.305786,219.890045 
	C200.311691,208.672043 202.234650,197.869965 209.387222,188.374741 
	C209.387222,190.150177 209.387222,191.925598 209.387222,193.701035 
	C209.387253,216.358536 209.406494,239.016052 209.378174,261.673523 
	C209.366257,271.207397 211.279510,280.161530 217.024185,288.387238 
z"/>
<path fill="#E15E8A" opacity="1.000000" stroke="none" 
	d="
M232.924072,219.864471 
	C251.215424,201.489807 269.505188,183.113510 287.812653,164.754929 
	C288.105011,164.461761 288.614868,164.385529 289.629395,163.944595 
	C289.629395,172.412964 289.757080,180.494766 289.503845,188.564590 
	C289.461609,189.910370 287.928558,191.369125 286.804901,192.497284 
	C269.438232,209.933578 252.025345,227.323792 234.018188,244.596207 
	C233.250183,236.266647 233.087128,228.065567 232.924072,219.864471 
z"/>
<path fill="#E15E8A" opacity="1.000000" stroke="none" 
	d="
M232.976974,267.951965 
	C251.736176,249.592087 270.495392,231.232224 289.655487,212.479996 
	C289.655487,217.746124 289.215759,223.271515 289.768494,228.695786 
	C290.436584,235.252274 288.110809,239.766449 283.374115,244.284470 
	C269.533600,257.485931 256.203888,271.222961 242.023193,284.859009 
	C235.356140,280.883545 233.877197,274.560547 232.976974,267.951965 
z"/>
<path fill="#E25E8B" opacity="1.000000" stroke="none" 
	d="
M232.897400,171.817810 
	C246.210464,158.834167 259.523529,145.850525 273.559387,132.161972 
	C277.451508,136.024734 281.713531,140.254608 286.372955,144.878906 
	C268.603058,162.647903 251.585098,179.664978 233.971832,196.552521 
	C233.216812,188.221268 233.057114,180.019547 232.897400,171.817810 
z"/>
<path fill="#DB5B86" opacity="1.000000" stroke="none" 
	d="
M285.551941,278.411255 
	C279.291687,287.315155 270.708405,290.114014 260.905396,289.598114 
	C270.574799,280.305878 280.342224,270.919464 289.602112,262.020752 
	C290.174683,266.645477 288.985596,272.556305 285.551941,278.411255 
z"/>
<path fill="#C84B69" opacity="1.000000" stroke="none" 
	d="
M232.620605,220.010345 
	C233.087128,228.065567 233.250183,236.266647 233.725220,244.754181 
	C231.205139,247.999374 228.373077,250.958130 225.541016,253.916885 
	C225.123108,253.843140 224.705215,253.769394 224.287308,253.695648 
	C224.287308,248.901962 224.808258,244.037857 224.171997,239.330154 
	C223.063461,231.127945 225.635605,224.863754 232.620605,220.010345 
z"/>
<path fill="#C74B68" opacity="1.000000" stroke="none" 
	d="
M232.593689,171.965759 
	C233.057114,180.019547 233.216812,188.221268 233.679703,196.712677 
	C231.155441,199.957703 228.328003,202.913055 225.500565,205.868423 
	C225.095734,205.790833 224.690918,205.713257 224.286087,205.635681 
	C224.286087,200.840057 224.800934,195.975708 224.171967,191.264038 
	C223.080338,183.086472 225.597015,176.808502 232.593689,171.965759 
z"/>
<path fill="#C84C69" opacity="1.000000" stroke="none" 
	d="
M236.795822,145.959000 
	C233.094864,149.862228 229.393921,153.765457 225.692978,157.668686 
	C226.508636,144.761398 232.975754,136.108826 244.606995,131.333572 
	C243.950546,132.947403 242.794662,134.112961 242.031143,135.495255 
	C240.283615,138.659042 238.727798,141.928741 237.094116,145.155441 
	C237.094116,145.155441 237.067841,145.067413 236.926071,145.102264 
	C236.680435,145.205353 236.478516,145.310165 236.488159,145.336044 
	C236.568665,145.551910 236.688126,145.753265 236.795822,145.959000 
z"/>
<path fill="#CD4D6C" opacity="1.000000" stroke="none" 
	d="
M232.667023,268.092590 
	C233.877197,274.560547 235.356140,280.883545 241.728836,285.012146 
	C242.014389,285.205963 241.983170,285.405396 241.866882,285.497894 
	C238.861893,287.888611 235.550949,286.953552 231.091095,281.513580 
	C228.924713,278.871124 224.064819,276.228760 228.834366,271.727081 
	C230.036743,270.592255 231.184326,269.399414 232.667023,268.092590 
z"/>
<path fill="#D45881" opacity="1.000000" stroke="none" 
	d="
M237.424255,145.066269 
	C238.727798,141.928741 240.283615,138.659042 242.031143,135.495255 
	C242.794662,134.112961 243.950546,132.947403 244.968842,131.337250 
	C247.578171,130.117767 250.146881,129.244476 252.951324,128.291031 
	C247.628326,134.135651 242.691376,139.556381 237.424255,145.066269 
z"/>
<path fill="#D45881" opacity="1.000000" stroke="none" 
	d="
M236.903931,145.743988 
	C236.688126,145.753265 236.568665,145.551910 236.488159,145.336044 
	C236.478516,145.310165 236.680435,145.205353 236.971970,145.103973 
	C237.159637,145.070831 237.012054,145.528992 236.903931,145.743988 
z"/>
<path fill="#FBD8B0" opacity="1.000000" stroke="none" 
	d="
M481.881165,505.556427 
	C449.818207,506.001404 417.822052,505.981079 385.401917,505.449127 
	C385.039124,470.162689 385.100250,435.387878 385.161407,400.613098 
	C398.256653,417.461090 416.646484,418.389282 435.440521,416.527374 
	C459.094574,414.183960 472.931335,398.128113 472.963837,374.287109 
	C472.995148,351.302979 472.970795,328.318756 472.970856,305.334595 
	C472.970856,303.721741 472.970825,302.108887 472.970825,299.121155 
	C477.724365,306.188568 479.925415,312.793213 481.004822,319.775665 
	C481.587799,323.546753 481.921661,327.396454 481.924988,331.211029 
	C481.975861,389.171051 481.953339,447.131104 481.881165,505.556427 
z"/>
<path fill="#F7B163" opacity="1.000000" stroke="none" 
	d="
M385.071899,400.285095 
	C385.100250,435.387878 385.039124,470.162689 384.929077,505.390686 
	C379.928253,505.874847 374.976349,505.905823 369.565216,505.958801 
	C369.006622,504.327698 368.820862,502.674683 368.820404,501.021576 
	C368.805359,444.726624 368.844177,388.431610 368.775452,332.136719 
	C368.762634,321.640778 370.386200,311.614380 375.623169,302.375519 
	C376.076691,301.575439 376.646942,300.841461 377.835999,299.079315 
	C377.835999,307.842987 377.835968,315.421143 377.835999,322.999268 
	C377.836090,340.154236 377.955505,357.310394 377.788452,374.463745 
	C377.698181,383.732330 379.774536,392.251617 385.071899,400.285095 
z"/>
<path fill="#37C5C0" opacity="1.000000" stroke="none" 
	d="
M401.105804,290.816254 
	C411.394470,301.473480 423.394287,309.214539 438.261749,311.445251 
	C444.577881,312.392914 451.053802,312.275574 457.710815,312.656769 
	C457.710815,320.039978 457.710815,327.610229 457.710815,335.518188 
	C436.943939,340.301819 418.178528,336.604645 401.171265,322.852661 
	C401.046692,311.665222 401.076233,301.240753 401.105804,290.816254 
z"/>
<path fill="#37C4BF" opacity="1.000000" stroke="none" 
	d="
M401.059875,341.963959 
	C412.680084,347.979706 424.833008,352.300293 438.055176,352.493439 
	C444.497223,352.587555 450.950653,351.901184 457.668701,351.554199 
	C457.668701,359.341034 457.668701,367.421173 457.668701,375.929352 
	C437.885284,379.980103 419.217743,377.109985 401.324860,366.468109 
	C401.045593,357.855499 401.052734,349.909729 401.059875,341.963959 
z"/>
<path fill="#37C4BF" opacity="1.000000" stroke="none" 
	d="
M411.896240,246.951157 
	C419.746918,268.004883 434.956512,279.209961 457.623901,280.661163 
	C457.623901,286.080353 457.623901,291.290466 457.623901,296.470490 
	C433.053192,300.827057 411.394958,287.406769 403.037720,262.034698 
	C406.025116,256.516266 408.960663,251.733704 411.896240,246.951157 
z"/>
<path fill="#35C0BB" opacity="1.000000" stroke="none" 
	d="
M402.936401,384.919617 
	C418.601959,390.833801 434.670441,394.129181 451.718903,391.969452 
	C446.647003,402.420715 431.022858,403.219452 411.273560,400.687622 
	C410.485931,400.128693 410.192078,400.042328 409.857513,400.094391 
	C409.857513,400.094391 409.947296,400.070526 409.851959,399.775879 
	C407.483215,394.627350 405.209808,389.773468 402.936401,384.919617 
z"/>
<path fill="#36C1BD" opacity="1.000000" stroke="none" 
	d="
M447.384735,263.891357 
	C436.408722,259.706024 429.230957,252.473541 426.071198,241.365036 
	C438.962677,239.454453 454.937103,252.054764 456.109436,265.431488 
	C453.228607,264.930115 450.502716,264.455688 447.384735,263.891357 
z"/>
<path fill="#00B3B6" opacity="1.000000" stroke="none" 
	d="
M401.003174,290.494781 
	C401.076233,301.240753 401.046692,311.665222 401.006836,322.560699 
	C395.174835,319.574921 392.102509,315.083649 392.695282,307.694611 
	C393.430542,298.529175 392.871429,289.259888 392.871429,279.085785 
	C395.946014,283.331512 398.423248,286.752411 401.003174,290.494781 
z"/>
<path fill="#00B3B6" opacity="1.000000" stroke="none" 
	d="
M400.861084,341.683777 
	C401.052734,349.909729 401.045593,357.855499 401.041199,366.249298 
	C394.830750,364.335083 391.717194,360.393677 392.707092,353.227417 
	C393.421051,348.058838 392.846222,342.712219 392.846222,336.600098 
	C395.807556,338.420013 398.234955,339.911804 400.861084,341.683777 
z"/>
<path fill="#01ADB0" opacity="1.000000" stroke="none" 
	d="
M402.712158,384.666595 
	C405.209808,389.773468 407.483215,394.627350 409.850128,399.822296 
	C400.698303,397.877014 393.803650,389.524994 393.486481,379.905884 
	C396.580444,381.455292 399.534180,382.934418 402.712158,384.666595 
z"/>
<path fill="#02ADAF" opacity="1.000000" stroke="none" 
	d="
M411.907288,246.619370 
	C408.960663,251.733704 406.025116,256.516266 403.017212,261.658569 
	C399.756622,252.617325 401.028625,248.825851 408.856171,245.221786 
	C409.563416,244.896149 410.883087,245.900742 411.907288,246.619370 
z"/>
<path fill="#01ADB0" opacity="1.000000" stroke="none" 
	d="
M409.967163,400.316895 
	C410.192078,400.042328 410.485931,400.128693 410.880310,400.542908 
	C411.021515,400.732330 410.525421,400.752045 410.525421,400.752045 
	C410.525421,400.752045 410.076782,400.539368 409.967163,400.316895 
z"/>
<path fill="#FBD8B1" opacity="1.000000" stroke="none" 
	d="
M49.304264,505.850769 
	C48.861752,462.684052 48.892811,419.595428 48.946766,376.506866 
	C48.949249,374.525543 49.157463,372.544495 49.543915,370.239868 
	C58.542103,380.288208 69.887314,385.077118 83.221397,384.742645 
	C91.808403,384.527252 100.673721,384.536591 108.881088,382.398438 
	C124.334656,378.372528 135.554794,363.778870 135.871918,347.801697 
	C136.344284,324.003540 135.994415,300.188995 136.444183,276.256744 
	C141.664093,283.069794 143.831375,290.999573 144.890076,299.325897 
	C145.141205,301.301086 145.163742,303.315063 145.163483,305.311188 
	C145.155060,371.912384 145.131088,438.513580 144.986145,505.571167 
	C113.169357,505.994659 81.475800,505.961761 49.304264,505.850769 
z"/>
<path fill="#896BBB" opacity="1.000000" stroke="none" 
	d="
M77.024467,211.068985 
	C95.933723,202.682663 119.033379,216.415665 120.886505,237.204620 
	C121.181114,240.509521 121.139885,243.850250 121.141670,247.174454 
	C121.158714,278.940399 121.175064,310.706360 121.142021,342.472260 
	C121.124046,359.754395 111.183174,369.852661 93.959732,369.747925 
	C87.199326,369.706848 80.443848,368.856049 73.317307,367.809998 
	C68.970123,361.153137 64.656548,355.190125 65.473740,347.618439 
	C68.912704,352.513245 72.826675,353.864044 76.990784,351.797272 
	C80.299896,350.154846 81.919197,345.964233 80.575493,342.520325 
	C79.140236,338.841797 74.889252,336.709747 70.740479,338.157959 
	C68.888771,338.804352 67.458580,340.658295 65.561844,341.655640 
	C65.281906,332.643066 65.277214,323.938965 65.496750,315.540039 
	C68.884445,320.402100 72.910324,321.776367 77.018623,319.701660 
	C80.353058,318.017761 81.923790,313.885529 80.554977,310.398407 
	C79.117073,306.735260 74.784752,304.546448 70.680069,306.157135 
	C68.600960,306.972992 67.096390,309.252991 65.245186,310.353851 
	C65.201462,300.959045 65.244629,292.081421 65.508980,283.510071 
	C68.907234,288.329315 72.945389,289.686707 77.052689,287.622406 
	C80.352554,285.963959 81.924156,281.768524 80.541664,278.308533 
	C79.079575,274.649353 74.764526,272.501221 70.655716,274.129395 
	C68.580208,274.951874 67.078827,277.223145 65.234253,278.323730 
	C65.201225,268.928741 65.251793,260.049377 65.520187,251.477448 
	C66.418190,252.711365 66.960243,253.795105 67.803551,254.535889 
	C70.749290,257.123535 76.008110,257.079498 78.694359,254.377426 
	C81.485207,251.570129 81.986549,248.208237 79.764336,244.913132 
	C77.271431,241.216690 73.446861,240.677643 69.677742,242.331955 
	C67.905907,243.109634 66.740257,245.268448 65.222389,246.292023 
	C64.046738,235.569626 66.069954,226.132523 72.145676,217.711243 
	C73.752953,215.483459 75.397194,213.282349 77.024467,211.068985 
M106.901291,352.441925 
	C111.303658,351.412354 113.469101,348.603973 112.948433,344.140594 
	C112.510056,340.382568 110.122894,338.281616 106.331284,337.873138 
	C101.540092,337.356934 97.835526,340.020020 97.282555,344.361420 
	C96.697540,348.954254 100.042847,352.074585 106.901291,352.441925 
M101.090645,319.584198 
	C107.493538,321.460907 112.027946,319.589600 112.919289,314.594574 
	C113.581123,310.885773 112.226624,307.810791 108.753090,306.438843 
	C105.185745,305.029877 101.401672,305.143921 98.872635,308.660706 
	C96.088837,312.531769 96.842934,316.122070 101.090645,319.584198 
M112.986069,250.181808 
	C113.329903,246.005692 111.728348,243.057663 107.542465,241.923340 
	C104.046661,240.976059 100.939590,241.673187 98.709618,244.728607 
	C96.204514,248.160980 97.131622,252.852386 100.678482,255.164993 
	C104.994354,257.978973 109.971405,256.262604 112.986069,250.181808 
M108.336464,287.958221 
	C111.796112,286.434631 113.890091,283.622253 112.809166,280.085602 
	C112.099319,277.763062 109.761421,274.644958 107.760063,274.322998 
	C104.979057,273.875549 101.148155,274.959503 99.073265,276.834106 
	C97.636574,278.132080 97.518356,282.214020 98.383057,284.441833 
	C99.893890,288.334412 103.629936,289.095428 108.336464,287.958221 
M95.413506,220.256668 
	C91.978081,216.850174 88.039612,216.404572 84.213875,219.152786 
	C81.038902,221.433517 80.254921,224.831833 82.185890,228.421921 
	C84.256157,232.270996 87.802414,232.834702 91.627739,231.981262 
	C96.361382,230.925171 97.996811,226.446335 95.413506,220.256668 
z"/>
<path fill="#755890" opacity="1.000000" stroke="none" 
	d="
M65.302353,251.170029 
	C65.251793,260.049377 65.201225,268.928741 65.261826,278.630585 
	C65.344589,280.703308 65.316193,281.953552 65.287796,283.203796 
	C65.244629,292.081421 65.201462,300.959045 65.270767,310.659485 
	C65.346336,312.733185 65.309425,313.984039 65.272522,315.234894 
	C65.277214,323.938965 65.281906,332.643066 65.554779,342.006165 
	C65.627106,344.220825 65.431244,345.776520 65.235382,347.332184 
	C64.656548,355.190125 68.970123,361.153137 72.985489,367.593567 
	C63.512455,365.487152 56.250324,356.649780 56.178833,345.844727 
	C55.945553,310.588196 55.770000,275.324402 56.273369,240.073441 
	C56.466537,226.545929 63.618000,216.570740 76.663536,211.049469 
	C75.397194,213.282349 73.752953,215.483459 72.145676,217.711243 
	C66.069954,226.132523 64.046738,235.569626 65.253586,246.600098 
	C65.342316,248.668365 65.322334,249.919189 65.302353,251.170029 
z"/>
<path fill="#F0D470" opacity="1.000000" stroke="none" 
	d="
M253.036133,44.900536 
	C251.329361,43.310688 249.867172,41.992107 248.701324,40.940750 
	C251.766144,38.146263 254.671066,35.497570 257.263519,33.133797 
	C259.486298,35.361843 262.260071,38.142162 264.969025,40.857521 
	C262.424103,43.051544 259.438171,45.625778 256.217621,48.402279 
	C255.660645,47.789623 254.470688,46.480717 253.036133,44.900536 
z"/>
<path fill="#F3D672" opacity="1.000000" stroke="none" 
	d="
M95.300804,110.770981 
	C95.601387,112.123611 96.106094,113.640717 95.565598,114.296967 
	C93.581978,116.705414 91.251099,118.827858 89.250191,120.855972 
	C86.255936,117.876900 83.394333,115.029808 81.070686,112.717949 
	C83.519211,110.456291 86.314529,107.874313 89.537598,104.897232 
	C90.781075,106.175941 92.903160,108.358162 95.300804,110.770981 
z"/>
<path fill="#F1D471" opacity="1.000000" stroke="none" 
	d="
M421.653809,157.395874 
	C419.944061,155.811417 418.472412,154.496552 417.371490,153.512924 
	C420.323029,150.555603 423.182159,147.690872 425.449280,145.419342 
	C427.569824,147.574875 430.236328,150.285324 433.041656,153.136917 
	C430.613434,155.006226 427.411438,157.471207 424.209412,159.936203 
	C424.524200,160.397598 424.838959,160.859009 425.153717,161.320404 
	C424.066437,160.102097 422.979156,158.883789 421.653809,157.395874 
z"/>
<path fill="#040305" opacity="1.000000" stroke="none" 
	d="
M65.520180,251.477448 
	C65.322334,249.919189 65.342316,248.668365 65.331100,247.109467 
	C66.740257,245.268448 67.905907,243.109634 69.677742,242.331955 
	C73.446861,240.677643 77.271431,241.216690 79.764336,244.913132 
	C81.986549,248.208237 81.485207,251.570129 78.694359,254.377426 
	C76.008110,257.079498 70.749290,257.123535 67.803551,254.535889 
	C66.960243,253.795105 66.418190,252.711365 65.520180,251.477448 
z"/>
<path fill="#050406" opacity="1.000000" stroke="none" 
	d="
M106.534569,352.545563 
	C100.042847,352.074585 96.697540,348.954254 97.282555,344.361420 
	C97.835526,340.020020 101.540092,337.356934 106.331284,337.873138 
	C110.122894,338.281616 112.510056,340.382568 112.948433,344.140594 
	C113.469101,348.603973 111.303658,351.412354 106.534569,352.545563 
z"/>
<path fill="#040306" opacity="1.000000" stroke="none" 
	d="
M65.496750,315.540039 
	C65.309425,313.984039 65.346336,312.733185 65.357666,311.176697 
	C67.096390,309.252991 68.600960,306.972992 70.680069,306.157135 
	C74.784752,304.546448 79.117073,306.735260 80.554977,310.398407 
	C81.923790,313.885529 80.353058,318.017761 77.018623,319.701660 
	C72.910324,321.776367 68.884445,320.402100 65.496750,315.540039 
z"/>
<path fill="#030305" opacity="1.000000" stroke="none" 
	d="
M65.508972,283.510071 
	C65.316193,281.953552 65.344589,280.703308 65.345421,279.146179 
	C67.078827,277.223145 68.580208,274.951874 70.655716,274.129395 
	C74.764526,272.501221 79.079575,274.649353 80.541664,278.308533 
	C81.924156,281.768524 80.352554,285.963959 77.052689,287.622406 
	C72.945389,289.686707 68.907234,288.329315 65.508972,283.510071 
z"/>
<path fill="#040306" opacity="1.000000" stroke="none" 
	d="
M65.473740,347.618439 
	C65.431244,345.776520 65.627106,344.220825 65.830032,342.314667 
	C67.458580,340.658295 68.888771,338.804352 70.740479,338.157959 
	C74.889252,336.709747 79.140236,338.841797 80.575493,342.520325 
	C81.919197,345.964233 80.299896,350.154846 76.990784,351.797272 
	C72.826675,353.864044 68.912704,352.513245 65.473740,347.618439 
z"/>
<path fill="#040306" opacity="1.000000" stroke="none" 
	d="
M100.782623,319.364380 
	C96.842934,316.122070 96.088837,312.531769 98.872635,308.660706 
	C101.401672,305.143921 105.185745,305.029877 108.753090,306.438843 
	C112.226624,307.810791 113.581123,310.885773 112.919289,314.594574 
	C112.027946,319.589600 107.493538,321.460907 100.782623,319.364380 
z"/>
<path fill="#040306" opacity="1.000000" stroke="none" 
	d="
M112.926514,250.571747 
	C109.971405,256.262604 104.994354,257.978973 100.678482,255.164993 
	C97.131622,252.852386 96.204514,248.160980 98.709618,244.728607 
	C100.939590,241.673187 104.046661,240.976059 107.542465,241.923340 
	C111.728348,243.057663 113.329903,246.005692 112.926514,250.571747 
z"/>
<path fill="#040306" opacity="1.000000" stroke="none" 
	d="
M107.968628,288.033020 
	C103.629936,289.095428 99.893890,288.334412 98.383057,284.441833 
	C97.518356,282.214020 97.636574,278.132080 99.073265,276.834106 
	C101.148155,274.959503 104.979057,273.875549 107.760063,274.322998 
	C109.761421,274.644958 112.099319,277.763062 112.809166,280.085602 
	C113.890091,283.622253 111.796112,286.434631 107.968628,288.033020 
z"/>
<path fill="#040306" opacity="1.000000" stroke="none" 
	d="
M95.642471,220.572357 
	C97.996811,226.446335 96.361382,230.925171 91.627739,231.981262 
	C87.802414,232.834702 84.256157,232.270996 82.185890,228.421921 
	C80.254921,224.831833 81.038902,221.433517 84.213875,219.152786 
	C88.039612,216.404572 91.978081,216.850174 95.642471,220.572357 
z"/>
</svg>