<svg version="1.1" id="Layer_1" xmlns="http://www.w3.org/2000/svg" xmlns:xlink="http://www.w3.org/1999/xlink" x="0px" y="0px"
	 width="100%" viewBox="0 0 500 500" enable-background="new 0 0 500 500" xml:space="preserve">
<path fill="#00000000" opacity="1.000000" stroke="none" 
	d="
M111.000000,501.000000 
	C74.341873,501.000000 37.683754,501.000000 1.019222,501.000000 
	C1.012815,334.380707 1.012815,167.761414 1.012815,1.071063 
	C167.580429,1.071063 334.160889,1.071063 500.870667,1.071063 
	C500.870667,167.666611 500.870667,334.333282 500.872955,501.000000 
	C419.894196,501.000000 338.913116,501.000000 257.496399,500.766907 
	C257.060760,500.533813 257.082855,500.064240 257.357635,499.856720 
	C275.456818,465.918243 293.298279,432.196289 311.061768,398.433289 
	C312.089050,396.480774 312.482635,394.194885 313.284760,391.868683 
	C313.274170,391.112152 313.149902,390.551086 313.098846,389.543060 
	C312.962341,386.399597 312.752655,383.703064 312.603607,380.691193 
	C312.460999,379.576477 312.257721,378.777130 312.137054,377.537842 
	C311.994110,374.734131 311.768555,372.370361 311.603638,369.691193 
	C311.460999,368.576477 311.257721,367.777130 311.137054,366.537476 
	C310.981049,363.733765 310.742401,361.370361 310.579346,358.696533 
	C310.442627,357.588348 310.230347,356.790527 310.114014,355.553772 
	C309.974579,352.745514 309.739197,350.376221 309.579346,347.696533 
	C309.442657,346.588348 309.230347,345.790527 309.114014,344.553772 
	C308.974609,341.745514 308.739197,339.376221 308.579346,336.696533 
	C308.442657,335.588348 308.230347,334.790527 308.114014,333.552673 
	C307.949768,330.743774 307.689606,328.374939 307.533203,325.739044 
	C307.464325,324.964996 307.291718,324.458069 307.179565,323.503296 
	C306.969818,320.372345 306.699615,317.689240 306.533173,314.739044 
	C306.464294,313.965027 306.291687,313.458069 306.179535,312.503296 
	C305.969818,309.372345 305.699646,306.689240 305.533203,303.739014 
	C305.464264,302.964996 305.291626,302.458038 305.179626,301.510071 
	C305.020020,298.714691 304.799774,296.360352 304.626312,293.592834 
	C304.078430,287.786133 303.483734,282.392639 302.942535,276.581665 
	C302.857178,274.778076 302.718323,273.392059 302.626892,271.686096 
	C302.478943,270.565216 302.283569,269.764313 302.159119,268.522644 
	C302.001038,265.723450 301.772034,263.365021 301.603638,260.691193 
	C301.461548,259.576202 301.258789,258.776611 301.130981,257.601685 
	C296.481140,242.389023 278.892181,236.615814 265.597778,245.719727 
	C264.887634,246.208588 264.466492,246.611328 263.768738,247.067383 
	C263.233154,247.381805 262.974213,247.642929 262.614624,247.852600 
	C262.513947,247.801147 262.311737,247.906982 262.193665,247.528381 
	C260.128448,236.782913 255.412781,228.011536 246.768204,221.757828 
	C234.515884,212.894150 220.767761,211.868759 206.141235,214.979568 
	C203.318192,202.518524 196.202927,194.099899 183.881714,191.089035 
	C172.651978,188.344879 161.847672,190.036789 151.520416,195.834045 
	C150.918137,195.831619 150.573547,195.867844 150.045593,195.610321 
	C139.315231,187.738617 127.638817,184.559723 114.657494,185.885864 
	C107.881546,186.578079 102.312332,188.494217 98.980309,195.212769 
	C96.688164,199.834564 93.350067,203.937607 90.080811,208.874527 
	C88.911407,200.209793 88.399025,192.435394 86.734344,184.916092 
	C83.385460,169.789307 77.242813,156.199768 62.977684,147.529343 
	C63.679825,142.011871 64.642212,136.933777 64.993385,131.813782 
	C65.121315,129.948608 64.366653,127.267319 63.025715,126.194824 
	C58.520187,122.591232 50.497868,125.524208 48.992649,131.027313 
	C42.245514,155.695007 35.623138,180.397507 28.711338,205.018814 
	C27.617617,208.914902 27.256487,212.392944 29.047726,216.329575 
	C26.614721,222.917145 24.174997,229.107758 22.071449,235.410568 
	C21.362988,237.533340 21.062712,239.994614 21.329266,242.210556 
	C26.416471,284.502014 31.608522,326.780884 36.822586,369.057007 
	C37.021404,370.669037 37.342762,372.409302 38.136734,373.783783 
	C62.436890,415.851318 86.803444,457.880463 111.150558,500.191223 
	C111.094269,500.644562 111.047134,500.822296 111.000000,501.000000 
z"/>
<path fill="#E07472" opacity="1.000000" stroke="none" 
	d="
M111.468658,501.000000 
	C111.047134,500.822296 111.094269,500.644562 111.608513,500.201599 
	C160.411362,499.979004 208.747116,500.021606 257.082855,500.064209 
	C257.082855,500.064240 257.060760,500.533813 257.030396,500.766907 
	C208.645767,501.000000 160.291550,501.000000 111.468658,501.000000 
z"/>
<path fill="#DEA47E" opacity="1.000000" stroke="none" 
	d="
M257.357635,499.856689 
	C208.747116,500.021606 160.411362,499.979004 111.617661,499.925964 
	C86.803444,457.880463 62.436890,415.851318 38.136734,373.783783 
	C37.342762,372.409302 37.021404,370.669037 36.822586,369.057007 
	C31.608522,326.780884 26.416471,284.502014 21.329266,242.210556 
	C21.062712,239.994614 21.362988,237.533340 22.071449,235.410568 
	C24.174997,229.107758 26.614721,222.917145 29.326668,216.510620 
	C30.446299,217.028809 31.177567,217.703979 31.875864,218.411697 
	C37.475784,224.087036 51.536053,222.388474 52.827442,211.076492 
	C53.876755,201.884964 55.515556,192.757675 57.004768,183.620148 
	C58.944004,171.721390 60.993801,159.840637 62.996017,147.952148 
	C77.242813,156.199768 83.385460,169.789307 86.734344,184.916092 
	C88.399025,192.435394 88.911407,200.209793 90.080811,208.874527 
	C93.350067,203.937607 96.688164,199.834564 98.980309,195.212769 
	C102.312332,188.494217 107.881546,186.578079 114.657494,185.885864 
	C127.638817,184.559723 139.315231,187.738617 150.019653,195.993896 
	C151.969131,202.665924 153.761185,208.660599 155.553253,214.655289 
	C156.053894,214.503159 156.554550,214.351044 157.055206,214.198929 
	C155.296173,208.090179 153.537140,201.981445 151.778122,195.872696 
	C161.847672,190.036789 172.651978,188.344879 183.881714,191.089035 
	C196.202927,194.099899 203.318192,202.518524 206.141235,214.979568 
	C220.767761,211.868759 234.515884,212.894150 246.768204,221.757828 
	C255.412781,228.011536 260.128448,236.782913 261.865845,247.776810 
	C259.715576,267.302063 257.774963,286.200287 255.579498,305.369995 
	C255.216370,310.094360 255.108124,314.547180 255.171265,319.228821 
	C255.893463,318.970917 256.444275,318.484222 256.996643,317.535217 
	C257.014343,313.102539 257.030518,309.132172 257.175659,304.763367 
	C258.528015,292.918762 259.825073,281.479919 260.948151,270.023987 
	C261.669708,262.663666 262.135071,255.278229 262.715271,247.904053 
	C262.974213,247.642929 263.233154,247.381805 264.086060,247.026581 
	C265.082245,246.499527 265.484497,246.066559 265.886749,245.633606 
	C278.892181,236.615814 296.481140,242.389023 300.879395,257.771973 
	C300.882904,259.213867 301.212952,260.110199 301.542999,261.006561 
	C301.772034,263.365021 302.001038,265.723450 301.902405,268.692688 
	C301.909698,270.204346 302.244568,271.105164 302.579437,272.006012 
	C302.718323,273.392059 302.857178,274.778076 302.577576,276.664673 
	C298.479584,286.961273 298.954590,297.139374 297.993713,307.185425 
	C298.540497,307.243500 299.087250,307.301575 299.634003,307.359680 
	C300.249847,302.041443 300.865692,296.723206 301.514801,291.117615 
	C302.791260,292.320648 303.685364,293.163361 304.579498,294.006042 
	C304.799774,296.360352 305.020020,298.714691 304.949341,301.637024 
	C304.915436,302.805389 305.172424,303.405762 305.429443,304.006134 
	C305.699646,306.689240 305.969818,309.372345 305.949280,312.630249 
	C305.915466,313.805389 306.172455,314.405762 306.429443,315.006134 
	C306.699615,317.689240 306.969818,320.372345 306.949280,323.630249 
	C306.915497,324.805389 307.172485,325.405762 307.429443,326.006134 
	C307.689606,328.374939 307.949768,330.743774 307.868408,333.723389 
	C307.852539,335.225128 308.178162,336.116028 308.503784,337.006927 
	C308.739197,339.376221 308.974609,341.745514 308.868469,344.724518 
	C308.852539,346.225128 309.178162,347.116028 309.503784,348.006927 
	C309.739197,350.376221 309.974579,352.745514 309.868469,355.724518 
	C309.852539,357.225128 310.178162,358.116028 310.503784,359.006927 
	C310.742401,361.370361 310.981049,363.733765 310.885712,366.707825 
	C310.882141,368.214508 311.212555,369.110535 311.542969,370.006561 
	C311.768555,372.370361 311.994110,374.734131 311.885712,377.708191 
	C311.882172,379.214508 312.212555,380.110535 312.542969,381.006561 
	C312.752655,383.703064 312.962341,386.399597 312.863220,389.701477 
	C312.759979,390.892609 312.965546,391.478363 313.171112,392.064148 
	C312.482635,394.194885 312.089050,396.480774 311.061768,398.433289 
	C293.298279,432.196289 275.456818,465.918243 257.357635,499.856689 
M245.151749,383.785492 
	C244.711441,384.125702 244.271118,384.465942 243.251251,384.981506 
	C242.714935,385.551422 242.178619,386.121307 240.985397,386.782684 
	C240.335693,386.916779 239.685989,387.050873 238.942917,386.228119 
	C238.932068,371.261475 239.000931,356.293823 238.807648,341.329529 
	C238.783966,339.496918 237.870117,336.875092 236.491211,335.996918 
	C229.923645,331.814148 222.805283,331.530914 215.556839,334.334717 
	C212.290115,335.598328 210.754074,337.595245 210.809494,341.473083 
	C211.009003,355.434723 210.781113,369.402527 210.157471,383.136627 
	C209.575928,382.981171 208.994385,382.825684 208.209335,382.148010 
	C207.858337,381.721069 207.507339,381.294128 206.966202,380.137451 
	C203.039230,369.874908 201.427414,359.242950 201.966812,347.638489 
	C201.981369,347.424713 201.995941,347.210968 202.340851,346.821198 
	C202.403305,346.714569 202.543594,346.548889 202.515030,346.511230 
	C202.372803,346.323700 202.186157,346.169861 202.326233,345.266876 
	C202.542999,342.819427 202.759766,340.372009 202.954483,336.998657 
	C202.927658,331.375885 202.900833,325.753143 202.942703,320.058716 
	C202.942703,320.058716 203.010529,319.986206 203.459824,319.701843 
	C203.311523,319.136414 203.163208,318.571014 203.257309,317.415833 
	C203.238983,316.313995 203.220673,315.212128 203.166306,313.244781 
	C203.407501,306.176697 203.648697,299.108582 204.384567,291.747620 
	C204.222839,291.152771 204.061111,290.557953 203.877289,289.492889 
	C203.877289,289.492889 203.942505,289.026703 204.539734,288.500885 
	C204.675232,286.609955 204.810715,284.718994 204.934036,281.913147 
	C204.918976,275.955750 204.903915,269.998352 205.383911,263.748077 
	C205.222214,263.153015 205.060516,262.557922 204.868378,261.509216 
	C204.868378,261.509216 204.921402,261.057678 205.522812,260.524506 
	C205.663956,258.625702 205.805084,256.726898 205.934418,253.913177 
	C205.919235,247.955765 205.904053,241.998367 206.383896,235.748062 
	C206.222198,235.153030 206.060501,234.557999 205.875977,233.497437 
	C205.875977,233.497437 205.912506,233.032791 206.520920,232.499603 
	C206.280655,227.203247 206.040390,221.906906 205.800110,216.610550 
	C205.227219,216.634979 204.654312,216.659393 204.081406,216.683823 
	C204.081406,222.180099 204.081406,227.676376 204.115677,234.074478 
	C204.040329,240.070007 203.964996,246.065552 203.349930,252.637741 
	C203.256866,255.483322 203.163803,258.328888 203.116974,262.088623 
	C203.038605,268.080811 202.960236,274.072968 202.347519,280.635651 
	C202.255325,283.149109 202.163147,285.662537 202.117905,289.090546 
	C202.007462,297.438110 201.897018,305.785675 201.299347,314.680206 
	C201.221146,316.507019 201.142929,318.333801 201.065414,321.074890 
	C200.998779,326.075043 200.932159,331.075226 200.330048,336.670563 
	C200.249405,340.522461 200.168747,344.374359 200.107346,349.123718 
	C199.729935,354.315704 199.352524,359.507690 198.983093,364.589996 
	C199.205597,364.495636 199.931107,364.188049 200.812683,363.814240 
	C201.267929,366.097504 201.469360,368.432465 202.219681,370.575165 
	C203.495789,374.219452 205.117340,377.742737 206.782379,381.846588 
	C207.124252,382.286133 207.466125,382.725708 208.129028,383.710602 
	C209.006882,384.277405 209.884720,384.844177 210.866180,386.289673 
	C210.881973,393.622467 210.905258,400.955231 210.911713,408.288025 
	C210.920181,417.908417 213.398956,420.668335 223.125641,420.866852 
	C226.533035,420.936371 230.001572,420.071899 233.372711,419.321747 
	C237.389343,418.427917 238.961960,415.605713 238.936066,411.576416 
	C238.887878,404.079193 238.998657,396.580963 239.663910,388.982483 
	C240.501953,388.384155 241.339996,387.785828 242.742279,387.036499 
	C243.271790,386.495270 243.801285,385.954071 244.859543,385.204865 
	C245.282990,384.841400 245.706451,384.477936 246.506805,383.873413 
	C246.466583,383.633606 246.426361,383.393829 246.386124,383.154022 
	C246.163528,383.340424 245.940918,383.526825 245.151749,383.785492 
M290.137573,356.762512 
	C289.771973,356.832153 289.406342,356.901794 288.948914,356.041412 
	C288.936401,346.899811 289.101593,337.751526 288.759338,328.622284 
	C288.692017,326.826477 287.074097,324.303528 285.472412,323.487305 
	C278.745239,320.059113 271.760223,320.293182 264.750641,323.100281 
	C261.875061,324.251862 260.793427,325.923676 260.836517,329.091553 
	C260.972137,339.056854 260.767944,349.026794 260.277374,359.019043 
	C260.277374,359.019043 259.859344,359.063049 259.267365,358.841583 
	C258.633209,358.638580 257.999054,358.435547 257.364899,358.232544 
	C257.211273,358.557190 257.057617,358.881836 256.903992,359.206482 
	C258.184418,359.903198 259.464844,360.599915 260.859894,362.188629 
	C260.877625,369.352661 261.202332,376.533478 260.812073,383.675201 
	C260.520935,389.003326 262.784149,392.518280 267.611633,393.019562 
	C273.058105,393.585114 278.727478,393.101593 284.166534,392.236115 
	C287.507721,391.704468 289.044373,388.812683 288.975891,385.057861 
	C288.818054,376.399567 289.000549,367.735016 289.590454,358.856812 
	C290.109131,358.282288 290.627777,357.707764 291.564056,356.902679 
	C291.825409,356.705383 292.016907,356.454681 292.736633,355.756683 
	C297.513031,349.527771 295.444122,341.903870 297.493835,334.548737 
	C298.137238,328.100647 298.823181,321.656342 299.397797,315.202148 
	C299.567780,313.292847 299.424011,311.355621 299.424011,309.431213 
	C298.727417,309.444275 298.030853,309.457306 297.334259,309.470367 
	C296.574219,318.022003 295.814178,326.573608 295.071320,335.988403 
	C293.942444,342.551697 292.813599,349.114960 291.285645,355.945648 
	C291.034943,356.154907 290.837860,356.406219 290.137573,356.762512 
M196.183975,404.166687 
	C195.845490,403.729889 195.507004,403.293091 195.001770,402.251648 
	C194.131882,401.394318 193.261993,400.537018 192.167145,399.118286 
	C191.507050,398.357422 190.846970,397.596527 190.071243,395.926086 
	C190.115356,388.671295 190.159470,381.416473 190.795761,373.988495 
	C191.638687,373.127289 192.481613,372.266083 193.845703,371.201477 
	C194.277008,370.855713 194.708328,370.509979 195.700211,369.802124 
	C196.466263,368.756470 197.232330,367.710846 197.998383,366.665192 
	C197.610275,366.410492 197.222168,366.155792 196.834061,365.901123 
	C196.106094,367.116180 195.378113,368.331268 194.119125,369.732941 
	C193.687973,370.088287 193.256821,370.443634 192.257568,370.964539 
	C191.570114,371.346436 190.882660,371.728333 190.067795,371.167023 
	C190.048538,357.870361 190.025406,344.573700 190.011490,331.277039 
	C190.003296,323.451416 188.161728,320.953430 180.262238,320.202606 
	C176.067612,319.803925 171.691055,320.510925 167.488312,321.244263 
	C163.650009,321.914062 161.835526,324.251862 161.900635,328.633209 
	C162.115417,343.085724 161.874695,357.545013 161.295303,372.033478 
	C161.124542,372.054474 160.953766,372.075470 160.158600,372.103760 
	C160.715118,373.073212 161.271637,374.042633 161.954330,375.940033 
	C161.971909,390.096344 161.899963,404.253937 162.104233,418.407562 
	C162.134659,420.515533 162.880005,423.198334 164.298828,424.595215 
	C169.235031,429.455048 183.330276,429.248047 188.055527,424.345154 
	C189.258698,423.096710 189.850235,420.831055 189.925552,419.000000 
	C190.199020,412.350037 190.134079,405.686157 190.631927,399.264862 
	C191.028305,399.563385 191.424698,399.861908 191.983170,400.767120 
	C192.858246,401.615387 193.733322,402.463623 194.795868,403.842102 
	C195.132324,404.284302 195.468781,404.726501 195.969025,405.747040 
	C196.463333,406.108215 196.957657,406.469421 197.451965,406.830627 
	C197.814880,406.428375 198.177795,406.026154 198.540710,405.623901 
	C197.819931,405.313446 197.099136,405.002960 196.183975,404.166687 
M94.867958,297.655365 
	C95.216194,298.215790 95.564430,298.776184 96.039696,300.126984 
	C96.383507,306.692230 96.727310,313.257446 97.042885,320.411652 
	C97.283798,320.900085 97.524712,321.388489 97.829865,322.824707 
	C97.891663,328.202332 97.953453,333.579987 98.004425,339.677795 
	C98.287827,340.756653 98.571220,341.835510 98.920212,343.716034 
	C101.140533,347.919250 103.360855,352.122467 105.790718,356.914642 
	C106.515732,357.656219 107.240746,358.397797 108.065620,360.054840 
	C108.081909,367.885620 108.096764,375.716400 108.114906,383.547180 
	C108.132149,390.987518 109.701553,393.393646 116.773376,394.579498 
	C120.627876,395.225830 124.807465,395.168365 128.642990,394.418518 
	C135.244949,393.127838 136.767548,390.770660 136.829468,383.966064 
	C136.923477,373.638641 136.981476,363.310822 137.693939,352.628204 
	C140.523453,348.850494 140.419540,344.828735 138.666611,340.666779 
	C138.091858,343.453217 137.517105,346.239685 136.847794,348.089142 
	C136.843582,337.127319 136.838242,326.165497 136.835526,315.203674 
	C136.833527,307.143433 136.372284,305.876221 128.393372,304.740234 
	C123.338127,304.020447 117.957153,305.070435 112.792503,305.814362 
	C109.189110,306.333466 107.965988,308.838898 108.019386,312.659332 
	C108.212006,326.439148 108.017799,340.224335 107.466454,354.218811 
	C106.986496,354.476990 106.506538,354.735199 105.575958,354.469788 
	C104.031013,350.698395 102.486069,346.927032 100.980080,342.382141 
	C100.630798,341.240112 100.281525,340.098114 99.935669,338.027161 
	C99.927467,332.755676 99.919258,327.484192 99.967690,321.403320 
	C99.948311,320.862427 99.928932,320.321564 99.731827,318.992065 
	C99.204437,311.966980 98.677040,304.941895 98.622528,297.500458 
	C98.747589,296.667389 98.872643,295.834290 98.999069,294.152435 
	C98.332611,292.101624 97.666153,290.050812 97.000076,287.103577 
	C97.333206,282.402435 97.666336,277.701324 97.999763,272.151550 
	C97.333275,270.101044 96.666786,268.050507 96.000023,265.104187 
	C96.004456,260.068268 96.008888,255.032333 96.342957,249.819260 
	C96.232422,249.547195 96.121887,249.275131 95.978638,248.403198 
	C95.957779,248.204025 95.936920,248.004868 95.896935,246.896942 
	C96.908737,233.984543 92.670036,222.056931 90.082832,209.819565 
	C89.558983,209.850067 89.035126,209.880569 88.511276,209.911087 
	C88.011589,212.275742 87.511894,214.640411 86.729187,217.714172 
	C83.034103,233.350403 79.242218,248.965378 75.795357,264.656128 
	C75.455009,266.205475 77.226349,268.218689 78.001038,269.998840 
	C78.001038,269.998840 77.987473,269.978729 77.847412,270.711792 
	C78.902390,272.145569 79.957367,273.579376 81.000259,274.999573 
	C81.000259,274.999573 80.989609,274.984711 80.867340,275.702026 
	C81.583496,276.473297 82.299652,277.244537 83.000679,277.998993 
	C83.000679,277.998993 82.988014,277.980225 82.857491,278.723877 
	C84.576279,281.153809 86.295074,283.583740 88.000435,285.999298 
	C88.000435,285.999298 87.989082,285.983185 87.854958,286.703308 
	C88.575760,287.474426 89.296570,288.245544 90.000969,288.998627 
	C90.000969,288.998627 89.987717,288.978210 89.842896,289.711609 
	C90.899872,291.145905 91.956848,292.580231 93.000351,293.999817 
	C93.000351,293.999817 92.988106,293.983948 92.873611,294.704224 
	C93.586784,295.475861 94.299957,296.247498 95.003960,296.996613 
	C95.003960,296.996613 94.983849,296.982819 94.867958,297.655365 
M203.822235,416.893280 
	C204.284363,417.554321 204.746490,418.215363 205.208618,418.876404 
	C205.454483,418.699127 205.700363,418.521881 205.946243,418.344604 
	C205.354568,417.513641 204.762878,416.682709 204.034271,415.189575 
	C202.756042,413.396423 201.477814,411.603241 200.023712,409.235687 
	C199.558487,408.913177 199.093262,408.590668 198.628021,408.268188 
	C198.986877,408.957153 199.345718,409.646118 199.837296,410.999237 
	C201.116776,412.754547 202.396255,414.509888 203.822235,416.893280 
M253.361008,328.081116 
	C252.907547,328.720734 252.454086,329.360382 251.999908,330.888123 
	C251.999405,333.258087 251.998917,335.628052 251.508240,338.333313 
	C251.338837,338.888885 251.169418,339.444427 250.999786,340.897156 
	C251.020905,343.318542 251.042038,345.739929 251.097534,349.038788 
	C250.044022,359.910767 248.990524,370.782745 247.937027,381.654724 
	C249.041946,380.216644 249.836685,378.609528 250.059296,376.926727 
	C250.820557,371.172089 251.388123,365.391632 252.013123,359.619263 
	C252.197830,357.913483 251.563049,355.582275 254.979568,356.652618 
	C255.216278,356.611542 255.453003,356.570465 255.689713,356.529419 
	C255.501907,356.315491 255.314102,356.101593 254.756500,355.249603 
	C254.115128,352.869904 253.473755,350.490234 253.440430,347.618286 
	C253.293015,345.079254 253.145599,342.540253 253.640259,339.917542 
	C254.091827,339.277557 254.543396,338.637573 254.998093,337.157623 
	C254.664978,334.772156 254.331879,332.386688 254.640762,329.917480 
	C255.092102,329.277496 255.543457,328.637543 255.997757,327.169128 
	C255.997757,325.384644 255.997757,323.600189 255.997757,321.815704 
	C255.450790,321.832550 254.903809,321.849396 254.356842,321.866272 
	C254.238907,323.909241 254.120987,325.952240 253.361008,328.081116 
M156.000168,224.653198 
	C156.000122,225.087936 156.000061,225.522690 155.245056,226.186905 
	C154.835846,227.510513 154.198196,228.809738 154.053879,230.161621 
	C152.989441,240.132507 152.195251,250.134964 150.976517,260.085907 
	C149.831467,269.435242 148.270737,278.733643 146.429047,288.410309 
	C146.299118,288.975403 146.169174,289.540466 146.029190,290.914490 
	C143.990753,305.627411 141.952316,320.340332 139.419373,335.490417 
	C139.419373,336.505951 139.419373,337.521484 139.419373,338.537018 
	C139.839142,338.580505 140.258896,338.623993 140.678665,338.667480 
	C141.102753,337.400116 141.526855,336.132721 141.925659,333.986206 
	C143.274658,324.323425 144.623642,314.660645 146.650726,305.101837 
	C147.381790,306.370331 148.112854,307.638824 148.887115,309.846497 
	C149.286148,318.157776 149.685196,326.469025 150.026703,335.748352 
	C150.026703,339.628113 150.026703,343.507904 150.026703,347.387665 
	C150.638596,347.379028 151.250473,347.370422 151.862366,347.361786 
	C151.862366,343.158325 151.862366,338.954895 151.858154,333.862335 
	C151.525253,325.703461 151.192337,317.544556 150.893799,308.543945 
	C150.253006,304.023010 149.612213,299.502075 148.960205,294.262238 
	C148.617111,292.898163 148.274033,291.534119 147.976791,289.598083 
	C147.982574,289.406921 147.988342,289.215759 148.616837,288.513733 
	C149.638916,281.815887 150.790222,275.134674 151.656219,268.416718 
	C153.474167,254.313934 155.142136,240.191833 157.403488,225.736389 
	C157.602127,225.157791 157.800751,224.579193 158.000275,223.128677 
	C157.846359,220.948929 157.692444,218.769196 157.538528,216.589447 
	C157.025894,216.626663 156.513245,216.663879 156.000610,216.701096 
	C156.000610,219.134262 156.000610,221.567444 156.000168,224.653198 
M153.978409,354.389923 
	C153.453384,352.760406 152.928360,351.130859 152.403336,349.501343 
	C151.824692,349.647522 151.246048,349.793671 150.667404,349.939850 
	C151.098679,352.286072 151.529953,354.632263 151.980713,357.845490 
	C152.623398,361.562653 153.266083,365.279816 153.908768,368.996979 
	C154.289932,368.905823 154.671097,368.814667 155.052246,368.723511 
	C154.680893,364.212158 154.309525,359.700775 153.978409,354.389923 
M212.210205,432.702332 
	C220.426880,449.507751 225.739548,467.263947 229.511978,485.584900 
	C228.941315,478.627533 228.095230,471.694550 225.913422,465.211121 
	C222.128082,453.962585 217.516388,442.992126 213.115921,431.202087 
	C212.401627,429.858765 211.687317,428.515472 210.973022,427.172150 
	C210.622238,427.375854 210.271469,427.579529 209.920700,427.783203 
	C210.659409,429.186127 211.398117,430.589020 212.210205,432.702332 
M132.005859,273.002075 
	C128.362854,273.001404 124.718544,272.939789 121.077202,273.017548 
	C117.593117,273.091888 114.112114,273.311157 110.629761,273.466736 
	C110.675591,274.112640 110.721420,274.758514 110.767250,275.404419 
	C118.970833,275.404419 127.174423,275.404419 135.378006,275.404419 
	C135.511566,275.124115 135.645142,274.843811 135.778702,274.563507 
	C134.812332,274.048309 133.845978,273.533081 132.005859,273.002075 
M226.565277,304.000000 
	C223.570969,304.000000 220.576675,304.000000 217.582367,304.000000 
	C223.799988,307.829987 237.255371,307.837402 243.125122,304.000000 
	C237.930023,304.000000 232.734909,304.000000 226.565277,304.000000 
M49.336975,248.814270 
	C41.798870,246.116165 34.260761,243.418076 26.722656,240.719971 
	C26.555817,241.190231 26.388977,241.660492 26.222137,242.130737 
	C34.478252,245.155060 42.734367,248.179398 50.990486,251.203720 
	C51.129616,250.899780 51.268745,250.595840 51.407875,250.291916 
	C50.933151,249.884369 50.458431,249.476837 49.336975,248.814270 
M285.838135,304.020905 
	C278.847504,304.389343 271.736359,303.128143 264.864258,305.362854 
	C271.806366,305.978607 278.722504,306.005524 285.636627,305.899963 
	C285.986420,305.894653 286.318756,304.746277 285.838135,304.020905 
M185.633911,297.955353 
	C178.373077,297.955353 171.112228,297.955353 163.851395,297.955353 
	C163.850586,298.295044 163.849777,298.634766 163.848969,298.974457 
	C171.397888,298.974457 178.946808,298.974457 186.495728,298.974457 
	C186.468582,298.657715 186.441437,298.341003 185.633911,297.955353 
M209.817810,425.286102 
	C208.920517,423.523956 208.023209,421.761810 207.125916,419.999664 
	C206.676163,420.267700 206.226410,420.535767 205.776672,420.803833 
	C206.981781,422.472900 208.186905,424.141968 209.817810,425.286102 
M157.284058,370.931915 
	C157.182877,370.649109 157.081696,370.366333 156.980515,370.083527 
	C156.909836,370.349396 156.839142,370.615234 157.284058,370.931915 
z"/>
/*POLLICE
<path fill="#b81675" opacity="1.000000" stroke="none" 
	d="
M62.977680,147.529343 
	C60.993801,159.840637 58.944004,171.721390 57.004768,183.620148 
	C55.515556,192.757675 53.876755,201.884964 52.827442,211.076492 
	C51.536053,222.388474 37.475784,224.087036 31.875864,218.411697 
	C31.177567,217.703979 30.446299,217.028809 29.451359,216.157532 
	C27.256487,212.392944 27.617617,208.914902 28.711338,205.018814 
	C35.623138,180.397507 42.245514,155.695007 48.992649,131.027313 
	C50.497868,125.524208 58.520187,122.591232 63.025715,126.194824 
	C64.366653,127.267319 65.121315,129.948608 64.993385,131.813782 
	C64.642212,136.933777 63.679825,142.011871 62.977680,147.529343 
M59.296463,140.946213 
	C59.970692,137.294205 60.644920,133.642197 61.315144,130.011871 
	C55.623966,128.961060 55.300404,129.010559 55.212128,133.314240 
	C55.039295,141.740372 55.161358,150.172531 55.161358,158.602203 
	C55.353790,158.635239 55.546223,158.668274 55.738651,158.701309 
	C56.857388,153.060150 57.976120,147.419006 59.296463,140.946213 
z"/>
<path fill="#00000000" opacity="1.000000" stroke="none" 
	d="
M255.834381,305.098480 
	C257.774963,286.200287 259.715576,267.302063 261.983948,248.155426 
	C262.311737,247.906982 262.513947,247.801147 262.614624,247.852600 
	C262.135071,255.278229 261.669708,262.663666 260.948151,270.023987 
	C259.825073,281.479919 258.528015,292.918762 256.872894,304.737671 
	C256.238831,305.106506 256.036591,305.102509 255.834381,305.098480 
z"/>
<path fill="#00000000" opacity="1.000000" stroke="none" 
	d="
M304.626312,293.592834 
	C303.685364,293.163361 302.791260,292.320648 301.514801,291.117615 
	C300.865692,296.723206 300.249847,302.041443 299.634003,307.359680 
	C299.087250,307.301575 298.540497,307.243500 297.993713,307.185425 
	C298.954590,297.139374 298.479584,286.961273 302.524048,277.082214 
	C303.483734,282.392639 304.078430,287.786133 304.626312,293.592834 
z"/>
<path fill="#00000000" opacity="1.000000" stroke="none" 
	d="
M151.520416,195.834045 
	C153.537140,201.981445 155.296173,208.090179 157.055206,214.198929 
	C156.554550,214.351044 156.053894,214.503159 155.553253,214.655289 
	C153.761185,208.660599 151.969131,202.665924 150.203033,196.287659 
	C150.573547,195.867844 150.918137,195.831619 151.520416,195.834045 
z"/>
<path fill="#00000000" opacity="1.000000" stroke="none" 
	d="
M309.579346,347.696533 
	C309.178162,347.116028 308.852539,346.225128 308.772491,345.163483 
	C309.230347,345.790527 309.442657,346.588348 309.579346,347.696533 
z"/>
<path fill="#00000000" opacity="1.000000" stroke="none" 
	d="
M311.603638,369.691193 
	C311.212555,369.110535 310.882141,368.214508 310.803101,367.148132 
	C311.257721,367.777130 311.460999,368.576477 311.603638,369.691193 
z"/>
<path fill="#00000000" opacity="1.000000" stroke="none" 
	d="
M302.626892,271.686096 
	C302.244568,271.105164 301.909698,270.204346 301.831482,269.133423 
	C302.283569,269.764313 302.478943,270.565216 302.626892,271.686096 
z"/>
<path fill="#00000000" opacity="1.000000" stroke="none" 
	d="
M301.603638,260.691193 
	C301.212952,260.110199 300.882904,259.213867 300.804443,258.147247 
	C301.258789,258.776611 301.461548,259.576202 301.603638,260.691193 
z"/>
<path fill="#00000000" opacity="1.000000" stroke="none" 
	d="
M310.579346,358.696533 
	C310.178162,358.116028 309.852539,357.225128 309.772491,356.163483 
	C310.230347,356.790527 310.442627,357.588348 310.579346,358.696533 
z"/>
<path fill="#00000000" opacity="1.000000" stroke="none" 
	d="
M308.579346,336.696533 
	C308.178162,336.116028 307.852539,335.225128 307.772491,334.163483 
	C308.230347,334.790527 308.442657,335.588348 308.579346,336.696533 
z"/>
<path fill="#00000000" opacity="1.000000" stroke="none" 
	d="
M312.603638,380.691193 
	C312.212555,380.110535 311.882172,379.214508 311.803101,378.148132 
	C312.257721,378.777130 312.460999,379.576477 312.603638,380.691193 
z"/>
<path fill="#00000000" opacity="1.000000" stroke="none" 
	d="
M313.284760,391.868683 
	C312.965546,391.478363 312.759979,390.892609 312.790039,390.148438 
	C313.149902,390.551086 313.274170,391.112152 313.284760,391.868683 
z"/>
<path fill="#00000000" opacity="1.000000" stroke="none" 
	d="
M305.533173,303.739014 
	C305.172424,303.405762 304.915436,302.805389 304.888702,302.078064 
	C305.291626,302.458038 305.464264,302.964996 305.533173,303.739014 
z"/>
<path fill="#00000000" opacity="1.000000" stroke="none" 
	d="
M307.533203,325.739044 
	C307.172485,325.405762 306.915497,324.805389 306.888794,324.078064 
	C307.291718,324.458069 307.464325,324.964996 307.533203,325.739044 
z"/>
<path fill="#00000000" opacity="1.000000" stroke="none" 
	d="
M306.533173,314.739044 
	C306.172455,314.405762 305.915466,313.805389 305.888794,313.078064 
	C306.291687,313.458069 306.464294,313.965027 306.533173,314.739044 
z"/>
<path fill="#00000000" opacity="1.000000" stroke="none" 
	d="
M265.597778,245.719711 
	C265.484497,246.066559 265.082245,246.499527 264.362671,246.973282 
	C264.466492,246.611328 264.887634,246.208588 265.597778,245.719711 
z"/>
/MEDIO
<path fill="#b81675" opacity="1.000000" stroke="none" 
	d="
M190.203583,374.161682 
	C190.159470,381.416473 190.115356,388.671295 190.063660,396.745667 
	C190.102966,398.052673 190.149872,398.540100 190.196793,399.027527 
	C190.134079,405.686157 190.199020,412.350037 189.925552,419.000000 
	C189.850235,420.831055 189.258698,423.096710 188.055527,424.345154 
	C183.330276,429.248047 169.235031,429.455048 164.298828,424.595215 
	C162.880005,423.198334 162.134659,420.515533 162.104233,418.407562 
	C161.899963,404.253937 161.971909,390.096344 161.950623,375.142731 
	C161.907288,373.897339 161.867645,373.449219 161.869217,372.750366 
	C161.876587,372.333618 161.842743,372.167633 161.808884,372.001678 
	C161.874695,357.545013 162.115417,343.085724 161.900635,328.633209 
	C161.835526,324.251862 163.650009,321.914062 167.488312,321.244263 
	C171.691055,320.510925 176.067612,319.803925 180.262238,320.202606 
	C188.161728,320.953430 190.003296,323.451416 190.011490,331.277039 
	C190.025406,344.573700 190.048538,357.870361 190.072083,371.977570 
	C190.118759,373.245972 190.161179,373.703827 190.203583,374.161682 
M165.869339,403.770630 
	C165.869537,407.769440 165.862885,411.768250 165.871567,415.767059 
	C165.884064,421.527832 166.451569,422.092743 173.277054,422.616882 
	C171.032440,414.354797 168.843460,406.297455 166.654480,398.240112 
	C166.392242,398.290222 166.130020,398.340302 165.867783,398.390411 
	C165.867783,399.883942 165.867783,401.377472 165.869339,403.770630 
z"/>
INDICE
<path fill="#b81675" opacity="1.000000" stroke="none" 
	d="
M107.969681,354.007507 
	C108.017799,340.224335 108.212006,326.439148 108.019386,312.659332 
	C107.965988,308.838898 109.189110,306.333466 112.792503,305.814362 
	C117.957153,305.070435 123.338127,304.020447 128.393372,304.740234 
	C136.372284,305.876221 136.833527,307.143433 136.835526,315.203674 
	C136.838242,326.165497 136.843582,337.127319 136.855682,348.952454 
	C136.927307,350.871582 136.991043,351.927399 137.054779,352.983185 
	C136.981476,363.310822 136.923477,373.638641 136.829468,383.966064 
	C136.767548,390.770660 135.244949,393.127838 128.642990,394.418518 
	C124.807465,395.168365 120.627876,395.225830 116.773376,394.579498 
	C109.701553,393.393646 108.132149,390.987518 108.114906,383.547180 
	C108.096764,375.716400 108.081909,367.885620 108.071533,359.246918 
	C108.042747,357.969879 108.008057,357.500732 108.023087,356.654755 
	C108.038429,355.521088 108.004051,354.764313 107.969681,354.007507 
M111.706673,386.392975 
	C113.830399,387.458740 115.954132,388.524506 119.393303,390.250458 
	C116.845566,380.806580 114.697876,372.845581 112.550186,364.884613 
	C112.190521,364.909424 111.830856,364.934235 111.471191,364.959045 
	C111.471191,371.838409 111.471191,378.717773 111.706673,386.392975 
z"/>
ANULARE
<path fill="#b81675" opacity="1.000000" stroke="none" 
	d="
M239.043259,389.083130 
	C238.998657,396.580963 238.887878,404.079193 238.936066,411.576416 
	C238.961960,415.605713 237.389343,418.427917 233.372711,419.321747 
	C230.001572,420.071899 226.533035,420.936371 223.125641,420.866852 
	C213.398956,420.668335 210.920181,417.908417 210.911713,408.288025 
	C210.905258,400.955231 210.881973,393.622467 210.869263,385.503784 
	C210.819794,384.267914 210.767242,383.817963 210.714691,383.367981 
	C210.781113,369.402527 211.009003,355.434723 210.809494,341.473083 
	C210.754074,337.595245 212.290115,335.598328 215.556839,334.334717 
	C222.805283,331.530914 229.923645,331.814148 236.491211,335.996918 
	C237.870117,336.875092 238.783966,339.496918 238.807648,341.329529 
	C239.000931,356.293823 238.932068,371.261475 238.951263,387.020813 
	C238.987488,388.236694 239.015366,388.659912 239.043259,389.083130 
M214.399002,408.233856 
	C214.428101,414.866272 215.010773,415.498993 222.052109,416.198151 
	C219.876205,408.221222 217.733871,400.367371 215.591553,392.513519 
	C215.194275,392.549744 214.796997,392.585968 214.399719,392.622223 
	C214.399719,397.515411 214.399719,402.408630 214.399002,408.233856 
z"/>
MIGNOLO
<path fill="#b81675" opacity="1.000000" stroke="none" 
	d="
M289.044922,359.073029 
	C289.000549,367.735016 288.818054,376.399567 288.975891,385.057861 
	C289.044373,388.812683 287.507721,391.704468 284.166534,392.236115 
	C278.727478,393.101593 273.058105,393.585114 267.611633,393.019562 
	C262.784149,392.518280 260.520935,389.003326 260.812073,383.675201 
	C261.202332,376.533478 260.877625,369.352661 260.846313,361.379120 
	C260.796814,360.329834 260.760834,360.090027 260.765411,359.634766 
	C260.806000,359.419312 260.695312,358.994934 260.695312,358.994934 
	C260.767944,349.026794 260.972137,339.056854 260.836517,329.091553 
	C260.793427,325.923676 261.875061,324.251862 264.750641,323.100281 
	C271.760223,320.293182 278.745239,320.059113 285.472412,323.487305 
	C287.074097,324.303528 288.692017,326.826477 288.759338,328.622284 
	C289.101593,337.751526 288.936401,346.899811 288.949829,356.856049 
	C288.982178,358.138123 289.013550,358.605591 289.044922,359.073029 
M271.563599,388.557068 
	C269.397400,380.737823 267.231171,372.918579 265.064941,365.099335 
	C264.093201,371.841522 263.941803,378.328766 264.209595,384.798706 
	C264.269531,386.246490 265.485321,388.182892 266.737762,388.897644 
	C268.054749,389.649231 270.054169,389.205017 271.563599,388.557068 
z"/>
<path fill="#00000000" opacity="1.000000" stroke="none" 
	d="
M96.999695,288.000000 
	C97.666153,290.050812 98.332611,292.101624 98.728973,294.453186 
	C97.235924,294.860748 96.012962,294.967529 94.560349,294.935425 
	C93.883163,294.525696 93.435638,294.254822 92.988113,293.983948 
	C92.988106,293.983948 93.000351,293.999817 93.015076,293.661499 
	C92.015770,291.874878 91.001740,290.426544 89.987717,288.978210 
	C89.987717,288.978210 90.000969,288.998627 90.002701,288.679626 
	C89.332642,287.568146 88.660866,286.775665 87.989082,285.983185 
	C87.989082,285.983185 88.000435,285.999298 88.005463,285.650757 
	C86.336327,282.861542 84.662170,280.420898 82.988022,277.980225 
	C82.988014,277.980225 83.000679,277.998993 83.010933,277.677521 
	C82.343994,276.565613 81.666801,275.775146 80.989609,274.984711 
	C80.989609,274.984711 81.000259,274.999573 81.017929,274.659912 
	C80.019562,272.873077 79.003517,271.425903 77.987473,269.978729 
	C77.987473,269.978729 78.001038,269.998840 77.983246,269.617310 
	C77.860901,267.322418 77.312042,265.307678 77.721825,263.511658 
	C81.115730,248.636490 84.686966,233.801758 88.386826,218.827667 
	C88.787827,218.476852 88.908119,218.208908 88.922318,217.943710 
	C88.914642,217.990707 88.889030,217.898956 89.167542,217.933899 
	C89.632889,217.979218 89.819733,217.989563 90.068939,218.388382 
	C91.439613,228.470932 92.747917,238.165009 94.035797,248.340851 
	C94.010246,255.215057 94.005119,261.607513 94.020500,268.297760 
	C94.359711,269.064087 94.678421,269.532654 94.997200,270.469543 
	C94.998184,277.291901 94.999092,283.645966 95.038391,290.299072 
	C95.484657,290.917389 95.892532,291.236664 96.300400,291.555939 
	C96.532478,291.036469 96.764557,290.517029 96.997345,289.664642 
	C96.998611,288.887817 96.999153,288.443909 96.999695,288.000000 
z"/>
<path fill="#00000000" opacity="1.000000" stroke="none" 
	d="
M156.871674,226.077667 
	C155.142136,240.191833 153.474167,254.313934 151.656219,268.416718 
	C150.790222,275.134674 149.638916,281.815887 148.192993,288.536530 
	C147.477066,288.391052 147.184982,288.222748 146.892899,288.054474 
	C148.270737,278.733643 149.831467,269.435242 150.976517,260.085907 
	C152.195251,250.134964 152.989441,240.132507 154.053879,230.161621 
	C154.198196,228.809738 154.835846,227.510513 155.840271,226.103729 
	C156.435471,226.020538 156.871674,226.077667 156.871674,226.077667 
z"/>
<path fill="#00000000" opacity="1.000000" stroke="none" 
	d="
M213.251221,431.905060 
	C217.516388,442.992126 222.128082,453.962585 225.913422,465.211121 
	C228.095230,471.694550 228.941315,478.627533 229.511978,485.584900 
	C225.739548,467.263947 220.426880,449.507751 212.452377,432.333435 
	C212.880112,431.944702 213.065659,431.924866 213.251221,431.905060 
z"/>
<path fill="#00000000" opacity="1.000000" stroke="none" 
	d="
M139.913879,335.053253 
	C141.952316,320.340332 143.990753,305.627411 146.350113,290.480347 
	C147.091003,290.087494 147.510986,290.128784 147.930954,290.170044 
	C148.274033,291.534119 148.617111,292.898163 148.584198,294.663605 
	C147.463013,298.375946 146.717819,301.686890 145.972626,304.997864 
	C144.623642,314.660645 143.274658,324.323425 141.601715,334.479095 
	C140.823135,334.999054 140.368515,335.026154 139.913879,335.053253 
z"/>
<path fill="#00000000" opacity="1.000000" stroke="none" 
	d="
M88.204544,218.954788 
	C84.686966,233.801758 81.115730,248.636490 77.721825,263.511658 
	C77.312042,265.307678 77.860901,267.322418 77.991501,269.626190 
	C77.226349,268.218689 75.455009,266.205475 75.795357,264.656128 
	C79.242218,248.965378 83.034103,233.350403 87.100952,217.481323 
	C87.665909,217.532684 87.859108,217.816925 88.082214,218.316010 
	C88.112122,218.530869 88.204536,218.954788 88.204544,218.954788 
z"/>
<path fill="#00000000" opacity="1.000000" stroke="none" 
	d="
M88.052307,218.101151 
	C87.859108,217.816925 87.665909,217.532684 87.242462,217.126770 
	C87.511894,214.640411 88.011589,212.275742 88.511276,209.911087 
	C89.035126,209.880569 89.558983,209.850067 90.082832,209.819565 
	C92.670036,222.056931 96.908737,233.984543 95.599609,247.409027 
	C94.886925,247.900436 94.471573,247.879776 94.056221,247.859100 
	C92.747917,238.165009 91.439613,228.470932 90.071793,218.047226 
	C89.884972,216.552078 89.757660,215.786530 89.630341,215.020996 
	C89.468346,215.035233 89.306343,215.049454 89.144348,215.063675 
	C89.059242,216.008774 88.974136,216.953857 88.889030,217.898956 
	C88.889030,217.898956 88.914642,217.990707 88.695007,217.960327 
	C88.475365,217.929947 88.052307,218.101151 88.052307,218.101151 
z"/>
<path fill="#00000000" opacity="1.000000" stroke="none" 
	d="
M132.442734,273.009949 
	C133.845978,273.533081 134.812332,274.048309 135.778702,274.563507 
	C135.645142,274.843811 135.511566,275.124115 135.378006,275.404419 
	C127.174423,275.404419 118.970833,275.404419 110.767250,275.404419 
	C110.721420,274.758514 110.675591,274.112640 110.629761,273.466736 
	C114.112114,273.311157 117.593117,273.091888 121.077202,273.017548 
	C124.718544,272.939789 128.362854,273.001404 132.442734,273.009949 
z"/>
<path fill="#00000000" opacity="1.000000" stroke="none" 
	d="
M227.052536,304.000000 
	C232.734909,304.000000 237.930023,304.000000 243.125122,304.000000 
	C237.255371,307.837402 223.799988,307.829987 217.582367,304.000000 
	C220.576675,304.000000 223.570969,304.000000 227.052536,304.000000 
z"/>
<path fill="#00000000" opacity="1.000000" stroke="none" 
	d="
M201.883026,348.281097 
	C201.427414,359.242950 203.039230,369.874908 206.922150,380.617523 
	C206.878113,381.097595 206.593719,381.316864 206.593719,381.316864 
	C205.117340,377.742737 203.495789,374.219452 202.219681,370.575165 
	C201.469360,368.432465 201.267929,366.097504 200.812683,363.814240 
	C199.931107,364.188049 199.205597,364.495636 198.983093,364.589996 
	C199.352524,359.507690 199.729935,354.315704 200.396759,348.627686 
	C201.085114,348.181458 201.484070,348.231293 201.883026,348.281097 
z"/>
<path fill="#00000000" opacity="1.000000" stroke="none" 
	d="
M252.832382,348.110535 
	C253.473755,350.490234 254.115128,352.869904 254.836334,355.669617 
	C254.916153,356.089661 254.709503,356.295227 254.709503,356.295227 
	C251.563049,355.582275 252.197830,357.913483 252.013123,359.619263 
	C251.388123,365.391632 250.820557,371.172089 250.059296,376.926727 
	C249.836685,378.609528 249.041946,380.216644 247.937027,381.654724 
	C248.990524,370.782745 250.044022,359.910767 251.373474,348.555756 
	C252.043732,348.085327 252.438049,348.097931 252.832382,348.110535 
z"/>
<path fill="#00000000" opacity="1.000000" stroke="none" 
	d="
M295.054138,335.125244 
	C295.814178,326.573608 296.574219,318.022003 297.334259,309.470367 
	C298.030853,309.457306 298.727417,309.444275 299.424011,309.431213 
	C299.424011,311.355621 299.567780,313.292847 299.397797,315.202148 
	C298.823181,321.656342 298.137238,328.100647 296.909363,334.756409 
	C295.901306,335.017792 295.477692,335.071503 295.054138,335.125244 
z"/>
<path fill="#00000000" opacity="1.000000" stroke="none" 
	d="
M150.859436,309.385681 
	C151.192337,317.544556 151.525253,325.703461 151.567032,334.365356 
	C150.878677,334.838989 150.481461,334.809662 150.084229,334.780304 
	C149.685196,326.469025 149.286148,318.157776 149.213013,309.403961 
	C149.979080,309.102844 150.419250,309.244263 150.859436,309.385681 
z"/>
<path fill="#00000000" opacity="1.000000" stroke="none" 
	d="
M49.660339,248.941772 
	C50.458431,249.476837 50.933151,249.884369 51.407875,250.291916 
	C51.268745,250.595840 51.129616,250.899780 50.990486,251.203720 
	C42.734367,248.179398 34.478252,245.155060 26.222137,242.130737 
	C26.388977,241.660492 26.555817,241.190231 26.722656,240.719971 
	C34.260761,243.418076 41.798870,246.116165 49.660339,248.941772 
z"/>
<path fill="#00000000" opacity="1.000000" stroke="none" 
	d="
M203.942505,289.026703 
	C203.942505,289.026703 203.877289,289.492889 203.872253,290.074341 
	C203.874771,291.117340 203.882324,291.578918 203.889893,292.040497 
	C203.648697,299.108582 203.407501,306.176697 202.829620,313.681946 
	C202.257492,314.123810 202.022018,314.128510 201.786560,314.133240 
	C201.897018,305.785675 202.007462,297.438110 202.373352,288.610382 
	C203.066696,288.429047 203.504608,288.727875 203.942505,289.026703 
z"/>
<path fill="#00000000" opacity="1.000000" stroke="none" 
	d="
M94.035797,248.340851 
	C94.471573,247.879776 94.886925,247.900436 95.609169,247.863403 
	C95.936920,248.004868 95.957779,248.204025 95.992996,248.951447 
	C96.007355,249.499680 96.013329,249.996399 96.013321,249.996399 
	C96.008888,255.032333 96.004456,260.068268 95.999603,265.885010 
	C95.998337,267.109741 95.997490,267.553650 95.663895,267.998352 
	C94.887421,267.999390 94.443710,267.999695 94.000000,268.000000 
	C94.005119,261.607513 94.010246,255.215057 94.035797,248.340851 
z"/>
<path fill="#00000000" opacity="1.000000" stroke="none" 
	d="
M286.248688,304.075500 
	C286.318756,304.746277 285.986420,305.894653 285.636627,305.899963 
	C278.722504,306.005524 271.806366,305.978607 264.864258,305.362854 
	C271.736359,303.128143 278.847504,304.389343 286.248688,304.075500 
z"/>
<path fill="#00000000" opacity="1.000000" stroke="none" 
	d="
M97.071121,319.822693 
	C96.727310,313.257446 96.383507,306.692230 96.027534,299.346619 
	C96.051804,298.311615 96.088242,298.056915 96.460236,297.839752 
	C97.247086,297.890472 97.698364,297.903625 98.149643,297.916809 
	C98.677040,304.941895 99.204437,311.966980 99.468605,319.439941 
	C98.493965,319.866119 97.782539,319.844391 97.071121,319.822693 
z"/>
<path fill="#00000000" opacity="1.000000" stroke="none" 
	d="
M95.000000,290.000000 
	C94.999092,283.645966 94.998184,277.291901 95.247932,270.468475 
	C95.665733,269.998993 95.832863,269.998871 96.120636,270.282288 
	C96.827332,271.377289 97.413399,272.188721 97.999474,273.000183 
	C97.666336,277.701324 97.333206,282.402435 96.999886,287.551788 
	C96.999153,288.443909 96.998611,288.887817 96.664627,289.665405 
	C95.887459,289.999420 95.443733,289.999695 95.000000,290.000000 
z"/>
<path fill="#00000000" opacity="1.000000" stroke="none" 
	d="
M204.081406,233.172653 
	C204.081406,227.676376 204.081406,222.180099 204.081406,216.683823 
	C204.654312,216.659393 205.227219,216.634979 205.800110,216.610550 
	C206.040390,221.906906 206.280655,227.203247 205.911163,232.777496 
	C204.894745,233.094467 204.488083,233.133560 204.081406,233.172653 
z"/>
<path fill="#00000000" opacity="1.000000" stroke="none" 
	d="
M204.888855,264.040955 
	C204.903915,269.998352 204.918976,275.955750 204.686829,282.213989 
	C203.920380,281.698242 203.401123,280.881714 202.881866,280.065155 
	C202.960236,274.072968 203.038605,268.080811 203.400192,261.587494 
	C204.096069,261.076813 204.508743,261.067230 204.921402,261.057678 
	C204.921402,261.057678 204.868378,261.509216 204.867493,262.082489 
	C204.874023,263.117493 204.881439,263.579224 204.888855,264.040955 
z"/>
<path fill="#00000000" opacity="1.000000" stroke="none" 
	d="
M204.098541,233.623566 
	C204.488083,233.133560 204.894745,233.094467 205.606964,233.044083 
	C205.912506,233.032791 205.875977,233.497437 205.871307,234.076630 
	C205.874039,235.117538 205.881454,235.579239 205.888870,236.040955 
	C205.904053,241.998367 205.919235,247.955765 205.687134,254.214172 
	C204.923126,253.697128 204.406387,252.879105 203.889648,252.061081 
	C203.964996,246.065552 204.040329,240.070007 204.098541,233.623566 
z"/>
<path fill="#00000000" opacity="1.000000" stroke="none" 
	d="
M295.062714,335.556824 
	C295.477692,335.071503 295.901306,335.017792 296.644592,334.987732 
	C295.444122,341.903870 297.513031,349.527771 292.323975,355.834961 
	C291.911346,355.913208 291.684723,355.678253 291.684753,355.678253 
	C292.813599,349.114960 293.942444,342.551697 295.062714,335.556824 
z"/>
<path fill="#00000000" opacity="1.000000" stroke="none" 
	d="
M150.876617,308.964813 
	C150.419250,309.244263 149.979080,309.102844 149.191406,308.934387 
	C148.112854,307.638824 147.381790,306.370331 146.311676,305.049866 
	C146.717819,301.686890 147.463013,298.375946 148.589813,295.023071 
	C149.612213,299.502075 150.253006,304.023010 150.876617,308.964813 
z"/>
<path fill="#00000000" opacity="1.000000" stroke="none" 
	d="
M255.579498,305.369995 
	C256.036591,305.102509 256.238831,305.106506 256.743896,305.136169 
	C257.030518,309.132172 257.014343,313.102539 256.699432,317.556488 
	C255.933746,318.360077 255.466812,318.680054 254.999878,319.000000 
	C255.108124,314.547180 255.216370,310.094360 255.579498,305.369995 
z"/>
<path fill="#00000000" opacity="1.000000" stroke="none" 
	d="
M99.911057,322.212708 
	C99.919258,327.484192 99.927467,332.755676 99.615265,338.518494 
	C98.868324,338.992432 98.441788,338.975006 98.015251,338.957611 
	C97.953453,333.579987 97.891663,328.202332 98.162872,322.367371 
	C98.967606,322.010925 99.439331,322.111816 99.911057,322.212708 
z"/>
<path fill="#00000000" opacity="1.000000" stroke="none" 
	d="
M202.873993,320.130371 
	C202.900833,325.753143 202.927658,331.375885 202.707153,337.333435 
	C201.928391,337.137299 201.396957,336.606323 200.865524,336.075378 
	C200.932159,331.075226 200.998779,326.075043 201.365601,320.578217 
	C202.068512,320.097839 202.471252,320.114105 202.873993,320.130371 
z"/>
<path fill="#00000000" opacity="1.000000" stroke="none" 
	d="
M200.597778,336.372986 
	C201.396957,336.606323 201.928391,337.137299 202.718170,337.796387 
	C202.759766,340.372009 202.542999,342.819427 202.166672,345.883728 
	C202.007111,346.500549 202.010529,346.997192 202.010529,346.997192 
	C201.995941,347.210968 201.981369,347.424713 201.924927,347.959778 
	C201.484070,348.231293 201.085114,348.181458 200.387115,348.178955 
	C200.168747,344.374359 200.249405,340.522461 200.597778,336.372986 
z"/>
<path fill="#00000000" opacity="1.000000" stroke="none" 
	d="
M150.055466,335.264343 
	C150.481461,334.809662 150.878677,334.838989 151.569138,334.809875 
	C151.862366,338.954895 151.862366,343.158325 151.862366,347.361786 
	C151.250473,347.370422 150.638596,347.379028 150.026703,347.387665 
	C150.026703,343.507904 150.026703,339.628113 150.055466,335.264343 
z"/>
<path fill="#00000000" opacity="1.000000" stroke="none" 
	d="
M105.581184,356.325684 
	C103.360855,352.122467 101.140533,347.919250 99.239365,343.325012 
	C100.019386,343.007843 100.480255,343.081726 100.941124,343.155640 
	C102.486069,346.927032 104.031013,350.698395 105.820297,354.955444 
	C106.064629,355.441101 106.139565,355.884003 106.001450,355.996277 
	C105.863327,356.108582 105.581184,356.325684 105.581184,356.325684 
z"/>
<path fill="#00000000" opacity="1.000000" stroke="none" 
	d="
M153.938171,355.189423 
	C154.309525,359.700775 154.680893,364.212158 155.052246,368.723511 
	C154.671097,368.814667 154.289932,368.905823 153.908768,368.996979 
	C153.266083,365.279816 152.623398,361.562653 152.225067,357.295654 
	C152.959000,356.227020 153.448593,355.708221 153.938171,355.189423 
z"/>
<path fill="#00000000" opacity="1.000000" stroke="none" 
	d="
M186.024109,297.989807 
	C186.441437,298.341003 186.468582,298.657715 186.495728,298.974457 
	C178.946808,298.974457 171.397888,298.974457 163.848969,298.974457 
	C163.849777,298.634766 163.850586,298.295044 163.851395,297.955353 
	C171.112228,297.955353 178.373077,297.955353 186.024109,297.989807 
z"/>
<path fill="#00000000" opacity="1.000000" stroke="none" 
	d="
M137.374359,352.805695 
	C136.991043,351.927399 136.927307,350.871582 136.902954,349.420959 
	C137.517105,346.239685 138.091858,343.453217 138.666611,340.666779 
	C140.419540,344.828735 140.523453,348.850494 137.374359,352.805695 
z"/>
<path fill="#00000000" opacity="1.000000" stroke="none" 
	d="
M203.619781,252.349411 
	C204.406387,252.879105 204.923126,253.697128 205.693039,254.671631 
	C205.805084,256.726898 205.663956,258.625702 205.222107,260.791077 
	C204.508743,261.067230 204.096069,261.076813 203.377075,261.130432 
	C203.163803,258.328888 203.256866,255.483322 203.619781,252.349411 
z"/>
<path fill="#00000000" opacity="1.000000" stroke="none" 
	d="
M251.998428,337.998016 
	C251.998917,335.628052 251.999405,333.258087 252.333282,330.444061 
	C253.110703,330.000397 253.554733,330.000824 253.998779,330.001221 
	C254.331879,332.386688 254.664978,334.772156 254.622101,337.578186 
	C253.496872,337.998535 252.747650,337.998291 251.998428,337.998016 
z"/>
<path fill="#00000000" opacity="1.000000" stroke="none" 
	d="
M202.614685,280.350403 
	C203.401123,280.881714 203.920380,281.698242 204.692932,282.671448 
	C204.810715,284.718994 204.675232,286.609955 204.241119,288.763794 
	C203.504608,288.727875 203.066696,288.429047 202.349884,288.153107 
	C202.163147,285.662537 202.255325,283.149109 202.614685,280.350403 
z"/>
<path fill="#00000000" opacity="1.000000" stroke="none" 
	d="
M253.136414,347.864410 
	C252.438049,348.097931 252.043732,348.085327 251.356293,348.117004 
	C251.042038,345.739929 251.020905,343.318542 251.332932,340.448578 
	C252.110107,340.000427 252.554138,340.000824 252.998169,340.001221 
	C253.145599,342.540253 253.293015,345.079254 253.136414,347.864410 
z"/>
<path fill="#00000000" opacity="1.000000" stroke="none" 
	d="
M153.958282,354.789673 
	C153.448593,355.708221 152.959000,356.227020 152.215332,356.862122 
	C151.529953,354.632263 151.098679,352.286072 150.667404,349.939850 
	C151.246048,349.793671 151.824692,349.647522 152.403336,349.501343 
	C152.928360,351.130859 153.453384,352.760406 153.958282,354.789673 
z"/>
<path fill="#00000000" opacity="1.000000" stroke="none" 
	d="
M82.922760,278.352051 
	C84.662170,280.420898 86.336327,282.861542 88.012177,285.657959 
	C86.295074,283.583740 84.576279,281.153809 82.922760,278.352051 
z"/>
<path fill="#00000000" opacity="1.000000" stroke="none" 
	d="
M156.000610,224.000610 
	C156.000610,221.567444 156.000610,219.134262 156.000610,216.701096 
	C156.513245,216.663879 157.025894,216.626663 157.538528,216.589447 
	C157.692444,218.769196 157.846359,220.948929 157.666702,223.564636 
	C156.888962,224.000595 156.444778,224.000595 156.000610,224.000610 
z"/>
<path fill="#00000000" opacity="1.000000" stroke="none" 
	d="
M202.908356,320.094543 
	C202.471252,320.114105 202.068512,320.097839 201.365250,320.121094 
	C201.142929,318.333801 201.221146,316.507019 201.542953,314.406738 
	C202.022018,314.128510 202.257492,314.123810 202.847656,314.114685 
	C203.220673,315.212128 203.238983,316.313995 203.131210,318.040771 
	C203.006912,319.105865 203.008713,319.546051 203.010529,319.986206 
	C203.010529,319.986206 202.942703,320.058716 202.908356,320.094543 
z"/>
<path fill="#00000000" opacity="1.000000" stroke="none" 
	d="
M98.386093,297.708618 
	C97.698364,297.903625 97.247086,297.890472 96.321625,297.639648 
	C95.612671,297.152954 95.324806,297.013214 94.983849,296.982819 
	C94.983849,296.982819 95.003960,296.996613 95.020905,296.679718 
	C94.955238,295.933319 94.872620,295.503815 94.790001,295.074310 
	C96.012962,294.967529 97.235924,294.860748 98.728287,294.877563 
	C98.872643,295.834290 98.747589,296.667389 98.386093,297.708618 
z"/>
<path fill="#00000000" opacity="1.000000" stroke="none" 
	d="
M254.003052,327.995239 
	C254.120987,325.952240 254.238907,323.909241 254.356842,321.866272 
	C254.903809,321.849396 255.450790,321.832550 255.997757,321.815704 
	C255.997757,323.600189 255.997757,325.384644 255.664368,327.583496 
	C254.888351,327.996979 254.445694,327.996124 254.003052,327.995239 
z"/>
<path fill="#00000000" opacity="1.000000" stroke="none" 
	d="
M100.960602,342.768860 
	C100.480255,343.081726 100.019386,343.007843 99.206573,342.924164 
	C98.571220,341.835510 98.287827,340.756653 98.009842,339.317688 
	C98.441788,338.975006 98.868324,338.992432 99.613556,338.982971 
	C100.281525,340.098114 100.630798,341.240112 100.960602,342.768860 
z"/>
<path fill="#00000000" opacity="1.000000" stroke="none" 
	d="
M200.199600,409.810089 
	C201.477814,411.603241 202.756042,413.396423 203.980347,415.625793 
	C203.926437,416.062042 203.675735,416.265228 203.675751,416.265228 
	C202.396255,414.509888 201.116776,412.754547 199.891846,410.533234 
	C199.946411,410.067230 200.199600,409.810089 200.199600,409.810089 
z"/>
<path fill="#00000000" opacity="1.000000" stroke="none" 
	d="
M97.999619,272.575867 
	C97.413399,272.188721 96.827332,271.377289 96.120499,269.948792 
	C95.998703,268.887054 95.997673,268.442291 95.996643,267.997559 
	C95.997490,267.553650 95.998337,267.109741 95.999741,266.332916 
	C96.666786,268.050507 97.333275,270.101044 97.999619,272.575867 
z"/>
<path fill="#00000000" opacity="1.000000" stroke="none" 
	d="
M209.604919,425.548584 
	C208.186905,424.141968 206.981781,422.472900 205.776672,420.803833 
	C206.226410,420.535767 206.676163,420.267700 207.125916,419.999664 
	C208.023209,421.761810 208.920517,423.523956 209.604919,425.548584 
z"/>
<path fill="#00000000" opacity="1.000000" stroke="none" 
	d="
M139.666626,335.271851 
	C140.368515,335.026154 140.823135,334.999054 141.614365,334.918671 
	C141.526855,336.132721 141.102753,337.400116 140.678665,338.667480 
	C140.258896,338.623993 139.839142,338.580505 139.419373,338.537018 
	C139.419373,337.521484 139.419373,336.505951 139.666626,335.271851 
z"/>
<path fill="#00000000" opacity="1.000000" stroke="none" 
	d="
M213.183563,431.553589 
	C213.065659,431.924866 212.880112,431.944702 212.415680,431.978241 
	C211.398117,430.589020 210.659409,429.186127 209.920700,427.783203 
	C210.271469,427.579529 210.622238,427.375854 210.973022,427.172150 
	C211.687317,428.515472 212.401627,429.858765 213.183563,431.553589 
z"/>
<path fill="#00000000" opacity="1.000000" stroke="none" 
	d="
M89.915306,289.344910 
	C91.001740,290.426544 92.015770,291.874878 93.021812,293.668884 
	C91.956848,292.580231 90.899872,291.145905 89.915306,289.344910 
z"/>
<path fill="#00000000" opacity="1.000000" stroke="none" 
	d="
M77.917450,270.345276 
	C79.003517,271.425903 80.019562,272.873077 81.023972,274.666687 
	C79.957367,273.579376 78.902390,272.145569 77.917450,270.345276 
z"/>
<path fill="#00000000" opacity="1.000000" stroke="none" 
	d="
M194.650131,369.546356 
	C195.378113,368.331268 196.106094,367.116180 196.834061,365.901123 
	C197.222168,366.155792 197.610275,366.410492 197.998383,366.665192 
	C197.232330,367.710846 196.466263,368.756470 195.295135,369.830017 
	C194.890060,369.857880 194.650131,369.546356 194.650131,369.546356 
z"/>
<path fill="#00000000" opacity="1.000000" stroke="none" 
	d="
M253.319214,339.959381 
	C252.554138,340.000824 252.110107,340.000427 251.333038,340.000000 
	C251.169418,339.444427 251.338837,338.888885 251.753326,338.165649 
	C252.747650,337.998291 253.496872,337.998535 254.620514,337.998169 
	C254.543396,338.637573 254.091827,339.277557 253.319214,339.959381 
z"/>
<path fill="#00000000" opacity="1.000000" stroke="none" 
	d="
M253.682037,328.038208 
	C254.445694,327.996124 254.888351,327.996979 255.662903,327.997681 
	C255.543457,328.637543 255.092102,329.277496 254.319763,329.959351 
	C253.554733,330.000824 253.110703,330.000397 252.333633,330.000000 
	C252.454086,329.360382 252.907547,328.720734 253.682037,328.038208 
z"/>
<path fill="#00000000" opacity="1.000000" stroke="none" 
	d="
M190.499664,374.075073 
	C190.161179,373.703827 190.118759,373.245972 190.135773,372.449158 
	C190.882660,371.728333 191.570114,371.346436 192.668457,371.031494 
	C193.079346,371.098419 193.324524,371.404846 193.324539,371.404846 
	C192.481613,372.266083 191.638687,373.127289 190.499664,374.075073 
z"/>
<path fill="#00000000" opacity="1.000000" stroke="none" 
	d="
M192.392090,399.679718 
	C193.261993,400.537018 194.131882,401.394318 194.946808,402.669922 
	C194.891830,403.088226 194.608398,403.311859 194.608398,403.311859 
	C193.733322,402.463623 192.858246,401.615387 192.043503,400.340912 
	C192.103836,399.914703 192.392090,399.679718 192.392090,399.679718 
z"/>
<path fill="#00000000" opacity="1.000000" stroke="none" 
	d="
M260.724823,359.850250 
	C260.760834,360.090027 260.796814,360.329834 260.789001,360.933105 
	C259.464844,360.599915 258.184418,359.903198 256.903992,359.206482 
	C257.057617,358.881836 257.211273,358.557190 257.364899,358.232544 
	C257.999054,358.435547 258.633209,358.638580 259.661926,359.130310 
	C260.228241,359.641907 260.451019,359.785675 260.724823,359.850250 
z"/>
<path fill="#00000000" opacity="1.000000" stroke="none" 
	d="
M161.828003,373.001129 
	C161.867645,373.449219 161.907288,373.897339 161.887543,374.678772 
	C161.271637,374.042633 160.715118,373.073212 160.602051,372.297272 
	C161.264725,372.724731 161.525558,372.894836 161.828003,373.001129 
z"/>
<path fill="#00000000" opacity="1.000000" stroke="none" 
	d="
M99.939377,321.808014 
	C99.439331,322.111816 98.967606,322.010925 98.130753,321.893494 
	C97.524712,321.388489 97.283798,320.900085 97.057007,320.117188 
	C97.782539,319.844391 98.493965,319.866119 99.557465,319.834229 
	C99.928932,320.321564 99.948311,320.862427 99.939377,321.808014 
z"/>
<path fill="#00000000" opacity="1.000000" stroke="none" 
	d="
M80.928467,275.343384 
	C81.666801,275.775146 82.343994,276.565613 83.018494,277.685913 
	C82.299652,277.244537 81.583496,276.473297 80.928467,275.343384 
z"/>
<path fill="#00000000" opacity="1.000000" stroke="none" 
	d="
M87.922020,286.343262 
	C88.660866,286.775665 89.332642,287.568146 90.010895,288.688660 
	C89.296570,288.245544 88.575760,287.474426 87.922020,286.343262 
z"/>
<path fill="#00000000" opacity="1.000000" stroke="none" 
	d="
M204.048828,415.956909 
	C204.762878,416.682709 205.354568,417.513641 205.946243,418.344604 
	C205.700363,418.521881 205.454483,418.699127 205.208618,418.876404 
	C204.746490,418.215363 204.284363,417.554321 203.748993,416.579254 
	C203.675735,416.265228 203.926437,416.062042 204.048828,415.956909 
z"/>
<path fill="#00000000" opacity="1.000000" stroke="none" 
	d="
M210.436081,383.252319 
	C210.767242,383.817963 210.819794,384.267914 210.817444,385.064453 
	C209.884720,384.844177 209.006882,384.277405 208.118073,383.312134 
	C208.107117,382.913696 208.412842,382.670227 208.412842,382.670227 
	C208.994385,382.825684 209.575928,382.981171 210.436081,383.252319 
z"/>
<path fill="#00000000" opacity="1.000000" stroke="none" 
	d="
M94.560349,294.935425 
	C94.872620,295.503815 94.955238,295.933319 95.025490,296.690979 
	C94.299957,296.247498 93.586784,295.475861 92.930862,294.344086 
	C93.435638,294.254822 93.883163,294.525696 94.560349,294.935425 
z"/>
<path fill="#00000000" opacity="1.000000" stroke="none" 
	d="
M239.353577,389.032806 
	C239.015366,388.659912 238.987488,388.236694 238.997940,387.499207 
	C239.685989,387.050873 240.335693,386.916779 241.452301,386.859009 
	C241.919205,386.935364 242.178024,387.187500 242.178040,387.187500 
	C241.339996,387.785828 240.501953,388.384155 239.353577,389.032806 
z"/>
<path fill="#00000000" opacity="1.000000" stroke="none" 
	d="
M244.330811,385.412872 
	C243.801285,385.954071 243.271790,386.495270 242.460144,387.112000 
	C242.178024,387.187500 241.919205,386.935364 241.780762,386.813293 
	C242.178619,386.121307 242.714935,385.551422 243.668640,385.044281 
	C244.086014,385.107056 244.330811,385.412872 244.330811,385.412872 
z"/>
<path fill="#00000000" opacity="1.000000" stroke="none" 
	d="
M190.414368,399.146179 
	C190.149872,398.540100 190.102966,398.052673 190.121475,397.200439 
	C190.846970,397.596527 191.507050,398.357422 192.279617,399.398987 
	C192.392090,399.679718 192.103836,399.914703 191.962463,400.037598 
	C191.424698,399.861908 191.028305,399.563385 190.414368,399.146179 
z"/>
<path fill="#00000000" opacity="1.000000" stroke="none" 
	d="
M196.378357,404.692505 
	C197.099136,405.002960 197.819931,405.313446 198.540710,405.623901 
	C198.177795,406.026154 197.814880,406.428375 197.451965,406.830627 
	C196.957657,406.469421 196.463333,406.108215 196.029419,405.336426 
	C196.089828,404.925842 196.378372,404.692474 196.378357,404.692505 
z"/>
<path fill="#00000000" opacity="1.000000" stroke="none" 
	d="
M199.825500,410.201172 
	C199.345718,409.646118 198.986877,408.957153 198.628021,408.268188 
	C199.093262,408.590668 199.558487,408.913177 200.111664,409.522888 
	C200.199600,409.810089 199.946411,410.067230 199.825500,410.201172 
z"/>
<path fill="#00000000" opacity="1.000000" stroke="none" 
	d="
M107.973366,357.031616 
	C108.008057,357.500732 108.042747,357.969879 108.021606,358.789185 
	C107.240746,358.397797 106.515732,357.656219 105.685951,356.620178 
	C105.581184,356.325684 105.863327,356.108582 106.243996,356.117798 
	C107.074226,356.428528 107.523796,356.730072 107.973366,357.031616 
z"/>
<path fill="#00000000" opacity="1.000000" stroke="none" 
	d="
M108.023087,356.654755 
	C107.523796,356.730072 107.074226,356.428528 106.382111,356.005493 
	C106.139565,355.884003 106.064629,355.441101 106.045609,355.217224 
	C106.506538,354.735199 106.986496,354.476990 107.718063,354.113159 
	C108.004051,354.764313 108.038429,355.521088 108.023087,356.654755 
z"/>
<path fill="#00000000" opacity="1.000000" stroke="none" 
	d="
M147.953873,289.884064 
	C147.510986,290.128784 147.091003,290.087494 146.355133,290.075867 
	C146.169174,289.540466 146.299118,288.975403 146.660980,288.232391 
	C147.184982,288.222748 147.477066,288.391052 147.881638,288.791931 
	C147.988342,289.215759 147.982574,289.406921 147.953873,289.884064 
z"/>
<path fill="#00000000" opacity="1.000000" stroke="none" 
	d="
M255.171265,319.228821 
	C255.466812,318.680054 255.933746,318.360077 256.697876,318.018799 
	C256.444275,318.484222 255.893463,318.970917 255.171265,319.228821 
z"/>
<path fill="#00000000" opacity="1.000000" stroke="none" 
	d="
M156.000397,224.326904 
	C156.444778,224.000595 156.888962,224.000595 157.666260,224.000595 
	C157.800751,224.579193 157.602127,225.157791 157.137573,225.907028 
	C156.871674,226.077667 156.435471,226.020538 156.217743,225.988983 
	C156.000061,225.522690 156.000122,225.087936 156.000397,224.326904 
z"/>
<path fill="#00000000" opacity="1.000000" stroke="none" 
	d="
M289.317688,358.964905 
	C289.013550,358.605591 288.982178,358.138123 288.995758,357.321045 
	C289.406342,356.901794 289.771973,356.832153 290.528656,356.839783 
	C290.919739,356.917084 291.146454,357.133270 291.146423,357.133240 
	C290.627777,357.707764 290.109131,358.282288 289.317688,358.964905 
z"/>
<path fill="#00000000" opacity="1.000000" stroke="none" 
	d="
M206.136383,235.894501 
	C205.881454,235.579239 205.874039,235.117538 205.882721,234.309387 
	C206.060501,234.557999 206.222198,235.153030 206.136383,235.894501 
z"/>
<path fill="#00000000" opacity="1.000000" stroke="none" 
	d="
M195.030182,402.972260 
	C195.507004,403.293091 195.845490,403.729889 196.281174,404.429565 
	C196.378372,404.692474 196.089828,404.925842 195.947540,405.047272 
	C195.468781,404.726501 195.132324,404.284302 194.702133,403.576965 
	C194.608398,403.311859 194.891830,403.088226 195.030182,402.972260 
z"/>
<path fill="#00000000" opacity="1.000000" stroke="none" 
	d="
M94.925903,297.319092 
	C95.324806,297.013214 95.612671,297.152954 95.986069,297.602112 
	C96.088242,298.056915 96.051804,298.311615 95.964020,298.951447 
	C95.564430,298.776184 95.216194,298.215790 94.925903,297.319092 
z"/>
<path fill="#00000000" opacity="1.000000" stroke="none" 
	d="
M246.129913,384.114471 
	C245.706451,384.477936 245.282990,384.841400 244.595184,385.308868 
	C244.330811,385.412872 244.086014,385.107056 243.958405,384.956604 
	C244.271118,384.465942 244.711441,384.125702 245.536911,383.850708 
	C245.922073,383.915955 246.129898,384.114471 246.129913,384.114471 
z"/>
<path fill="#00000000" opacity="1.000000" stroke="none" 
	d="
M207.957550,383.039490 
	C207.466125,382.725708 207.124252,382.286133 206.688049,381.581726 
	C206.593719,381.316864 206.878113,381.097595 207.017242,380.982361 
	C207.507339,381.294128 207.858337,381.721069 208.311096,382.409119 
	C208.412842,382.670227 208.107117,382.913696 207.957550,383.039490 
z"/>
<path fill="#00000000" opacity="1.000000" stroke="none" 
	d="
M192.952515,370.948669 
	C193.256821,370.443634 193.687973,370.088287 194.384628,369.639648 
	C194.650131,369.546356 194.890060,369.857880 195.014862,370.011047 
	C194.708328,370.509979 194.277008,370.855713 193.585114,371.303162 
	C193.324524,371.404846 193.079346,371.098419 192.952515,370.948669 
z"/>
<path fill="#00000000" opacity="1.000000" stroke="none" 
	d="
M157.026260,370.906494 
	C156.839142,370.615234 156.909836,370.349396 156.980499,370.083527 
	C157.081696,370.366333 157.182877,370.649109 157.026260,370.906494 
z"/>
<path fill="#00000000" opacity="1.000000" stroke="none" 
	d="
M205.136383,263.894531 
	C204.881439,263.579224 204.874023,263.117493 204.882721,262.309326 
	C205.060516,262.557922 205.222214,263.153015 205.136383,263.894531 
z"/>
<path fill="#00000000" opacity="1.000000" stroke="none" 
	d="
M204.137238,291.894043 
	C203.882324,291.578918 203.874771,291.117340 203.883286,290.309448 
	C204.061111,290.557953 204.222839,291.152771 204.137238,291.894043 
z"/>
<path fill="#00000000" opacity="1.000000" stroke="none" 
	d="
M203.235168,319.844025 
	C203.008713,319.546051 203.006912,319.105865 203.010010,318.335632 
	C203.163208,318.571014 203.311523,319.136414 203.235168,319.844025 
z"/>
<path fill="#00000000" opacity="1.000000" stroke="none" 
	d="
M245.820190,383.814606 
	C245.940918,383.526825 246.163528,383.340424 246.386139,383.154022 
	C246.426361,383.393829 246.466583,383.633606 246.318359,383.993958 
	C246.129898,384.114471 245.922073,383.915955 245.820190,383.814606 
z"/>
<path fill="#00000000" opacity="1.000000" stroke="none" 
	d="
M96.178146,249.907837 
	C96.013329,249.996399 96.007355,249.499680 96.009354,249.251373 
	C96.121887,249.275131 96.232422,249.547195 96.178146,249.907837 
z"/>
<path fill="#00000000" opacity="1.000000" stroke="none" 
	d="
M161.869232,372.750366 
	C161.525558,372.894836 161.264725,372.724731 160.914246,372.293640 
	C160.953766,372.075470 161.124542,372.054474 161.552094,372.017578 
	C161.842743,372.167633 161.876587,372.333618 161.869232,372.750366 
z"/>
<path fill="#00000000" opacity="1.000000" stroke="none" 
	d="
M260.765411,359.634766 
	C260.451019,359.785675 260.228241,359.641907 259.957916,359.241028 
	C259.859344,359.063049 260.277374,359.019043 260.486328,359.006989 
	C260.695312,358.994934 260.806000,359.419312 260.765411,359.634766 
z"/>
<path fill="#00000000" opacity="1.000000" stroke="none" 
	d="
M290.807037,356.808319 
	C290.837860,356.406219 291.034943,356.154907 291.485168,355.811951 
	C291.684723,355.678253 291.911346,355.913208 292.024933,356.031921 
	C292.016907,356.454681 291.825409,356.705383 291.355255,357.017975 
	C291.146454,357.133270 290.919739,356.917084 290.807037,356.808319 
z"/>
<path fill="#00000000" opacity="1.000000" stroke="none" 
	d="
M255.021210,355.988647 
	C255.314102,356.101593 255.501907,356.315491 255.689713,356.529419 
	C255.453003,356.570465 255.216278,356.611542 254.844543,356.473938 
	C254.709503,356.295227 254.916153,356.089661 255.021210,355.988647 
z"/>
<path fill="#00000000" opacity="1.000000" stroke="none" 
	d="
M202.175690,346.909180 
	C202.010529,346.997192 202.007111,346.500549 202.011139,346.252350 
	C202.186157,346.169861 202.372803,346.323700 202.515030,346.511230 
	C202.543594,346.548889 202.403305,346.714569 202.175690,346.909180 
z"/>
<path fill="#FFDDF1" opacity="1.000000" stroke="none" 
	d="
M59.195656,141.362030 
	C57.976120,147.419006 56.857388,153.060150 55.738651,158.701309 
	C55.546223,158.668274 55.353790,158.635239 55.161358,158.602203 
	C55.161358,150.172531 55.039295,141.740372 55.212128,133.314240 
	C55.300404,129.010559 55.623966,128.961060 61.315144,130.011871 
	C60.644920,133.642197 59.970692,137.294205 59.195656,141.362030 
z"/>
<path fill="#FFF1FA" opacity="1.000000" stroke="none" 
	d="
M165.868561,403.320801 
	C165.867783,401.377472 165.867783,399.883942 165.867783,398.390411 
	C166.130020,398.340302 166.392242,398.290222 166.654480,398.240112 
	C168.843460,406.297455 171.032440,414.354797 173.277054,422.616882 
	C166.451569,422.092743 165.884064,421.527832 165.871567,415.767059 
	C165.862885,411.768250 165.869537,407.769440 165.868561,403.320801 
z"/>
<path fill="#FFF1FA" opacity="1.000000" stroke="none" 
	d="
M111.588928,385.995056 
	C111.471191,378.717773 111.471191,371.838409 111.471191,364.959045 
	C111.830856,364.934235 112.190521,364.909424 112.550186,364.884613 
	C114.697876,372.845581 116.845566,380.806580 119.393303,390.250458 
	C115.954132,388.524506 113.830399,387.458740 111.588928,385.995056 
z"/>
<path fill="#FFF1FA" opacity="1.000000" stroke="none" 
	d="
M214.399353,407.767822 
	C214.399719,402.408630 214.399719,397.515411 214.399719,392.622223 
	C214.796997,392.585968 215.194275,392.549744 215.591553,392.513519 
	C217.733871,400.367371 219.876205,408.221222 222.052109,416.198151 
	C215.010773,415.498993 214.428101,414.866272 214.399353,407.767822 
z"/>
<path fill="#FFE1F3" opacity="1.000000" stroke="none" 
	d="
M271.659485,388.920227 
	C270.054169,389.205017 268.054749,389.649231 266.737762,388.897644 
	C265.485321,388.182892 264.269531,386.246490 264.209595,384.798706 
	C263.941803,378.328766 264.093201,371.841522 265.064941,365.099335 
	C267.231171,372.918579 269.397400,380.737823 271.659485,388.920227 
z"/>
<path fill="#00000000" opacity="1.000000" stroke="none" 
	d="
M95.663887,267.998352 
	C95.997673,268.442291 95.998703,268.887054 95.999863,269.665283 
	C95.832863,269.998871 95.665733,269.998993 95.247864,270.000153 
	C94.678421,269.532654 94.359711,269.064087 94.020500,268.297760 
	C94.443710,267.999695 94.887421,267.999390 95.663887,267.998352 
z"/>
<path fill="#00000000" opacity="1.000000" stroke="none" 
	d="
M95.038391,290.299042 
	C95.443733,289.999695 95.887459,289.999420 96.663910,289.998352 
	C96.764557,290.517029 96.532478,291.036469 96.300400,291.555939 
	C95.892532,291.236664 95.484657,290.917389 95.038391,290.299042 
z"/>
<path fill="#00000000" opacity="1.000000" stroke="none" 
	d="
M89.167542,217.933899 
	C88.974136,216.953857 89.059242,216.008774 89.144348,215.063675 
	C89.306343,215.049454 89.468346,215.035233 89.630341,215.020996 
	C89.757660,215.786530 89.884972,216.552078 90.009430,217.658768 
	C89.819733,217.989563 89.632889,217.979218 89.167542,217.933899 
z"/>
<path fill="#00000000" opacity="1.000000" stroke="none" 
	d="
M88.082214,218.316010 
	C88.052307,218.101151 88.475365,217.929947 88.702675,217.913330 
	C88.908119,218.208908 88.787827,218.476852 88.386826,218.827667 
	C88.204536,218.954788 88.112122,218.530869 88.082214,218.316010 
z"/>
</svg>