<svg version="1.1" id="Layer_1" xmlns="http://www.w3.org/2000/svg" xmlns:xlink="http://www.w3.org/1999/xlink" x="0px" y="0px"
	 width="100%" viewBox="0 0 512 512" enable-background="new 0 0 512 512" xml:space="preserve">
<path fill="#00000000" opacity="1.000000" stroke="none" 
	d="
M1.000000,180.000000 
	C1.000000,120.000000 1.000000,60.500000 1.000000,1.000000 
	C171.666672,1.000000 342.333344,1.000000 513.000000,1.000000 
	C513.000000,171.666672 513.000000,342.333344 513.000000,513.000000 
	C342.333344,513.000000 171.666672,513.000000 1.000000,513.000000 
	C1.000000,402.166656 1.000000,291.333344 1.000000,180.000000 
M163.125961,154.046097 
	C161.081421,155.474640 158.982513,156.832092 157.003387,158.346146 
	C152.526184,161.771286 151.785355,165.334961 155.048599,169.992233 
	C177.201324,201.608231 199.273407,233.283386 221.753967,264.665466 
	C228.537811,274.135529 238.409943,277.470032 250.731506,274.886108 
	C255.924850,272.184082 261.118195,269.482056 266.585205,266.637634 
	C237.009689,224.718170 208.129639,183.784470 179.105103,142.645950 
	C173.653442,146.650146 168.721008,150.272964 163.125961,154.046097 
M452.917664,219.154938 
	C460.000702,219.154938 467.083771,219.154938 474.832123,219.154938 
	C473.924011,216.270416 473.437347,214.008942 472.522766,211.936264 
	C466.888306,199.166901 455.254852,193.036713 438.045410,193.964935 
	C425.885406,193.950409 413.697327,194.423035 401.576721,193.724731 
	C395.096161,193.351379 388.063629,192.202484 382.467651,189.194534 
	C373.479095,184.363007 365.428345,177.765030 357.079010,171.777222 
	C353.923798,169.514435 351.544464,165.672516 346.709900,167.782181 
	C341.932037,169.867081 342.556732,174.087891 342.545410,178.043518 
	C342.516296,188.204727 342.535645,198.366104 342.535645,208.527405 
	C342.535645,211.959076 342.535675,215.390747 342.535675,219.180725 
	C352.130554,219.180725 361.095306,219.198425 370.059998,219.177399 
	C397.372528,219.113342 424.685059,219.034363 452.917664,219.154938 
M465.020203,234.225571 
	C434.231598,234.211319 403.442993,234.195374 372.654388,234.183685 
	C360.338837,234.179001 348.023071,234.140915 335.707825,234.203384 
	C330.123169,234.231720 328.519104,236.353928 330.063690,241.705231 
	C332.272552,249.357941 334.202881,257.131927 337.034454,264.555756 
	C343.701569,282.035614 356.532135,293.323029 375.105316,294.708130 
	C395.284882,296.213074 415.659393,295.104553 436.618622,295.417572 
	C456.828278,294.860474 471.472412,285.364868 479.675842,267.066406 
	C483.437653,258.675354 485.448242,249.473923 487.953339,240.555832 
	C489.135559,236.347229 487.358124,234.282730 482.833374,234.206299 
	C477.202087,234.111160 471.565491,234.330582 465.020203,234.225571 
M92.116478,52.904865 
	C67.504738,55.808411 42.893005,58.711956 18.210670,61.623829 
	C18.210670,110.286530 18.210670,158.521454 18.210670,207.214874 
	C33.459305,202.165558 48.380230,197.224762 63.170860,192.327118 
	C63.170860,185.593475 62.819954,179.270981 63.271935,173.006424 
	C63.702999,167.031769 66.991692,164.217575 71.728111,164.676300 
	C76.451057,165.133698 78.836258,168.530899 78.038452,174.591217 
	C76.341148,187.484329 79.882683,199.021774 88.466682,208.305603 
	C96.782532,217.299408 105.656029,226.115936 115.560120,233.236099 
	C140.136536,250.904358 165.627380,267.294617 190.399078,284.699005 
	C214.070190,301.330170 235.683701,320.318909 253.313217,343.487396 
	C259.341888,351.410156 257.797333,359.100464 249.228226,363.922974 
	C244.448700,366.612793 239.651917,369.272736 234.836334,371.897369 
	C226.342896,376.526459 220.897873,383.215485 220.866089,393.270050 
	C220.833817,403.491486 225.996750,411.125885 234.924622,415.074493 
	C249.005814,421.302307 263.412476,426.912598 277.995544,431.857697 
	C296.692932,438.197906 316.238403,442.334045 333.512756,452.308136 
	C351.362946,462.614624 368.650574,473.893494 386.468597,484.258240 
	C400.148834,492.216095 415.401428,495.664642 431.746918,497.943695 
	C440.860870,497.017853 446.579895,492.186157 449.304016,483.375946 
	C450.755707,478.680847 449.504059,476.245361 444.847992,474.744812 
	C433.620178,471.126434 422.525604,467.095123 411.303009,463.459625 
	C405.989410,461.738312 401.974670,458.696686 398.780090,454.135834 
	C383.019226,431.634247 367.133240,409.220367 351.313019,386.760345 
	C347.349243,381.132904 347.475464,378.850555 351.830505,373.555725 
	C348.881622,369.286102 346.056976,364.921204 342.903809,360.808197 
	C342.022949,359.659210 339.920959,358.352478 338.810059,358.662415 
	C333.909485,360.029816 330.935944,357.986237 328.276947,354.195007 
	C311.545593,330.339172 294.733276,306.540100 277.935669,282.730774 
	C276.931213,281.307037 275.822449,279.956909 274.922424,278.781738 
	C269.582184,282.027313 264.771973,284.950745 259.173096,287.930908 
	C238.362381,294.699066 220.145050,288.673798 207.536835,270.837433 
	C203.793579,265.542023 200.083313,260.223328 196.354828,254.917480 
	C178.859009,230.019928 161.348801,205.132477 143.870880,180.222366 
	C134.399857,166.723923 136.548416,154.388672 149.916412,144.982819 
	C151.670792,143.748413 153.340057,142.393005 155.723969,140.949066 
	C160.569046,137.500656 165.414124,134.052261 170.572998,130.380508 
	C154.818436,108.207260 139.706573,86.065948 123.604660,64.669731 
	C116.302063,54.966045 105.433472,51.031624 92.116478,52.904865 
M307.435150,48.843472 
	C314.208527,43.999870 321.887085,42.319248 330.062744,42.332077 
	C340.365540,42.348240 350.668427,42.335979 361.180603,42.335979 
	C361.180603,33.335808 361.180603,24.785101 361.180603,15.997634 
	C341.529724,15.997634 322.213013,15.851552 302.900848,16.083498 
	C296.827179,16.156445 292.435333,14.710460 291.475128,8.192387 
	C284.786530,8.192387 278.507172,8.192387 272.300964,8.192387 
	C269.785980,15.090527 268.500305,15.984663 261.251770,15.996440 
	C257.253693,16.002935 253.255447,15.973160 249.257584,16.003023 
	C240.381500,16.069326 234.227158,21.493168 234.239120,29.206444 
	C234.250977,36.835903 240.041138,42.055531 248.798218,42.330944 
	C263.422638,42.790878 270.604279,50.230968 270.669495,64.953331 
	C270.696045,70.948357 270.555634,76.955887 270.902222,82.933899 
	C271.166718,87.496223 273.903687,90.571884 278.234802,92.083557 
	C282.283783,93.496765 286.269623,92.632050 288.633423,89.392296 
	C290.533539,86.788094 291.801819,83.098877 291.842499,79.872070 
	C292.002808,67.167549 296.712494,56.945656 307.435150,48.843472 
M386.534607,42.331871 
	C405.857819,42.331627 425.181183,42.366692 444.504089,42.289623 
	C447.129608,42.279148 449.903351,42.146023 452.347015,41.307602 
	C458.084869,39.338947 461.526123,33.198338 460.596893,27.434401 
	C459.495300,20.601273 454.281250,16.059246 446.972534,16.033142 
	C424.151520,15.951628 401.329987,16.004707 378.508698,16.026396 
	C377.913910,16.026960 377.319336,16.266722 376.810547,16.376421 
	C376.810547,25.117002 376.810547,33.533123 376.810547,42.331902 
	C379.931793,42.331902 382.741119,42.331902 386.534607,42.331871 
M271.029999,159.005219 
	C270.945770,159.996628 270.739471,160.995300 270.797974,161.978226 
	C271.088745,166.863617 273.829529,170.130249 278.246552,171.622696 
	C282.443909,173.040924 286.539001,172.256195 289.737213,168.890640 
	C293.029633,165.425949 294.149750,161.345535 291.806702,157.001801 
	C288.841370,151.504425 285.530701,146.193329 281.693512,139.650070 
	C277.734406,146.686432 274.491974,152.449066 271.029999,159.005219 
z"/>
<path fill="#FECCBD" opacity="1.000000" stroke="none" 
	d="
M430.963318,497.774078 
	C415.401428,495.664642 400.148834,492.216095 386.468597,484.258240 
	C368.650574,473.893494 351.362946,462.614624 333.512756,452.308136 
	C316.238403,442.334045 296.692932,438.197906 277.995544,431.857697 
	C263.412476,426.912598 249.005814,421.302307 234.924622,415.074493 
	C225.996750,411.125885 220.833817,403.491486 220.866089,393.270050 
	C220.897873,383.215485 226.342896,376.526459 234.836334,371.897369 
	C239.651917,369.272736 244.448700,366.612793 249.228226,363.922974 
	C257.797333,359.100464 259.341888,351.410156 253.313217,343.487396 
	C235.683701,320.318909 214.070190,301.330170 190.399078,284.699005 
	C165.627380,267.294617 140.136536,250.904358 115.560120,233.236099 
	C105.656029,226.115936 96.782532,217.299408 88.466682,208.305603 
	C79.882683,199.021774 76.341148,187.484329 78.038452,174.591217 
	C78.836258,168.530899 76.451057,165.133698 71.728111,164.676300 
	C66.991692,164.217575 63.702999,167.031769 63.271935,173.006424 
	C62.819954,179.270981 63.170860,185.593475 63.170860,192.327118 
	C48.380230,197.224762 33.459305,202.165558 18.210670,207.214874 
	C18.210670,158.521454 18.210670,110.286530 18.210670,61.623829 
	C42.893005,58.711956 67.504738,55.808411 92.613129,53.299507 
	C96.036598,57.048233 99.258339,60.190742 101.841415,63.791420 
	C116.451859,84.157585 130.984390,104.580917 145.365509,125.109436 
	C148.931870,130.200287 151.838730,135.753143 155.048737,141.093643 
	C153.340057,142.393005 151.670792,143.748413 149.916412,144.982819 
	C136.548416,154.388672 134.399857,166.723923 143.870880,180.222366 
	C161.348801,205.132477 178.859009,230.019928 196.354828,254.917480 
	C200.083313,260.223328 203.793579,265.542023 207.536835,270.837433 
	C220.145050,288.673798 238.362381,294.699066 259.725494,288.208160 
	C272.425690,305.503815 284.656311,322.463806 296.704559,339.552368 
	C324.534912,379.025330 352.227325,418.595764 380.165314,457.992188 
	C382.039001,460.634369 385.213745,462.926086 388.272614,464.053802 
	C399.809509,468.307129 411.562714,471.970551 423.206909,475.937134 
	C430.333282,478.364685 433.342285,483.589111 432.058441,490.918274 
	C431.659210,493.197540 431.326477,495.488495 430.963318,497.774078 
z"/>
<path fill="#91DAFA" opacity="1.000000" stroke="none" 
	d="
M435.948883,295.135559 
	C415.659393,295.104553 395.284882,296.213074 375.105316,294.708130 
	C356.532135,293.323029 343.701569,282.035614 337.034454,264.555756 
	C334.202881,257.131927 332.272552,249.357941 330.063690,241.705231 
	C328.519104,236.353928 330.123169,234.231720 335.707825,234.203384 
	C348.023071,234.140915 360.338837,234.179001 372.654388,234.183685 
	C403.442993,234.195374 434.231598,234.211319 465.485229,234.735535 
	C464.957184,240.256180 464.280029,245.355255 462.907684,250.259781 
	C459.690094,261.758667 457.227997,273.703369 448.928070,282.955170 
	C444.980682,287.355286 440.298309,291.096069 435.948883,295.135559 
z"/>
<path fill="#F3DC46" opacity="1.000000" stroke="none" 
	d="
M307.130310,49.039124 
	C296.712494,56.945656 292.002808,67.167549 291.842499,79.872070 
	C291.801819,83.098877 290.533539,86.788094 288.633423,89.392296 
	C286.269623,92.632050 282.283783,93.496765 278.234802,92.083557 
	C273.903687,90.571884 271.166718,87.496223 270.902222,82.933899 
	C270.555634,76.955887 270.696045,70.948357 270.669495,64.953331 
	C270.604279,50.230968 263.422638,42.790878 248.798218,42.330944 
	C240.041138,42.055531 234.250977,36.835903 234.239120,29.206444 
	C234.227158,21.493168 240.381500,16.069326 249.257584,16.003023 
	C253.255447,15.973160 257.253693,16.002935 261.251770,15.996440 
	C268.500305,15.984663 269.785980,15.090527 272.300964,8.192387 
	C278.507172,8.192387 284.786530,8.192387 291.475128,8.192387 
	C292.435333,14.710460 296.827179,16.156445 302.900848,16.083498 
	C322.213013,15.851552 341.529724,15.997634 361.180603,15.997634 
	C361.180603,24.785101 361.180603,33.335808 361.180603,42.335979 
	C350.668427,42.335979 340.365540,42.348240 330.062744,42.332077 
	C321.887085,42.319248 314.208527,43.999870 307.130310,49.039124 
z"/>
<path fill="#E9B0A5" opacity="1.000000" stroke="none" 
	d="
M431.355103,497.858887 
	C431.326477,495.488495 431.659210,493.197540 432.058441,490.918274 
	C433.342285,483.589111 430.333282,478.364685 423.206909,475.937134 
	C411.562714,471.970551 399.809509,468.307129 388.272614,464.053802 
	C385.213745,462.926086 382.039001,460.634369 380.165314,457.992188 
	C352.227325,418.595764 324.534912,379.025330 296.704559,339.552368 
	C284.656311,322.463806 272.425690,305.503815 260.119812,288.179810 
	C264.771973,284.950745 269.582184,282.027313 274.922424,278.781738 
	C275.822449,279.956909 276.931213,281.307037 277.935669,282.730774 
	C294.733276,306.540100 311.545593,330.339172 328.276947,354.195007 
	C330.935944,357.986237 333.909485,360.029816 338.810059,358.662415 
	C339.920959,358.352478 342.022949,359.659210 342.903809,360.808197 
	C346.056976,364.921204 348.881622,369.286102 351.830444,373.555756 
	C347.475464,378.850555 347.349243,381.132904 351.313019,386.760345 
	C367.133240,409.220367 383.019226,431.634247 398.780090,454.135834 
	C401.974670,458.696686 405.989410,461.738312 411.303009,463.459625 
	C422.525604,467.095123 433.620178,471.126434 444.847992,474.744812 
	C449.504059,476.245361 450.755707,478.680847 449.304016,483.375946 
	C446.579895,492.186157 440.860870,497.017853 431.355103,497.858887 
z"/>
<path fill="#F4DD46" opacity="1.000000" stroke="none" 
	d="
M451.997589,218.961166 
	C424.685059,219.034363 397.372528,219.113342 370.059998,219.177399 
	C361.095306,219.198425 352.130554,219.180725 342.535675,219.180725 
	C342.535675,215.390747 342.535645,211.959076 342.535645,208.527405 
	C342.535645,198.366104 342.516296,188.204727 342.545410,178.043518 
	C342.556732,174.087891 341.932037,169.867081 346.709900,167.782181 
	C351.544464,165.672516 353.923798,169.514435 357.079010,171.777222 
	C365.428345,177.765030 373.479095,184.363007 382.467651,189.194534 
	C388.063629,192.202484 395.096161,193.351379 401.576721,193.724731 
	C413.697327,194.423035 425.885406,193.950409 438.586426,194.370316 
	C445.755219,201.593491 451.229858,209.024948 451.997589,218.961166 
z"/>
<path fill="#E3D3F3" opacity="1.000000" stroke="none" 
	d="
M163.788559,153.895798 
	C168.721008,150.272964 173.653442,146.650146 179.105103,142.645950 
	C208.129639,183.784470 237.009689,224.718170 266.585205,266.637634 
	C261.118195,269.482056 255.924850,272.184082 250.312256,274.519958 
	C248.655685,272.207275 247.493912,270.207733 246.169861,268.322113 
	C220.697708,232.047104 195.229416,195.769287 169.662766,159.560928 
	C168.121567,157.378204 165.765472,155.770874 163.788559,153.895798 
z"/>
<path fill="#F0E8F8" opacity="1.000000" stroke="none" 
	d="
M163.457260,153.970947 
	C165.765472,155.770874 168.121567,157.378204 169.662766,159.560928 
	C195.229416,195.769287 220.697708,232.047104 246.169861,268.322113 
	C247.493912,270.207733 248.655685,272.207275 249.944092,274.494934 
	C238.409943,277.470032 228.537811,274.135529 221.753967,264.665466 
	C199.273407,233.283386 177.201324,201.608231 155.048599,169.992233 
	C151.785355,165.334961 152.526184,161.771286 157.003387,158.346146 
	C158.982513,156.832092 161.081421,155.474640 163.457260,153.970947 
z"/>
<path fill="#91D9F9" opacity="1.000000" stroke="none" 
	d="
M386.042542,42.331886 
	C382.741119,42.331902 379.931793,42.331902 376.810547,42.331902 
	C376.810547,33.533123 376.810547,25.117002 376.810547,16.376421 
	C377.319336,16.266722 377.913910,16.026960 378.508698,16.026396 
	C401.329987,16.004707 424.151520,15.951628 446.972534,16.033142 
	C454.281250,16.059246 459.495300,20.601273 460.596893,27.434401 
	C461.526123,33.198338 458.084869,39.338947 452.347015,41.307602 
	C449.903351,42.146023 447.129608,42.279148 444.504089,42.289623 
	C425.181183,42.366692 405.857819,42.331627 386.042542,42.331886 
z"/>
<path fill="#E9B0A5" opacity="1.000000" stroke="none" 
	d="
M155.386353,141.021362 
	C151.838730,135.753143 148.931870,130.200287 145.365509,125.109436 
	C130.984390,104.580917 116.451859,84.157585 101.841415,63.791420 
	C99.258339,60.190742 96.036598,57.048233 93.049339,53.363750 
	C105.433472,51.031624 116.302063,54.966045 123.604660,64.669731 
	C139.706573,86.065948 154.818436,108.207260 170.572998,130.380508 
	C165.414124,134.052261 160.569046,137.500656 155.386353,141.021362 
z"/>
<path fill="#73C8F0" opacity="1.000000" stroke="none" 
	d="
M436.283752,295.276550 
	C440.298309,291.096069 444.980682,287.355286 448.928070,282.955170 
	C457.227997,273.703369 459.690094,261.758667 462.907684,250.259781 
	C464.280029,245.355255 464.957184,240.256180 465.940704,234.829834 
	C471.565491,234.330582 477.202087,234.111160 482.833374,234.206299 
	C487.358124,234.282730 489.135559,236.347229 487.953339,240.555832 
	C485.448242,249.473923 483.437653,258.675354 479.675842,267.066406 
	C471.472412,285.364868 456.828278,294.860474 436.283752,295.276550 
z"/>
<path fill="#EAC32E" opacity="1.000000" stroke="none" 
	d="
M452.457642,219.058044 
	C451.229858,209.024948 445.755219,201.593491 439.046326,194.453857 
	C455.254852,193.036713 466.888306,199.166901 472.522766,211.936264 
	C473.437347,214.008942 473.924011,216.270416 474.832123,219.154938 
	C467.083771,219.154938 460.000702,219.154938 452.457642,219.058044 
z"/>
<path fill="#F0D945" opacity="1.000000" stroke="none" 
	d="
M271.139771,158.608459 
	C274.491974,152.449066 277.734406,146.686432 281.693512,139.650070 
	C285.530701,146.193329 288.841370,151.504425 291.806702,157.001801 
	C294.149750,161.345535 293.029633,165.425949 289.737213,168.890640 
	C286.539001,172.256195 282.443909,173.040924 278.246552,171.622696 
	C273.829529,170.130249 271.088745,166.863617 270.797974,161.978226 
	C270.739471,160.995300 270.945770,159.996628 271.139771,158.608459 
z"/>
</svg>